<svg width="12" height="12" viewBox="0 0 12 12" fill="none" xmlns="http://www.w3.org/2000/svg">
<path d="M0.0628871 11.8489C0.128465 11.9434 0.236254 12 0.351614 12H11.6484C11.7638 12 11.8715 11.9434 11.9371 11.8489C12.003 11.7542 12.0181 11.6333 11.9776 11.5252C11.8407 11.1589 11.5845 10.8375 11.4805 10.7167C11.4139 10.6387 11.3164 10.5938 11.2137 10.5938H0.786262C0.683606 10.5938 0.586106 10.6387 0.519496 10.7167C0.415481 10.8375 0.159356 11.1589 0.0223636 11.5252C-0.0181364 11.6333 -0.0030426 11.7542 0.0628871 11.8489Z" fill="#414651"/>
<path d="M1.40625 5.64843H3.53907V9.89063H1.40625V5.64843Z" fill="#414651"/>
<path d="M4.94532 5.64843H7.0547V9.89063H4.94532V5.64843Z" fill="#414651"/>
<path d="M8.46094 5.64843H10.5938V9.89063H8.46094V5.64843Z" fill="#414651"/>
<path d="M0.760949 4.84181C0.826949 4.90807 0.918801 4.94533 1.00964 4.94533L1.00981 4.94529C1.00981 4.94529 1.00993 4.94533 1.00997 4.9451H10.99C10.9901 4.94533 10.9902 4.94529 10.9902 4.94529L10.9904 4.94533C11.0812 4.94533 11.1731 4.90809 11.2391 4.84181C11.3106 4.77028 11.8452 4.21352 12 3.53908H4.27188e-06C0.154809 4.21352 0.689395 4.77028 0.760949 4.84181Z" fill="#414651"/>
<path d="M11.7763 2.83594L6.15726 0.0370724C6.05838 -0.0123575 5.94166 -0.0123575 5.84277 0.0370724L0.223762 2.83594H11.7763Z" fill="#414651"/>
</svg>
