<svg width="12" height="12" viewBox="0 0 12 12" fill="none" xmlns="http://www.w3.org/2000/svg">
<path d="M12 3.42857V2.14286C12 1.80186 11.8645 1.47484 11.6234 1.23372C11.3823 0.992602 11.0553 0.857143 10.7143 0.857143H9V0.428571C9 0.314907 8.95485 0.205898 8.87447 0.125526C8.7941 0.0451529 8.68509 0 8.57143 0C8.45776 0 8.34876 0.0451529 8.26838 0.125526C8.18801 0.205898 8.14286 0.314907 8.14286 0.428571V0.857143H3.85714V0.428571C3.85714 0.314907 3.81199 0.205898 3.73162 0.125526C3.65124 0.0451529 3.54224 0 3.42857 0C3.31491 0 3.2059 0.0451529 3.12553 0.125526C3.04515 0.205898 3 0.314907 3 0.428571V0.857143H1.28571C0.944722 0.857143 0.617695 0.992602 0.376577 1.23372C0.135459 1.47484 0 1.80186 0 2.14286V3.42857H12Z" fill="#414651"/>
<path d="M0 4.28571V10.7143C0 11.0553 0.135459 11.3823 0.376577 11.6234C0.617695 11.8645 0.944722 12 1.28571 12H10.7143C11.0553 12 11.3823 11.8645 11.6234 11.6234C11.8645 11.3823 12 11.0553 12 10.7143V4.28571H0ZM8.42143 6.75386L5.42143 9.32529C5.33943 9.3954 5.234 9.432 5.1262 9.42779C5.01839 9.42358 4.91614 9.37886 4.83986 9.30257L3.55414 8.01686C3.47608 7.93603 3.43288 7.82777 3.43385 7.7154C3.43483 7.60303 3.4799 7.49554 3.55936 7.41608C3.63882 7.33662 3.74632 7.29154 3.85869 7.29057C3.97106 7.28959 4.07931 7.33279 4.16014 7.41086L5.16557 8.41629L7.86557 6.102C7.90807 6.0637 7.9578 6.03429 8.01184 6.01552C8.06587 5.99674 8.12312 5.98897 8.18021 5.99267C8.2373 5.99637 8.29307 6.01145 8.34423 6.03705C8.39539 6.06264 8.44092 6.09822 8.47811 6.14168C8.51531 6.18514 8.54343 6.23561 8.56081 6.29012C8.5782 6.34462 8.58449 6.40205 8.57933 6.45902C8.57417 6.516 8.55765 6.57136 8.53075 6.62185C8.50385 6.67234 8.46712 6.71693 8.42271 6.753L8.42143 6.75386Z" fill="#414651"/>
</svg>
