<svg width="12" height="12" viewBox="0 0 12 12" fill="none" xmlns="http://www.w3.org/2000/svg">
<path d="M12 1.26316V10.7368C12 11.0779 11.8447 11.3937 11.5905 11.6337C11.3222 11.8737 10.9691 12 10.5878 12H2.46778C2.0865 12 1.73345 11.8611 1.46514 11.6337C1.19682 11.3937 1.0556 11.0779 1.0556 10.7368V10.4211H0.70256C0.448367 10.4211 0.222419 10.2947 0.0953222 10.1053C-0.0317741 9.91579 -0.031774 9.66316 0.0953222 9.47368C0.222418 9.28421 0.448367 9.15789 0.70256 9.15789H1.0556V7.89474H0.70256C0.448367 7.89474 0.222419 7.76842 0.0953222 7.57895C-0.0317741 7.38947 -0.031774 7.13684 0.0953222 6.94737C0.222418 6.75789 0.448367 6.63158 0.70256 6.63158H1.0556V5.36842H0.70256C0.448367 5.36842 0.222419 5.24211 0.0953222 5.05263C-0.0317741 4.86316 -0.031774 4.61053 0.0953222 4.42105C0.222418 4.23158 0.448367 4.10526 0.70256 4.10526H1.0556V2.84211H0.70256C0.448367 2.84211 0.222419 2.71579 0.0953222 2.52632C-0.0317741 2.33684 -0.031774 2.08421 0.0953222 1.89474C0.222418 1.70526 0.448367 1.57895 0.70256 1.57895H1.0556V1.26316C1.0556 0.922105 1.21094 0.606316 1.46514 0.366316C1.73345 0.126316 2.0865 0 2.46778 0H10.5878C10.9691 0 11.3222 0.138947 11.5905 0.366316C11.8447 0.606316 12 0.922105 12 1.26316ZM6.70433 2.52632C6.23831 2.52632 5.78641 2.69053 5.46161 2.99368C5.13681 3.28421 4.9391 3.68842 4.9391 4.10526C4.9391 4.52211 5.12268 4.92632 5.46161 5.21684C5.78641 5.50737 6.23831 5.68421 6.70433 5.68421C7.17034 5.68421 7.62224 5.52 7.94704 5.21684C8.27185 4.92632 8.46955 4.52211 8.46955 4.10526C8.46955 3.68842 8.28597 3.28421 7.94704 2.99368C7.62224 2.69053 7.17034 2.52632 6.70433 2.52632ZM6.70433 6.31579C5.95587 6.30316 5.22154 6.56842 4.69903 7.04842C4.1624 7.51579 3.86584 8.17263 3.87996 8.84211V9.15789C3.87996 9.24632 3.92233 9.32211 3.97882 9.38526C4.04943 9.44842 4.13416 9.47368 4.23301 9.47368H9.17564C9.27449 9.47368 9.35922 9.43579 9.42983 9.38526C9.50044 9.33474 9.52868 9.24632 9.52868 9.15789V8.84211C9.54281 8.17263 9.24625 7.51579 8.70962 7.04842C8.18712 6.56842 7.45278 6.30316 6.70433 6.31579Z" fill="#414651"/>
</svg>
