<svg width="12" height="10" viewBox="0 0 12 10" fill="none" xmlns="http://www.w3.org/2000/svg">
<path fill-rule="evenodd" clip-rule="evenodd" d="M4.04462 4.1148C4.88506 4.1148 5.66569 4.36007 6.3132 4.77988L4.96859 5.71658C4.57196 5.99288 4.48313 6.52515 4.77087 6.9059C4.99461 7.20196 5.38041 7.31947 5.72759 7.22728V8.00313H0.286349C0.203755 8.00313 0.132646 7.9734 0.0765132 7.91535C0.0203336 7.8573 -0.00528353 7.7871 0.000903964 7.70815C0.158099 5.69849 1.9085 4.1148 4.04462 4.1148ZM5.79148 6.80469L6.10257 6.58798V9.29611C6.10257 9.68325 6.43292 10 6.83668 10H7.77682V7.65557C7.77682 7.47347 7.93221 7.32446 8.12215 7.32446H8.85466C9.04458 7.32446 9.19999 7.47345 9.19999 7.65557V10H10.1401C10.5439 10 10.8742 9.68325 10.8742 9.29611V6.58796L11.1853 6.80469C11.4149 6.96422 11.7359 6.91507 11.9023 6.69493C12.0687 6.47479 12.0174 6.167 11.7878 6.00749L8.79856 3.92507C8.62315 3.79751 8.37469 3.78859 8.18717 3.91886L5.189 6.00749C4.9594 6.167 4.90815 6.47479 5.07453 6.69493C5.24089 6.91505 5.56189 6.9642 5.79148 6.80469ZM4.04464 0C5.177 0 6.09495 0.880185 6.09495 1.9659C6.09495 3.05162 5.17697 3.93181 4.04464 3.93181C2.91231 3.93181 1.99433 3.05162 1.99433 1.9659C1.99433 0.880185 2.91231 0 4.04464 0Z" fill="#414651"/>
</svg>
