<svg width="12" height="12" viewBox="0 0 12 12" fill="none" xmlns="http://www.w3.org/2000/svg">
<path d="M11.9997 5.72547H10.4034C10.4034 5.7052 10.4003 5.68494 10.3972 5.66623C10.3941 5.62726 10.391 5.58829 10.3863 5.54932C10.3832 5.51503 10.3801 5.47918 10.3738 5.44644C10.3598 5.33577 10.3411 5.22821 10.3177 5.12066C10.3115 5.09104 10.3068 5.06142 10.2974 5.03336C10.2631 4.88216 10.2195 4.73407 10.1681 4.5891C10.1478 4.52519 10.1229 4.46128 10.0964 4.39893C10.0714 4.3319 10.0434 4.26643 10.0122 4.20252C9.9888 4.14952 9.96386 4.09808 9.93736 4.04664C9.89995 3.97182 9.85942 3.897 9.81577 3.82373C9.78148 3.76294 9.74407 3.70059 9.7051 3.64291C9.68639 3.6133 9.66769 3.58368 9.64586 3.55562C9.6256 3.526 9.60534 3.49639 9.58663 3.46989C9.56637 3.44027 9.5461 3.41221 9.52428 3.38571C9.48375 3.32804 9.43854 3.27504 9.39334 3.22048C9.36996 3.19242 9.34813 3.16592 9.32319 3.13942C9.30449 3.1176 9.28734 3.09422 9.26396 3.07395C9.23746 3.04278 9.20784 3.01316 9.17978 2.98354C9.1564 2.95704 9.13146 2.9321 9.10652 2.90872C9.08158 2.88378 9.05664 2.8604 9.0317 2.83546C9.0052 2.81052 8.98026 2.78713 8.95376 2.76375C8.87426 2.69205 8.7932 2.62346 8.71214 2.55955C8.68408 2.53773 8.65603 2.51434 8.62641 2.49564C8.56873 2.45043 8.51262 2.41146 8.45338 2.37249C8.39103 2.32885 8.32556 2.28832 8.26009 2.24935C8.23515 2.2322 8.21021 2.21661 8.18371 2.20414C8.08395 2.14647 7.98106 2.09347 7.87662 2.04203C7.85324 2.03112 7.82986 2.0202 7.80492 2.00929C7.80492 2.00929 7.80388 2.00929 7.8018 2.00929C7.75504 1.98903 7.70671 1.9672 7.65995 1.9485C7.64125 1.94226 7.62566 1.93447 7.60695 1.92823C7.56331 1.91109 7.52122 1.8955 7.47601 1.87835C7.41366 1.85809 7.35131 1.83471 7.2874 1.81756C7.2609 1.80977 7.2344 1.80041 7.2079 1.79418C7.20478 1.79418 7.20166 1.79106 7.19855 1.79106C7.15334 1.77703 7.10658 1.76456 7.05981 1.75365C6.98343 1.73338 6.90705 1.7178 6.82911 1.70377C6.76832 1.6913 6.70441 1.68039 6.64049 1.67103C6.57035 1.66012 6.5002 1.65077 6.4285 1.64453C6.35991 1.6383 6.29132 1.63362 6.22429 1.62895H6.2165C6.1448 1.62427 6.07153 1.62271 5.99983 1.62271C5.92812 1.62271 5.85486 1.62271 5.78315 1.62895H5.77536C5.70677 1.63362 5.63819 1.63674 5.57116 1.64453C5.49945 1.65077 5.42931 1.66012 5.35916 1.67103C5.29525 1.67883 5.2329 1.6913 5.17054 1.70377C5.0926 1.7178 5.01622 1.73494 4.93984 1.75365C4.89308 1.76456 4.84631 1.77703 4.80111 1.79106C4.79643 1.79106 4.79487 1.79106 4.79176 1.79418C4.76526 1.80041 4.73876 1.80977 4.71226 1.81756C4.64991 1.83627 4.58755 1.85809 4.52364 1.87835C4.47844 1.8955 4.43635 1.91109 4.3927 1.92823C4.374 1.93447 4.35841 1.94226 4.3397 1.9485C4.29294 1.96876 4.24462 1.98903 4.19785 2.00929C4.19785 2.00929 4.19681 2.00929 4.19473 2.00929C4.17291 2.01864 4.14953 2.02956 4.12927 2.04047C4.02171 2.09035 3.91727 2.14491 3.81595 2.20414C3.79412 2.21505 3.7723 2.22752 3.75204 2.24155C3.67254 2.28832 3.59304 2.33976 3.51666 2.3912C3.47145 2.42237 3.42625 2.45355 3.38104 2.4894C3.37636 2.49252 3.37325 2.49564 3.36701 2.49876C3.34051 2.51746 3.31557 2.53617 3.28907 2.55799C3.2049 2.6219 3.1254 2.69049 3.04746 2.76219C3.02096 2.78402 2.99446 2.8074 2.96952 2.8339C2.94458 2.8604 2.91964 2.88222 2.89469 2.90716C2.86975 2.93054 2.84481 2.95548 2.82143 2.98198C2.74817 3.0568 2.67802 3.1363 2.60943 3.21892C2.58605 3.24542 2.56423 3.27348 2.54241 3.30154C2.52214 3.32804 2.49876 3.35609 2.47849 3.38571C2.45667 3.41377 2.43485 3.44183 2.41614 3.46989C2.36782 3.53692 2.3195 3.60706 2.27585 3.67721C2.25091 3.71618 2.22597 3.75671 2.20259 3.79879C2.18076 3.8362 2.15738 3.87362 2.13712 3.91259C2.11373 3.95779 2.08879 4.00144 2.06541 4.0482C2.03891 4.09964 2.01397 4.15108 1.99059 4.20408C1.96565 4.25708 1.94227 4.31164 1.91888 4.3662C1.89862 4.41764 1.8768 4.46908 1.85809 4.52208C1.83783 4.57975 1.81756 4.63587 1.79886 4.6951C1.79886 4.69822 1.79886 4.70134 1.79574 4.7029C1.77548 4.76213 1.75989 4.82292 1.74274 4.88372C1.72871 4.9336 1.71624 4.98348 1.70533 5.03336C1.69753 5.06298 1.6913 5.0926 1.68506 5.12066C1.68195 5.13001 1.68039 5.13936 1.67883 5.14716C1.66792 5.1986 1.65856 5.25159 1.64921 5.30304C1.64142 5.3498 1.63362 5.39812 1.62895 5.44644C1.62271 5.47918 1.61959 5.51503 1.61648 5.54932C1.6118 5.58829 1.60868 5.62726 1.60557 5.66623C1.60245 5.6865 1.60089 5.70676 1.59933 5.72547H0C0.144969 2.54396 2.7809 0 5.99983 0C9.21875 0 11.8547 2.54396 11.9997 5.72547Z" fill="#414651"/>
<path d="M5.7208 6.28046V7.7052H0.240055C0.102881 7.24224 0.023382 6.76369 0 6.28046H5.7208Z" fill="#414651"/>
<path d="M5.72111 8.26063V9.87866H1.41881C1.00417 9.39076 0.675266 8.8483 0.43521 8.26063H5.72111Z" fill="#414651"/>
<path d="M5.72287 10.4381V12C4.32307 11.9345 2.99185 11.3796 1.95681 10.4381H5.72287Z" fill="#414651"/>
<path d="M7.67919 6.28046V11.7674C7.22246 11.8999 6.75326 11.9779 6.27783 11.9981V6.28046H7.67919Z" fill="#414651"/>
<path d="M9.85758 10.6015C9.36656 11.013 8.82565 11.3388 8.23954 11.5741V6.28046H9.85758V10.6015Z" fill="#414651"/>
<path d="M12 6.28046C11.9345 7.69273 11.3702 9.03486 10.4131 10.0699V6.28046H12Z" fill="#414651"/>
<path d="M9.84474 5.72351H8.21735C8.21267 5.69077 8.208 5.65492 8.2002 5.62219C8.19397 5.58945 8.18773 5.55672 8.17994 5.52398C8.1737 5.49125 8.16435 5.45695 8.155 5.42578C8.10979 5.26366 8.04588 5.10934 7.96638 4.96437C7.96015 4.95034 7.95079 4.93476 7.94144 4.92073C7.9352 4.9067 7.92585 4.89111 7.9165 4.87708C7.89935 4.84746 7.88376 4.8194 7.8635 4.7929C7.84479 4.76329 7.82609 4.73523 7.80427 4.70873C7.78712 4.68535 7.76997 4.66197 7.75127 4.63858C7.7388 4.62144 7.72477 4.60585 7.71074 4.59026C7.69203 4.56688 7.67333 4.54506 7.6515 4.52323C7.63747 4.50609 7.62344 4.4905 7.6063 4.47647C7.58603 4.4562 7.56733 4.43438 7.5455 4.41568C7.52212 4.39229 7.49874 4.37047 7.4738 4.34865C7.27583 4.1725 7.04669 4.03377 6.79572 3.93868C6.7661 3.92777 6.73649 3.91686 6.70687 3.90595C6.68037 3.89659 6.65387 3.88724 6.62737 3.88101C6.58996 3.8701 6.55099 3.85918 6.51202 3.84983C6.47928 3.84204 6.44655 3.83424 6.41381 3.82957C6.38108 3.82333 6.34679 3.8171 6.31249 3.81242C6.21117 3.79683 6.10829 3.7906 6.00229 3.7906C5.89629 3.7906 5.79341 3.79683 5.69209 3.81242C5.6578 3.8171 5.6235 3.82177 5.59077 3.82957C5.55959 3.8358 5.52997 3.84204 5.4988 3.84983C5.45515 3.85918 5.41306 3.8701 5.37409 3.88257C5.34759 3.8888 5.32265 3.89815 5.29771 3.90595C5.2681 3.9153 5.24004 3.92621 5.21198 3.93712C5.07636 3.98856 4.94854 4.05247 4.82695 4.1273C4.79422 4.14756 4.76304 4.16938 4.73031 4.19121C4.6586 4.23797 4.59313 4.29097 4.52766 4.34865C4.50272 4.37047 4.47934 4.39385 4.45596 4.41568C4.4357 4.43594 4.41387 4.4562 4.39673 4.47647C4.37334 4.49829 4.35152 4.52167 4.33126 4.54661C4.22214 4.6682 4.12705 4.80226 4.04755 4.94567C4.03664 4.96593 4.02573 4.98931 4.01482 5.00958C4.00079 5.03608 3.98676 5.06258 3.97585 5.08908C3.95714 5.12493 3.94156 5.16234 3.92753 5.20131C3.91038 5.24184 3.89479 5.28393 3.88232 5.32601C3.87141 5.35875 3.86206 5.38837 3.8527 5.42266C3.83244 5.48813 3.81841 5.5536 3.8075 5.62063C3.80126 5.65336 3.79503 5.68921 3.79035 5.72195H2.16296C2.16296 5.70792 2.16296 5.69389 2.16608 5.68142C2.16608 5.66739 2.16608 5.65492 2.17076 5.64089C2.17076 5.62219 2.17387 5.60504 2.17699 5.58633C2.18011 5.55204 2.18323 5.51619 2.19102 5.48189C2.1957 5.44448 2.20037 5.40707 2.20817 5.37122C2.21596 5.31822 2.22687 5.26678 2.23934 5.21534C2.24558 5.17793 2.25493 5.14052 2.26428 5.10466C2.27052 5.07349 2.27987 5.04387 2.28767 5.01425C2.29234 4.99555 2.29702 4.9784 2.30325 4.9597C2.31417 4.91761 2.32664 4.87708 2.34067 4.83655C2.34534 4.82252 2.34846 4.80849 2.35625 4.7929C2.37028 4.7477 2.38743 4.70249 2.40302 4.65729C2.44666 4.54661 2.49343 4.43594 2.54487 4.32994C2.62437 4.16938 2.71322 4.01662 2.81298 3.8701C2.85975 3.79995 2.91119 3.73292 2.96419 3.66589C2.98913 3.63316 3.01563 3.59886 3.04369 3.56613C3.12163 3.47104 3.2058 3.38063 3.29309 3.2949C3.33518 3.25281 3.37883 3.21228 3.42092 3.17331C3.45833 3.13746 3.4973 3.10317 3.53783 3.07043C3.56121 3.05017 3.58303 3.03302 3.60797 3.01431C3.63603 2.99093 3.66565 2.96911 3.69371 2.94573C3.73579 2.91299 3.77944 2.88338 3.82153 2.85376C3.85426 2.83038 3.88544 2.80855 3.91973 2.78829C3.93844 2.77582 3.95558 2.76335 3.97429 2.75399C4.00391 2.73373 4.03352 2.71658 4.0647 2.69944C4.08496 2.68697 4.10523 2.6745 4.12393 2.66514C4.15667 2.64488 4.19096 2.62773 4.22526 2.61059C4.25487 2.59344 4.28449 2.57785 4.31411 2.56538C4.3297 2.55603 4.34684 2.54823 4.36243 2.542C4.39517 2.52485 4.4279 2.50926 4.46064 2.49679C4.49025 2.48432 4.51987 2.47185 4.54793 2.45938C4.57755 2.44847 4.60716 2.436 4.63522 2.42509C4.66016 2.41574 4.68354 2.40638 4.70849 2.39859C4.75681 2.37988 4.80669 2.36429 4.85813 2.34871C4.86125 2.34871 4.86437 2.34559 4.86592 2.34559C4.92516 2.32533 4.98595 2.30974 5.04675 2.29415C5.09974 2.28012 5.1543 2.26765 5.20886 2.25674C5.21821 2.25362 5.22913 2.2505 5.2416 2.2505C5.28836 2.24115 5.33824 2.23024 5.38656 2.224C5.46762 2.20997 5.54868 2.20062 5.62974 2.19127C5.75444 2.1788 5.87759 2.17256 6.00385 2.17256C6.13011 2.17256 6.25482 2.1788 6.37796 2.19127C6.46058 2.19906 6.54164 2.20997 6.62114 2.224C6.66946 2.23024 6.71934 2.24115 6.7661 2.2505C6.77857 2.25362 6.79104 2.25518 6.80196 2.2583C6.85496 2.26765 6.9064 2.28012 6.95784 2.29259C6.96251 2.29259 6.96407 2.29571 6.96875 2.29727C7.02642 2.3113 7.08254 2.32844 7.14022 2.34559C7.14489 2.34559 7.14645 2.34559 7.15113 2.34871C7.19633 2.36274 7.24154 2.37832 7.2883 2.39391C7.32727 2.40794 7.36624 2.42197 7.40365 2.43756C7.41768 2.44379 7.43171 2.44847 7.44574 2.45471C7.48939 2.47185 7.53148 2.489 7.57045 2.50926C7.58915 2.5155 7.60474 2.52329 7.62189 2.53265C7.66086 2.54979 7.69827 2.56694 7.73412 2.5872C7.74503 2.59188 7.75594 2.59656 7.76685 2.60435C7.81518 2.62773 7.8635 2.65423 7.91026 2.68229C7.91338 2.68229 7.91494 2.68229 7.9165 2.68697C7.96638 2.71502 8.0147 2.74464 8.06459 2.77582C8.10823 2.80232 8.15032 2.83038 8.19085 2.85999C8.23294 2.88805 8.27347 2.91923 8.31399 2.94884C8.35452 2.97846 8.39349 3.00808 8.4309 3.04081C8.43714 3.04549 8.44493 3.05017 8.45117 3.05796C8.4917 3.0907 8.53067 3.12343 8.56964 3.15928C8.57587 3.16396 8.58367 3.17019 8.5899 3.17799C8.63355 3.21696 8.67564 3.25749 8.71772 3.29957C8.80502 3.38531 8.88919 3.47572 8.96713 3.57081C9.00766 3.61757 9.04507 3.66745 9.08092 3.71577C9.11834 3.7641 9.15419 3.81398 9.19004 3.86542C9.19316 3.86854 9.19472 3.87165 9.19628 3.87477C9.2976 4.02442 9.38801 4.1803 9.46751 4.34553C9.49557 4.40165 9.52207 4.4562 9.54545 4.51544C9.57039 4.57311 9.59377 4.63079 9.61559 4.69002C9.63586 4.74146 9.653 4.7929 9.67015 4.84434C9.6795 4.87084 9.68886 4.89734 9.69509 4.9254C9.70756 4.96593 9.71847 5.00802 9.72939 5.04855C9.74497 5.10622 9.759 5.16234 9.77147 5.22157C9.78239 5.27146 9.79174 5.3229 9.80109 5.37434C9.80733 5.41019 9.81356 5.4476 9.81824 5.48501C9.82447 5.5193 9.82915 5.55516 9.83227 5.58945C9.83538 5.60816 9.8385 5.6253 9.8385 5.64401C9.8385 5.65804 9.84318 5.67051 9.84318 5.68454C9.84318 5.69701 9.8463 5.71104 9.8463 5.72507L9.84474 5.72351Z" fill="#414651"/>
<path d="M7.65357 5.72718H4.35047C4.35514 5.70224 4.35982 5.67886 4.36605 5.65547C4.37229 5.63209 4.37697 5.60871 4.38476 5.58377C4.39255 5.55883 4.39879 5.53701 4.40502 5.51207C4.42061 5.46686 4.43776 5.4201 4.45646 5.37489C4.47673 5.32969 4.49699 5.2876 4.51882 5.24551C4.57649 5.13639 4.64352 5.03663 4.72458 4.9431C4.73705 4.92596 4.75264 4.91037 4.76823 4.89478C4.81499 4.84178 4.86643 4.7919 4.92255 4.74514C4.94125 4.72955 4.9584 4.71396 4.97866 4.69993C5.0114 4.67499 5.04569 4.65005 5.07999 4.62667C5.12519 4.59705 5.17196 4.56899 5.21872 4.54405C5.24678 4.52846 5.27639 4.51443 5.30445 4.5004C5.30757 4.5004 5.31069 4.49729 5.31225 4.49729C5.34498 4.48014 5.38083 4.46611 5.41513 4.45364C5.4198 4.45364 5.42292 4.44896 5.4276 4.44896C5.45254 4.43961 5.47748 4.43026 5.50398 4.42247C5.53048 4.41467 5.55698 4.40688 5.58348 4.40064C5.60842 4.39441 5.63492 4.38817 5.65986 4.38194C5.66298 4.38194 5.66609 4.38194 5.66609 4.38194C5.69259 4.3757 5.71754 4.37258 5.74404 4.36791C5.77677 4.36167 5.81106 4.35855 5.84536 4.35544C5.89524 4.35076 5.94512 4.3492 5.99656 4.3492C6.048 4.3492 6.09788 4.35232 6.14776 4.35544C6.18206 4.35855 6.21635 4.36167 6.24909 4.36791C6.27559 4.37258 6.30053 4.3757 6.32703 4.38194C6.32703 4.38194 6.3317 4.38194 6.33326 4.38194C6.3582 4.38817 6.3847 4.39285 6.40964 4.40064C6.43614 4.40688 6.46264 4.41467 6.48914 4.42247C6.51564 4.43026 6.54058 4.43961 6.56552 4.44896C6.5702 4.44896 6.57332 4.45208 6.57799 4.45364C6.61541 4.46767 6.6497 4.48326 6.68555 4.49885C6.72452 4.51599 6.76349 4.5347 6.8009 4.55808C6.82117 4.56743 6.83831 4.57834 6.85702 4.59082C6.8804 4.60484 6.90222 4.61887 6.92561 4.63446C6.95522 4.65317 6.98328 4.67343 7.01134 4.69525C7.01914 4.70149 7.02693 4.70617 7.03472 4.71396C7.06278 4.73422 7.08928 4.75761 7.11578 4.78255C7.13293 4.79658 7.14852 4.81216 7.1641 4.82775C7.19528 4.85737 7.22334 4.88855 7.25296 4.92128C7.27478 4.94622 7.29816 4.97272 7.31842 5.00078C7.34337 5.03196 7.36519 5.06313 7.38857 5.09587C7.40884 5.12548 7.42598 5.1551 7.44469 5.18316C7.49613 5.27045 7.53977 5.36398 7.57563 5.46063C7.5803 5.4731 7.58498 5.48712 7.58966 5.4996C7.59745 5.52765 7.6068 5.55571 7.6146 5.58377C7.62083 5.60715 7.62707 5.63053 7.6333 5.65547C7.63954 5.68042 7.64422 5.70224 7.64889 5.72718H7.65357Z" fill="#414651"/>
</svg>
