<svg width="11" height="12" viewBox="0 0 11 12" fill="none" xmlns="http://www.w3.org/2000/svg">
<path d="M9.13037 2.2254C9.04676 2.13507 8.94474 2.06372 8.83121 2.01617C8.71768 1.96863 8.59527 1.94598 8.47224 1.94978C8.34747 1.95317 8.22487 1.9832 8.11266 2.03785C8.00045 2.0925 7.90121 2.17051 7.82162 2.26665C7.69015 2.42913 7.62143 2.63343 7.62797 2.84233C7.63451 3.05123 7.71587 3.25084 7.85724 3.40478C8.34107 3.92742 8.65504 4.58449 8.75771 5.28926C8.86039 5.99403 8.74693 6.71337 8.43233 7.35232C8.11772 7.99128 7.61676 8.51982 6.99556 8.86818C6.37436 9.21653 5.66212 9.36833 4.95287 9.30353C4.29745 9.24563 3.67139 9.00516 3.14574 8.60941C2.62009 8.21366 2.21591 7.67848 1.97908 7.06461C1.74224 6.45075 1.68223 5.78278 1.80586 5.13653C1.92948 4.49028 2.2318 3.89163 2.67849 3.40853C2.79094 3.28511 2.86558 3.132 2.89356 2.9674C2.92153 2.8028 2.90165 2.63363 2.83629 2.47999C2.77093 2.32636 2.66282 2.19472 2.52483 2.10073C2.38684 2.00674 2.22476 1.95435 2.05787 1.94978C1.93402 1.9453 1.81069 1.9678 1.6964 2.01572C1.58212 2.06363 1.47961 2.13582 1.39599 2.22728C0.865395 2.80089 0.469532 3.48571 0.237277 4.23178C0.00502246 4.97785 -0.0577666 5.76635 0.0534902 6.53978C0.238936 7.75402 0.839901 8.86633 1.75388 9.68696C2.66786 10.5076 3.83823 10.9857 5.06537 11.0398H5.26599C6.28516 11.0359 7.28128 10.7362 8.13339 10.177C8.9855 9.61789 9.65693 8.82337 10.0662 7.88996C10.4754 6.95655 10.6048 5.92439 10.4387 4.91884C10.2726 3.91329 9.81806 2.9776 9.13037 2.2254Z" fill="#414651"/>
<path d="M5.26409 6.07875C5.49532 6.07875 5.71709 5.98689 5.8806 5.82338C6.0441 5.65988 6.13596 5.43811 6.13596 5.20688V0.871875C6.13596 0.640639 6.0441 0.418875 5.8806 0.255366C5.71709 0.091858 5.49532 0 5.26409 0C5.03285 0 4.81109 0.091858 4.64758 0.255366C4.48407 0.418875 4.39221 0.640639 4.39221 0.871875V5.20688C4.39221 5.43811 4.48407 5.65988 4.64758 5.82338C4.81109 5.98689 5.03285 6.07875 5.26409 6.07875Z" fill="#414651"/>
</svg>
