<svg width="12" height="8" viewBox="0 0 12 8" fill="none" xmlns="http://www.w3.org/2000/svg">
<path fill-rule="evenodd" clip-rule="evenodd" d="M8.55469 0.0706787C9.59509 0.312103 9.99307 0.920471 10.492 1.75781H8.55469V0.0706787ZM2.47449 1.82812C2.67819 1.82812 2.82605 1.92645 2.82605 2.15625C2.82605 2.35007 2.66922 2.50726 2.47549 2.50781H0.351562C0.157379 2.50781 0 2.66528 0 2.85938C0 3.05356 0.157379 3.21094 0.351562 3.21094H3.51562C3.71164 3.21094 3.86856 3.36823 3.86856 3.5625C3.86856 3.75668 3.71118 3.91406 3.517 3.91406H0.351562C0.157379 3.91406 0 4.07144 0 4.26562C0 4.45981 0.157379 4.61719 0.351562 4.61719H1.125V5.67188C1.125 5.86606 1.28238 6.02344 1.47656 6.02344H2.18326C2.30923 6.64398 2.85754 7.10156 3.50391 7.10156C4.15027 7.10156 4.69858 6.64398 4.82455 6.02344H8.3942C8.52017 6.64398 9.06848 7.10156 9.71484 7.10156C10.3612 7.10156 10.9095 6.64398 11.0355 6.02344H11.6484C11.8426 6.02344 12 5.86606 12 5.67188V3.5625C12 2.53098 10.912 2.46249 10.911 2.46094H8.20312C8.00894 2.46094 7.85156 2.30356 7.85156 2.10938V0H1.47656C1.28238 0 1.125 0.157379 1.125 0.351562V1.125H0.703125C0.508942 1.125 0.351562 1.28238 0.351562 1.47656C0.351562 1.67075 0.508942 1.82812 0.703125 1.82812H2.47449ZM10.1706 5.29816C10.4223 5.54984 10.4223 5.95807 10.1706 6.20975C9.76575 6.61459 9.07031 6.32657 9.07031 5.75391C9.07031 5.18134 9.76575 4.89331 10.1706 5.29816ZM3.95966 5.29816C4.21133 5.54984 4.21133 5.95807 3.95966 6.20975C3.55481 6.61459 2.85938 6.32657 2.85938 5.75391C2.85938 5.18134 3.55481 4.89331 3.95966 5.29816Z" fill="#414651"/>
</svg>
