<svg width="12" height="12" viewBox="0 0 12 12" fill="none" xmlns="http://www.w3.org/2000/svg">
<path d="M11.1818 9.8182H9.27272C8.06969 9.8182 7.09092 8.83944 7.09092 7.63643C7.09092 6.43341 8.06969 5.45465 9.27272 5.45465H11.1818C11.3326 5.45465 11.4546 5.33267 11.4546 5.18192V4.36375C11.4546 3.79185 11.0109 3.32675 10.4505 3.28165L8.88416 0.545896C8.73901 0.292877 8.50463 0.112036 8.22417 0.0369438C7.94505 -0.0376374 7.65316 0.00153241 7.40333 0.146936L2.03395 3.27285H1.09092C0.489272 3.27285 0 3.76209 0 4.36375V10.9091C0 11.5107 0.489246 12 1.09092 12H10.3636C10.9653 12 11.4546 11.5108 11.4546 10.9091V10.0909C11.4546 9.94018 11.3326 9.8182 11.1818 9.8182ZM9.2224 2.2349L9.81666 3.27285H7.43956L9.2224 2.2349ZM3.11804 3.27285L7.67791 0.618329C7.80123 0.546151 7.9453 0.526976 8.08301 0.563742C8.22231 0.60102 8.33844 0.691044 8.41062 0.817016L8.41118 0.818013L4.19474 3.27285H3.11804Z" fill="#414651"/>
<path d="M11.1818 6.00009H9.27272C8.37037 6.00009 7.63636 6.73409 7.63636 7.63643C7.63636 8.53876 8.37037 9.27276 9.27272 9.27276H11.1818C11.633 9.27276 12 8.90576 12 8.45459V6.81826C12 6.36709 11.633 6.00009 11.1818 6.00009ZM9.27272 8.18186C8.97204 8.18186 8.72728 7.9371 8.72728 7.63643C8.72728 7.33575 8.97204 7.09099 9.27272 7.09099C9.5734 7.09099 9.81817 7.33575 9.81817 7.63643C9.81819 7.9371 9.57343 8.18186 9.27272 8.18186Z" fill="#414651"/>
</svg>
