<svg width="13" height="12" viewBox="0 0 13 12" fill="none" xmlns="http://www.w3.org/2000/svg">
<path fill-rule="evenodd" clip-rule="evenodd" d="M3.21676 9.60723L2.53079 9.92713C2.00103 10.1739 1.37017 9.94467 1.12315 9.41492L0.0993464 7.22274C-0.147673 6.69299 0.0817887 6.06346 0.612154 5.81612L1.29812 5.49682L3.21676 9.60723ZM2.05371 4.96948L6.40501 1.0665C6.65445 0.842747 6.99592 0.750222 7.32467 0.817348C7.65343 0.884474 7.93132 1.10278 8.073 1.40697L10.7085 7.05221C10.8502 7.35639 10.8399 7.70956 10.68 8.00406C10.5196 8.29918 10.2296 8.50055 9.89719 8.54772L4.10736 9.36775L2.05371 4.96948Z" fill="#414651"/>
<path fill-rule="evenodd" clip-rule="evenodd" d="M12.3541 2.34915C12.5811 2.24332 12.8517 2.34189 12.9577 2.56867C13.063 2.79545 12.965 3.06516 12.7379 3.17099L11.6403 3.6826C11.4132 3.78843 11.1426 3.68986 11.0366 3.46308C10.9313 3.2363 11.0294 2.96599 11.2564 2.86016L12.3541 2.34915Z" fill="#414651"/>
<path fill-rule="evenodd" clip-rule="evenodd" d="M12.6895 6.00903C12.925 6.0949 13.0467 6.35555 12.9607 6.59079C12.8753 6.82603 12.6144 6.94698 12.3789 6.86171L11.2413 6.44807C11.0057 6.3622 10.8841 6.10216 10.97 5.86692C11.0554 5.63167 11.3163 5.51012 11.5519 5.59539L12.6895 6.00903Z" fill="#414651"/>
<path fill-rule="evenodd" clip-rule="evenodd" d="M9.31475 0.298482C9.40073 0.0632385 9.66167 -0.0583139 9.89719 0.027559C10.1327 0.112827 10.2538 0.37347 10.1684 0.608713L9.7543 1.74502C9.66833 1.98026 9.40799 2.10181 9.17248 2.01655C8.93696 1.93067 8.81527 1.67003 8.90063 1.43479L9.31475 0.298482Z" fill="#414651"/>
<path fill-rule="evenodd" clip-rule="evenodd" d="M6.25425 9.67435L6.51762 10.2386C6.76525 10.7683 6.53578 11.3979 6.00542 11.6452L5.45628 11.9004C4.92652 12.1477 4.29565 11.9185 4.04863 11.3888L3.47286 10.1557L3.74168 10.0305L6.25425 9.67435Z" fill="#414651"/>
</svg>
