<svg width="12" height="11" viewBox="0 0 12 11" fill="none" xmlns="http://www.w3.org/2000/svg">
<path d="M6 11L5.30285 10.3646C4.25588 9.40149 3.39009 8.5739 2.70547 7.88178C2.02086 7.18966 1.47835 6.57369 1.07795 6.03387C0.677539 5.49404 0.39778 5.00164 0.238674 4.55665C0.0795581 4.11166 0 3.6601 0 3.20197C0 2.29311 0.302227 1.53223 0.906681 0.919338C1.51114 0.306446 2.26154 0 3.15789 0C3.70931 0 4.23036 0.130754 4.72105 0.39226C5.21173 0.653755 5.63805 1.02876 6 1.51726C6.36195 1.02876 6.78827 0.653755 7.27895 0.39226C7.76964 0.130754 8.29069 0 8.84211 0C9.73846 0 10.4889 0.306446 11.0933 0.919338C11.6978 1.53223 12 2.29311 12 3.20197C12 3.6601 11.9204 4.11166 11.7613 4.55665C11.6022 5.00164 11.3225 5.49404 10.922 6.03387C10.5216 6.57369 9.98015 7.18966 9.29756 7.88178C8.61497 8.5739 7.74817 9.40149 6.69715 10.3646L6 11Z" fill="#414651"/>
</svg>
