<svg width="12" height="12" viewBox="0 0 12 12" fill="none" xmlns="http://www.w3.org/2000/svg">
<path d="M4.52104 2.00584C4.54363 1.98488 4.57321 1.97325 4.60391 1.97325C4.63461 1.97325 4.66418 1.98488 4.68677 2.00584L7.87291 4.97307C7.93638 5.03138 8.01099 5.07601 8.09218 5.10423C8.17336 5.13245 8.2594 5.14366 8.34503 5.13717C8.43066 5.13069 8.51407 5.10665 8.59016 5.06652C8.66625 5.0264 8.73341 4.97103 8.78753 4.90382L9.07085 4.54666C9.16956 4.42162 9.21779 4.26362 9.20589 4.10427C9.19399 3.94491 9.12283 3.79597 9.00666 3.68725L5.36923 0.299918C5.16023 0.107001 4.88714 0 4.60378 0C4.32042 0 4.04733 0.107001 3.83833 0.299918L0.20115 3.68624C0.084942 3.79493 0.0137375 3.94385 0.00178981 4.1032C-0.0101579 4.26256 0.0380327 4.42058 0.136716 4.54565L0.420028 4.90281C0.47417 4.96999 0.541341 5.02532 0.61743 5.06543C0.693518 5.10553 0.776924 5.12956 0.862543 5.13605C0.948162 5.14253 1.03419 5.13133 1.11537 5.10314C1.19655 5.07494 1.27116 5.03034 1.33465 4.97206L4.52104 2.00584Z" fill="#414651"/>
<path d="M8.99137 5.93359C8.39632 5.93359 7.81463 6.11148 7.31986 6.44478C6.8251 6.77807 6.43947 7.25179 6.21176 7.80604C5.98404 8.36028 5.92446 8.97016 6.04055 9.55854C6.15664 10.1469 6.44318 10.6874 6.86394 11.1116C7.28471 11.5358 7.8208 11.8247 8.40441 11.9417C8.98803 12.0588 9.59297 11.9987 10.1427 11.7691C10.6925 11.5395 11.1624 11.1508 11.493 10.652C11.8235 10.1531 12 9.5667 12 8.96679C11.9993 8.16254 11.6821 7.39142 11.1181 6.82273C10.554 6.25404 9.7891 5.93426 8.99137 5.93359ZM10.7642 8.7661L9.34589 10.196C9.25276 10.2899 9.1422 10.3644 9.02052 10.4152C8.89884 10.466 8.76843 10.4922 8.63673 10.4922C8.50502 10.4922 8.37461 10.466 8.25293 10.4152C8.13125 10.3644 8.02069 10.2899 7.92757 10.196L7.21853 9.48092C7.15697 9.41888 7.10889 9.34458 7.07738 9.26277C7.04587 9.18096 7.0316 9.09343 7.03549 9.00575C7.03938 8.91808 7.06135 8.83218 7.09998 8.75354C7.13862 8.67489 7.19308 8.60522 7.2599 8.54897C7.38887 8.44918 7.54994 8.40112 7.712 8.41405C7.87406 8.42698 8.02563 8.49999 8.13742 8.61899L8.5491 9.03403C8.57261 9.05772 8.60449 9.07103 8.63773 9.07103C8.67097 9.07103 8.70285 9.05772 8.72636 9.03403L9.84632 7.90517C9.95811 7.78618 10.1097 7.71316 10.2717 7.70023C10.4338 7.6873 10.5949 7.73537 10.7238 7.83516C10.7904 7.89148 10.8447 7.96115 10.8831 8.03974C10.9216 8.11833 10.9434 8.20412 10.9472 8.29167C10.951 8.37922 10.9367 8.46661 10.9052 8.54828C10.8737 8.62996 10.8257 8.70413 10.7642 8.7661Z" fill="#414651"/>
<path d="M4.60378 6.27103C4.93347 6.27048 5.25827 6.35135 5.54979 6.50659C5.84131 6.66182 6.09068 6.88669 6.27608 7.16153C6.66677 6.56549 7.23857 6.11319 7.90575 5.87242C7.93002 5.86357 7.95099 5.84739 7.9658 5.82609C7.98061 5.80478 7.98853 5.77938 7.98849 5.75337V5.41415C7.98849 5.39041 7.98186 5.36715 7.96936 5.34704C7.95685 5.32692 7.93898 5.31076 7.91779 5.30041C7.83948 5.26388 7.76699 5.21584 7.70267 5.15785L4.68878 2.35188C4.66562 2.33035 4.63528 2.3184 4.60378 2.3184C4.57228 2.3184 4.54194 2.33035 4.51879 2.35188L1.50489 5.15785C1.44058 5.21584 1.36808 5.26388 1.28977 5.30041C1.26858 5.31076 1.25071 5.32692 1.23821 5.34704C1.2257 5.36715 1.21907 5.39041 1.21907 5.41415V7.57658C1.2194 7.87814 1.33838 8.16727 1.54989 8.38051C1.7614 8.59375 2.04818 8.71369 2.34731 8.71403H5.62897C5.65992 8.71422 5.68985 8.70287 5.713 8.68215C5.73614 8.66143 5.75087 8.63281 5.75433 8.6018C5.7596 8.55453 5.76762 8.50802 5.77489 8.46126H2.61031C2.58646 8.42472 2.57286 8.38236 2.57095 8.33867C2.5693 8.06821 2.62062 7.80008 2.72197 7.54966C2.82332 7.29924 2.97271 7.07145 3.16157 6.87936C3.35043 6.68727 3.57504 6.53465 3.82253 6.43026C4.07002 6.32587 4.33551 6.27176 4.60378 6.27103ZM4.60378 3.78507C4.80213 3.78507 4.99603 3.84437 5.16095 3.95547C5.32587 4.06656 5.45441 4.22447 5.53032 4.40922C5.60622 4.59397 5.62608 4.79726 5.58739 4.99339C5.54869 5.18952 5.45318 5.36967 5.31292 5.51107C5.17267 5.65247 4.99397 5.74877 4.79943 5.78778C4.60489 5.82679 4.40325 5.80677 4.22 5.73024C4.03674 5.65372 3.88012 5.52413 3.76992 5.35786C3.65972 5.19159 3.6009 4.99611 3.6009 4.79614C3.6009 4.52799 3.70656 4.27082 3.89464 4.0812C4.08272 3.89159 4.3378 3.78507 4.60378 3.78507Z" fill="#414651"/>
</svg>
