<svg width="12" height="13" viewBox="0 0 12 13" fill="none" xmlns="http://www.w3.org/2000/svg">
<path d="M3.3 0.619048C3.3 0.277157 3.03137 0 2.7 0C2.36863 0 2.1 0.277157 2.1 0.619048V1.2381C2.1 1.57999 2.36863 1.85714 2.7 1.85714C3.03137 1.85714 3.3 1.57999 3.3 1.2381V0.619048Z" fill="#414651"/>
<path d="M9.9 0.619048C9.9 0.277157 9.63137 0 9.3 0C8.96863 0 8.7 0.277157 8.7 0.619048V1.2381C8.7 1.57999 8.96863 1.85714 9.3 1.85714C9.63137 1.85714 9.9 1.57999 9.9 1.2381V0.619048Z" fill="#414651"/>
<path d="M0 4.64286V11.7619C0 12.4456 0.5373 13 1.2 13H10.8C11.4627 13 12 12.4456 12 11.7619V4.64286H0ZM3.6 10.8333C3.6 11.1754 3.3315 11.4524 3 11.4524H2.4C2.0685 11.4524 1.8 11.1754 1.8 10.8333V10.2143C1.8 9.87226 2.0685 9.59524 2.4 9.59524H3C3.3315 9.59524 3.6 9.87226 3.6 10.2143V10.8333ZM3.6 7.42857C3.6 7.77059 3.3315 8.04762 3 8.04762H2.4C2.0685 8.04762 1.8 7.77059 1.8 7.42857V6.80952C1.8 6.4675 2.0685 6.19048 2.4 6.19048H3C3.3315 6.19048 3.6 6.4675 3.6 6.80952V7.42857ZM6.9 10.8333C6.9 11.1754 6.6315 11.4524 6.3 11.4524H5.7C5.3685 11.4524 5.1 11.1754 5.1 10.8333V10.2143C5.1 9.87226 5.3685 9.59524 5.7 9.59524H6.3C6.6315 9.59524 6.9 9.87226 6.9 10.2143V10.8333ZM6.9 7.42857C6.9 7.77059 6.6315 8.04762 6.3 8.04762H5.7C5.3685 8.04762 5.1 7.77059 5.1 7.42857V6.80952C5.1 6.4675 5.3685 6.19048 5.7 6.19048H6.3C6.6315 6.19048 6.9 6.4675 6.9 6.80952V7.42857ZM10.2 10.8333C10.2 11.1754 9.9315 11.4524 9.6 11.4524H9C8.6685 11.4524 8.4 11.1754 8.4 10.8333V10.2143C8.4 9.87226 8.6685 9.59524 9 9.59524H9.6C9.9315 9.59524 10.2 9.87226 10.2 10.2143V10.8333ZM10.2 7.42857C10.2 7.77059 9.9315 8.04762 9.6 8.04762H9C8.6685 8.04762 8.4 7.77059 8.4 7.42857V6.80952C8.4 6.4675 8.6685 6.19048 9 6.19048H9.6C9.9315 6.19048 10.2 6.4675 10.2 6.80952V7.42857Z" fill="#414651"/>
<path d="M12 4.02381V2.16667C12 1.48293 11.4627 0.928571 10.8 0.928571H10.5V1.2381C10.5 1.9209 9.9618 2.47619 9.3 2.47619C8.6382 2.47619 8.1 1.9209 8.1 1.2381V0.928571H3.9V1.2381C3.9 1.9209 3.3618 2.47619 2.7 2.47619C2.0382 2.47619 1.5 1.9209 1.5 1.2381V0.928571H1.2C0.5373 0.928571 0 1.48293 0 2.16667V4.02381H12Z" fill="#414651"/>
</svg>
