<svg width="10" height="11" viewBox="0 0 10 11" fill="none" xmlns="http://www.w3.org/2000/svg">
<path d="M8.96582 1.37156C8.29553 1.30024 7.63581 1.15113 7 0.927242C6.41653 0.721091 5.85685 0.452956 5.33056 0.127437C5.19323 0.0440791 5.03565 0 4.875 0C4.71435 0 4.55677 0.0440791 4.41944 0.127437L4.41893 0.127937C3.89275 0.453191 3.33325 0.721154 2.75 0.927242C2.11434 1.15108 1.4548 1.30019 0.78467 1.37158C0.569409 1.39362 0.369987 1.49476 0.225026 1.65542C0.0800649 1.81607 -0.000120104 2.02481 1.35029e-07 2.24119V4.83885C0.000352181 5.79728 0.256837 6.7382 0.742908 7.56423C1.22898 8.39026 1.92697 9.07138 2.76465 9.53709L4.44971 10.4736C4.57948 10.5466 4.72586 10.5849 4.87475 10.5849C5.02365 10.5849 5.17003 10.5466 5.29981 10.4736L6.98535 9.53709C7.82303 9.07138 8.52102 8.39026 9.00709 7.56423C9.49316 6.7382 9.74965 5.79728 9.75 4.83885V2.24119C9.75014 2.02488 9.67003 1.8162 9.52517 1.65555C9.38031 1.49491 9.181 1.39371 8.96582 1.37156ZM6.86475 4.37256L4.98975 6.37256C4.90071 6.46773 4.778 6.52432 4.64782 6.53025C4.51763 6.53618 4.39029 6.49098 4.29297 6.4043L3.16797 5.4043C3.0689 5.31624 3.00887 5.19243 3.00109 5.06012C2.99331 4.9278 3.03841 4.7978 3.12647 4.69874C3.21452 4.59967 3.33833 4.53964 3.47065 4.53186C3.60297 4.52407 3.73296 4.56917 3.83203 4.65723L4.59326 5.3335L6.13526 3.68897C6.18206 3.63912 6.23855 3.59937 6.30128 3.57216C6.364 3.54495 6.43163 3.53085 6.5 3.53074C6.59748 3.53079 6.69281 3.55933 6.77428 3.61285C6.85575 3.66637 6.9198 3.74253 6.95855 3.83197C6.99731 3.92141 7.00908 4.02023 6.99241 4.11627C6.97574 4.21231 6.93137 4.30141 6.86475 4.37256Z" fill="#414651"/>
</svg>
