<svg width="14" height="16" viewBox="0 0 14 16" fill="none" xmlns="http://www.w3.org/2000/svg">
<path d="M7 0C3.13833 0 0 3.07429 0 6.85714V9.71429C0 10.0286 0.2625 10.2857 0.583333 10.2857C0.583333 12.5543 4.08333 12.5543 4.08333 10.2857V8C4.08333 6.53143 2.31 5.73143 1.1725 6.72571C1.2425 3.63429 3.82667 1.14286 7 1.14286C10.1733 1.14286 12.7517 3.63429 12.8275 6.72571C11.6958 5.73143 9.91667 6.53143 9.91667 8V10.2857C9.91667 11.2286 10.7042 12 11.6667 12C11.6667 13.2629 10.6225 14.2857 9.33333 14.2857H8.72083C8.58667 13.6343 7.9975 13.1429 7.29167 13.1429H6.70833C4.7775 13.1429 4.7775 16 6.70833 16H7.29167C7.76417 16 8.18417 15.7714 8.4525 15.4286H9.33333C11.2642 15.4286 12.8333 13.8914 12.8333 12V11.5543C13.1892 11.24 13.4167 10.7886 13.4167 10.2857C13.7375 10.2857 14 10.0286 14 9.71429V6.85714C14 3.07429 10.8617 0 7 0Z" fill="#414651"/>
</svg>
