<svg width="12" height="12" viewBox="0 0 12 12" fill="none" xmlns="http://www.w3.org/2000/svg">
<path d="M6.36448 1.64824L7.10213 2.05193L7.50556 2.79005C7.52816 2.8314 7.57149 2.8571 7.61859 2.8571C7.66569 2.8571 7.70902 2.8314 7.73162 2.79005L8.13505 2.05193L8.8727 1.64824C8.91402 1.62563 8.93971 1.58227 8.93971 1.53514C8.93971 1.48801 8.91402 1.44465 8.8727 1.42204L8.13505 1.01835L7.73162 0.280226C7.70902 0.238885 7.66569 0.213176 7.61859 0.213176C7.57149 0.213176 7.52816 0.238885 7.50556 0.280226L7.10213 1.01835L6.36448 1.42206C6.32317 1.44468 6.29747 1.48803 6.29747 1.53516C6.29747 1.58229 6.32319 1.62563 6.36448 1.64824Z" fill="#414651"/>
<path d="M5.82158 3.40589C6.01561 3.40589 6.1729 3.2485 6.1729 3.05434C6.1729 2.86019 6.01561 2.7028 5.82158 2.7028C5.62755 2.7028 5.47026 2.86019 5.47026 3.05434C5.47026 3.2485 5.62755 3.40589 5.82158 3.40589Z" fill="#414651"/>
<path d="M9.20098 7.16878C9.06377 7.30607 9.06377 7.52864 9.20098 7.66593C9.33818 7.80322 9.56061 7.80322 9.69781 7.66593C9.83501 7.52864 9.83501 7.30607 9.69781 7.16878C9.56061 7.03149 9.33815 7.03149 9.20098 7.16878Z" fill="#414651"/>
<path d="M9.32693 3.55958C9.52096 3.55958 9.67825 3.40219 9.67825 3.20804C9.67825 3.01389 9.52096 2.8565 9.32693 2.8565C9.13291 2.8565 8.97562 3.01389 8.97562 3.20804C8.97562 3.40219 9.13291 3.55958 9.32693 3.55958Z" fill="#414651"/>
<path d="M3.73723 2.15648C3.77613 2.17033 3.81586 2.17689 3.8549 2.17689C3.99939 2.17689 4.13476 2.08704 4.18594 1.94302L4.55519 0.903793C4.62019 0.720874 4.52468 0.519838 4.34187 0.454803C4.159 0.38972 3.95814 0.485316 3.89317 0.668259L3.52391 1.70749C3.45889 1.89041 3.55441 2.09144 3.73723 2.15648Z" fill="#414651"/>
<path d="M11.7345 3.51065C11.5463 3.46324 11.3554 3.57735 11.3079 3.76558L11.0648 4.7309C10.8721 4.61402 10.6869 4.48433 10.5115 4.34354C10.3721 4.23159 10.1833 4.20539 10.0188 4.27523C9.85457 4.34495 9.74233 4.49869 9.72591 4.6765C9.70059 4.95061 9.68069 5.22793 9.66647 5.5045C9.47908 5.40865 9.29293 5.30598 9.11085 5.20555C8.97648 5.13145 8.83757 5.05481 8.69915 4.98143C8.54865 4.90163 8.37135 4.90613 8.2249 4.99352C8.07833 5.08096 7.98998 5.23503 7.98858 5.40565C7.98595 5.72265 7.98565 6.04438 7.98771 6.36192C7.98895 6.55529 8.14599 6.71119 8.33898 6.71119H8.3413C8.53532 6.70994 8.69161 6.55151 8.69035 6.35739C8.6891 6.16442 8.68873 5.9699 8.68924 5.77585C8.71688 5.79106 8.74438 5.80624 8.77171 5.82131C9.06007 5.98035 9.35825 6.14483 9.66795 6.28697C9.81578 6.35481 9.98662 6.34434 10.125 6.25891C10.2629 6.17375 10.3486 6.02619 10.3542 5.86415C10.3627 5.62112 10.3759 5.37628 10.3934 5.13241C10.5818 5.26346 10.7781 5.38357 10.98 5.49138C11.0971 5.55384 11.2286 5.56478 11.3505 5.5222C11.4862 5.47479 11.5973 5.36485 11.6632 5.21268C11.6708 5.19522 11.6769 5.17719 11.6816 5.15875L11.9893 3.93744C12.0367 3.7492 11.9226 3.5581 11.7345 3.51065Z" fill="#414651"/>
<path d="M10.9339 2.11976C11.5189 2.11976 11.9931 1.64523 11.9931 1.05988C11.9931 0.474523 11.5189 0 10.9339 0C10.349 0 9.87473 0.474523 9.87473 1.05988C9.87473 1.64523 10.349 2.11976 10.9339 2.11976Z" fill="#414651"/>
<path d="M6.55771 4.74639C6.60003 4.74639 6.6431 4.73868 6.68493 4.72241L7.71228 4.32278C7.89311 4.25243 7.98272 4.04872 7.91243 3.86774C7.84212 3.68679 7.63852 3.59713 7.45769 3.66746L6.43034 4.06709C6.24951 4.13745 6.1599 4.34115 6.23019 4.52213C6.28422 4.66125 6.41701 4.74639 6.55771 4.74639Z" fill="#414651"/>
<path d="M1.10221 9.19612L3.82804 10.4517L5.57477 9.68671L1.7284 7.76956L1.10221 9.19612Z" fill="#414651"/>
<path d="M2.0188 7.10803L6.23004 9.20704L2.66384 5.63858L2.0188 7.10803Z" fill="#414651"/>
<path d="M3.8123 3.55848C3.65992 3.406 3.46021 3.32977 3.26049 3.32977C3.06078 3.32977 2.86107 3.406 2.70869 3.55848C2.40393 3.86343 2.40393 4.35784 2.70869 4.66279L7.40426 9.36137C7.55664 9.51385 7.75636 9.59009 7.95607 9.59009C8.15578 9.59009 8.35549 9.51385 8.50787 9.36137C8.81263 9.05642 8.81263 8.56201 8.50787 8.25706L3.8123 3.55848Z" fill="#414651"/>
<path d="M0.0212732 11.6585C-0.067657 11.8611 0.138332 12.0676 0.340926 11.9788L2.94384 10.8389L0.812066 9.85698L0.0212732 11.6585Z" fill="#414651"/>
</svg>
