<svg width="20" height="20" viewBox="0 0 20 20" fill="none" xmlns="http://www.w3.org/2000/svg">
<path fill-rule="evenodd" clip-rule="evenodd" d="M19.3023 18.573H0.697674C0.312558 18.573 0 18.8936 0 19.2865C0 19.6803 0.312558 20 0.697674 20H19.3023C19.6874 20 20 19.6803 20 19.2865C20 18.8936 19.6874 18.573 19.3023 18.573Z" fill="currentColor"/>
<path fill-rule="evenodd" clip-rule="evenodd" d="M12.5581 19.2865V1.66433C12.5581 1.11254 12.2902 0.595944 11.8428 0.285798C11.3953 -0.0233956 10.827 -0.0861859 10.3256 0.119309L2.88372 3.16368C2.26605 3.41579 1.86047 4.02847 1.86047 4.70965V19.2865C1.86047 19.6813 2.17302 20 2.55814 20H11.8605C12.2456 20 12.5581 19.6813 12.5581 19.2865ZM5.34884 17.1459H9.06977C9.45488 17.1459 9.76744 16.8262 9.76744 16.4324C9.76744 16.0395 9.45488 15.7189 9.06977 15.7189H5.34884C4.96372 15.7189 4.65116 16.0395 4.65116 16.4324C4.65116 16.8262 4.96372 17.1459 5.34884 17.1459ZM5.34884 13.8161H9.06977C9.45488 13.8161 9.76744 13.4965 9.76744 13.1026C9.76744 12.7097 9.45488 12.3891 9.06977 12.3891H5.34884C4.96372 12.3891 4.65116 12.7097 4.65116 13.1026C4.65116 13.4965 4.96372 13.8161 5.34884 13.8161ZM5.34884 10.4863H9.06977C9.45488 10.4863 9.76744 10.1667 9.76744 9.77282C9.76744 9.3799 9.45488 9.05929 9.06977 9.05929H5.34884C4.96372 9.05929 4.65116 9.3799 4.65116 9.77282C4.65116 10.1667 4.96372 10.4863 5.34884 10.4863ZM5.34884 7.15656H9.06977C9.45488 7.15656 9.76744 6.8369 9.76744 6.44304C9.76744 6.05012 9.45488 5.72951 9.06977 5.72951H5.34884C4.96372 5.72951 4.65116 6.05012 4.65116 6.44304C4.65116 6.8369 4.96372 7.15656 5.34884 7.15656Z" fill="currentColor"/>
<path fill-rule="evenodd" clip-rule="evenodd" d="M13.4884 5.25383V19.2865C13.4884 19.5424 13.4326 19.784 13.3321 20H17.4419C17.827 20 18.1395 19.6813 18.1395 19.2865V6.91872C18.1395 5.9997 17.4102 5.25383 16.5116 5.25383H13.4884Z" fill="currentColor"/>
</svg>
