<svg width="17" height="17" viewBox="0 0 17 17" fill="none" xmlns="http://www.w3.org/2000/svg">
<path fill-rule="evenodd" clip-rule="evenodd" d="M15.3992 4.64856L10.9108 0.937519C9.39892 -0.312506 7.26775 -0.312506 5.75586 0.937519L1.26748 4.64856C0.458825 5.31716 0 6.33088 0 7.38859V13.1758C0 15.055 1.44513 16.6667 3.33333 16.6667H5C5.92048 16.6667 6.66667 15.9205 6.66667 15V12.2898C6.66667 11.2336 7.46008 10.4656 8.33333 10.4656C9.20658 10.4656 10 11.2336 10 12.2898V15C10 15.9205 10.7462 16.6667 11.6667 16.6667H13.3333C15.2216 16.6667 16.6667 15.055 16.6667 13.1758V7.38859C16.6667 6.33089 16.2078 5.31716 15.3992 4.64856Z" fill="black"/>
</svg>
