<svg width="19" height="20" viewBox="0 0 19 20" fill="none" xmlns="http://www.w3.org/2000/svg">
<path d="M5.225 0.952381C5.225 0.426395 4.79967 0 4.275 0C3.75033 0 3.325 0.426395 3.325 0.952381V1.90476C3.325 2.43075 3.75033 2.85714 4.275 2.85714C4.79967 2.85714 5.225 2.43075 5.225 1.90476V0.952381Z" fill="currentColor"/>
<path d="M15.675 0.952381C15.675 0.426395 15.2497 0 14.725 0C14.2003 0 13.775 0.426395 13.775 0.952381V1.90476C13.775 2.43075 14.2003 2.85714 14.725 2.85714C15.2497 2.85714 15.675 2.43075 15.675 1.90476V0.952381Z" fill="currentColor"/>
<path d="M0 7.14286V18.0952C0 19.1471 0.850725 20 1.9 20H17.1C18.1493 20 19 19.1471 19 18.0952V7.14286H0ZM5.7 16.6667C5.7 17.1929 5.27488 17.619 4.75 17.619H3.8C3.27512 17.619 2.85 17.1929 2.85 16.6667V15.7143C2.85 15.1881 3.27512 14.7619 3.8 14.7619H4.75C5.27488 14.7619 5.7 15.1881 5.7 15.7143V16.6667ZM5.7 11.4286C5.7 11.9548 5.27488 12.381 4.75 12.381H3.8C3.27512 12.381 2.85 11.9548 2.85 11.4286V10.4762C2.85 9.95 3.27512 9.52381 3.8 9.52381H4.75C5.27488 9.52381 5.7 9.95 5.7 10.4762V11.4286ZM10.925 16.6667C10.925 17.1929 10.4999 17.619 9.975 17.619H9.025C8.50012 17.619 8.075 17.1929 8.075 16.6667V15.7143C8.075 15.1881 8.50012 14.7619 9.025 14.7619H9.975C10.4999 14.7619 10.925 15.1881 10.925 15.7143V16.6667ZM10.925 11.4286C10.925 11.9548 10.4999 12.381 9.975 12.381H9.025C8.50012 12.381 8.075 11.9548 8.075 11.4286V10.4762C8.075 9.95 8.50012 9.52381 9.025 9.52381H9.975C10.4999 9.52381 10.925 9.95 10.925 10.4762V11.4286ZM16.15 16.6667C16.15 17.1929 15.7249 17.619 15.2 17.619H14.25C13.7251 17.619 13.3 17.1929 13.3 16.6667V15.7143C13.3 15.1881 13.7251 14.7619 14.25 14.7619H15.2C15.7249 14.7619 16.15 15.1881 16.15 15.7143V16.6667ZM16.15 11.4286C16.15 11.9548 15.7249 12.381 15.2 12.381H14.25C13.7251 12.381 13.3 11.9548 13.3 11.4286V10.4762C13.3 9.95 13.7251 9.52381 14.25 9.52381H15.2C15.7249 9.52381 16.15 9.95 16.15 10.4762V11.4286Z" fill="currentColor"/>
<path d="M19 6.19048V3.33333C19 2.28143 18.1493 1.42857 17.1 1.42857H16.625V1.90476C16.625 2.95524 15.7729 3.80952 14.725 3.80952C13.6772 3.80952 12.825 2.95524 12.825 1.90476V1.42857H6.175V1.90476C6.175 2.95524 5.32285 3.80952 4.275 3.80952C3.22715 3.80952 2.375 2.95524 2.375 1.90476V1.42857H1.9C0.850725 1.42857 0 2.28143 0 3.33333V6.19048H19Z" fill="currentColor"/>
</svg>
