<svg width="17" height="20" viewBox="0 0 17 20" fill="none" xmlns="http://www.w3.org/2000/svg">
<path d="M8.5 0C3.81083 0 0 3.84286 0 8.57143V12.1429C0 12.5357 0.31875 12.8571 0.708333 12.8571C0.708333 15.6929 4.95833 15.6929 4.95833 12.8571V10C4.95833 8.16429 2.805 7.16429 1.42375 8.40714C1.50875 4.54286 4.64667 1.42857 8.5 1.42857C12.3533 1.42857 15.4842 4.54286 15.5762 8.40714C14.2021 7.16429 12.0417 8.16429 12.0417 10V12.8571C12.0417 14.0357 12.9979 15 14.1667 15C14.1667 16.5786 12.8987 17.8571 11.3333 17.8571H10.5896C10.4267 17.0429 9.71125 16.4286 8.85417 16.4286H8.14583C5.80125 16.4286 5.80125 20 8.14583 20H8.85417C9.42792 20 9.93792 19.7143 10.2637 19.2857H11.3333C13.6779 19.2857 15.5833 17.3643 15.5833 15V14.4429C16.0154 14.05 16.2917 13.4857 16.2917 12.8571C16.6812 12.8571 17 12.5357 17 12.1429V8.57143C17 3.84286 13.1892 0 8.5 0Z" fill="currentColor"/>
</svg>
