<svg width="10" height="10" viewBox="0 0 10 10" fill="none" xmlns="http://www.w3.org/2000/svg">
<path d="M6.17554 1.67134L0.673399 7.17966C0.645718 7.20745 0.62573 7.24255 0.616212 7.28026L0.00635233 9.73068C-0.0118903 9.80444 0.00976291 9.88289 0.0635391 9.93672C0.104228 9.97745 0.15967 10 0.216381 10C0.233751 10 0.251518 9.99786 0.268809 9.99349L2.71666 9.38291C2.75481 9.37338 2.78947 9.35345 2.81715 9.32574L8.31977 3.81782L6.17554 1.67134Z" fill="#4C7B0C"/>
<path d="M9.68289 0.920306L9.07042 0.307186C8.66107 -0.102594 7.94762 -0.102197 7.53875 0.307186L6.7885 1.05822L8.93265 3.20462L9.68289 2.45358C9.88737 2.24897 10 1.97663 10 1.68698C10 1.39734 9.88737 1.125 9.68289 0.920306Z" fill="#4C7B0C"/>
</svg>
