<svg width="40" height="40" viewBox="0 0 40 40" fill="none" xmlns="http://www.w3.org/2000/svg">
<path d="M0 20C0 8.95431 8.95431 0 20 0V0C31.0457 0 40 8.95431 40 20V20C40 31.0457 31.0457 40 20 40V40C8.95431 40 0 31.0457 0 20V20Z" fill="#D9F99E"/>
<path d="M16.13 26.9985C17.279 27.6351 18.5987 28 20.0039 28C24.4211 28 28 24.4134 28 19.9961C28 15.5788 24.4211 12 20.0039 12C15.5866 12 12 15.5788 12 19.9961C12 21.4168 12.3727 22.7365 13.017 23.8933L12 28L16.13 26.9985ZM16.5726 16.4638C16.7588 16.2853 17.0306 16.2154 17.279 16.2698L17.5352 16.3241C17.7914 16.3784 18.001 16.5492 18.1019 16.7821L18.6065 17.9C18.7307 18.1717 18.6842 18.4978 18.4823 18.7229L18.1717 19.0878C18.0708 19.2042 18.0476 19.3828 18.1252 19.5226C19.0412 21.1683 20.2445 21.704 20.7802 21.867C20.9354 21.9214 21.114 21.8515 21.1994 21.7117L21.4245 21.3624C21.6419 21.0286 22.0689 20.9121 22.5424 21.145L23.474 21.6109C23.8311 21.7816 23.9942 22.2008 23.8622 22.5735C23.3887 23.9475 22.1776 23.7768 22.1776 23.7768C19.4915 23.7069 17.3877 21.2304 16.4794 19.9573C16.0602 19.3595 15.804 18.6375 15.8816 17.9C15.9593 17.1703 16.3009 16.7123 16.5726 16.4638Z" fill="#3E6111"/>
</svg>
