<svg width="40" height="40" viewBox="0 0 40 40" fill="none" xmlns="http://www.w3.org/2000/svg">
<path d="M0 20C0 8.95431 8.95431 0 20 0V0C31.0457 0 40 8.95431 40 20V20C40 31.0457 31.0457 40 20 40V40C8.95431 40 0 31.0457 0 20V20Z" fill="#0B4A6F"/>
<path d="M25.82 23.1362C24.8477 22.3095 23.861 21.8088 22.9006 22.6342L22.3272 23.1331C21.9077 23.4953 21.1276 25.1874 18.1115 21.7382C15.0961 18.2934 16.8905 17.757 17.3107 17.398L17.8873 16.8985C18.8426 16.0712 18.4821 15.0297 17.7931 13.9576L17.3773 13.3082C16.6851 12.2386 15.9314 11.5362 14.9736 12.3622L14.4561 12.8118C14.0328 13.1184 12.8494 14.1149 12.5624 16.0081C12.217 18.2797 13.3067 20.8809 15.8033 23.735C18.2968 26.5904 20.7382 28.0247 23.0508 27.9997C24.9727 27.9791 26.1334 26.9538 26.4964 26.581L27.0158 26.1309C27.9712 25.3054 27.3776 24.465 26.4047 23.6364L25.82 23.1362Z" fill="white"/>
</svg>
