<svg width="38" height="38" viewBox="0 0 38 38" fill="none" xmlns="http://www.w3.org/2000/svg">
<circle cx="18.9309" cy="18.9309" r="18.9309" fill="#F2F2F2"/>
<path d="M10.9307 25.9307V23.9307H12.9307V16.9307C12.9307 15.5473 13.3473 14.3182 14.1807 13.2432C15.014 12.1682 16.0973 11.464 17.4307 11.1307V10.4307C17.4307 10.014 17.5765 9.65983 17.8682 9.36816C18.1598 9.0765 18.514 8.93066 18.9307 8.93066C19.3473 8.93066 19.7015 9.0765 19.9932 9.36816C20.2848 9.65983 20.4307 10.014 20.4307 10.4307V11.1307C21.764 11.464 22.8473 12.1682 23.6807 13.2432C24.514 14.3182 24.9307 15.5473 24.9307 16.9307V23.9307H26.9307V25.9307H10.9307ZM18.9307 28.9307C18.3807 28.9307 17.9098 28.7348 17.5182 28.3432C17.1265 27.9515 16.9307 27.4807 16.9307 26.9307H20.9307C20.9307 27.4807 20.7348 27.9515 20.3432 28.3432C19.9515 28.7348 19.4807 28.9307 18.9307 28.9307Z" fill="#252B37"/>
</svg>
