<svg width="40" height="40" viewBox="0 0 40 40" fill="none" xmlns="http://www.w3.org/2000/svg">
<path d="M0 20C0 8.95431 8.95431 0 20 0V0C31.0457 0 40 8.95431 40 20V20C40 31.0457 31.0457 40 20 40V40C8.95431 40 0 31.0457 0 20V20Z" fill="#0B4A6F"/>
<path fill-rule="evenodd" clip-rule="evenodd" d="M23.7053 15.3808C24.1174 15.4903 24.4607 15.7509 24.672 16.1146C25.0799 16.8163 24.8821 17.7028 24.2416 18.1739L22.661 15.4551C22.9883 15.3141 23.3527 15.2869 23.7053 15.3807V15.3808ZM13.8523 25.6488L16.058 24.384L13.1521 19.3915L10.9495 20.6549C10.2814 21.038 9.8025 21.6602 9.60131 22.4065C9.39968 23.1531 9.50113 23.9298 9.88684 24.5933C10.4242 25.5173 11.4019 26.0345 12.4059 26.0345C12.8979 26.0345 13.3963 25.9103 13.8523 25.6488ZM18.4539 28.5129L16.6016 25.3265L14.8728 26.3179L16.7246 29.5045C17.0003 29.978 17.6118 30.1407 18.0887 29.8674C18.3179 29.7358 18.4824 29.5217 18.552 29.2649C18.6212 29.0079 18.5864 28.741 18.4539 28.5129V28.5129ZM25.3418 22.2396L19.6666 12.4759C19.5485 12.2723 19.3542 12.1607 19.1193 12.1607C19.1149 12.1607 19.1103 12.1609 19.1058 12.1609C18.8648 12.1653 18.6697 12.2843 18.5567 12.4961C18.3572 12.87 18.1648 13.269 17.9613 13.6916C17.1049 15.4684 16.142 17.4658 14.0902 18.8322L17.0142 23.857C19.2292 22.7769 21.4516 22.947 23.4278 23.0987C23.8988 23.1349 24.3431 23.1688 24.7693 23.1844C25.0108 23.1936 25.2116 23.0851 25.3358 22.8798C25.4605 22.6745 25.4623 22.447 25.3419 22.2396L25.3418 22.2396ZM23.9151 12.2145C23.7643 12.4743 23.854 12.8065 24.1155 12.9565C24.2013 13.0059 24.2954 13.0294 24.3882 13.0294C24.5771 13.0294 24.7612 12.932 24.8623 12.7577L25.992 10.8148C26.1428 10.5551 26.0532 10.2228 25.7917 10.0728C25.5299 9.92288 25.1957 10.0119 25.0449 10.2716L23.9151 12.2145ZM30.5 18.1721C30.5 17.8724 30.2554 17.6289 29.9517 17.6289L27.6937 17.6291C27.3919 17.6291 27.1469 17.8724 27.1469 18.1723C27.1469 18.4723 27.3919 18.7155 27.6937 18.7155L29.9517 18.7153C30.2554 18.7153 30.5 18.4723 30.5 18.1721ZM29.1925 13.5221C29.0406 13.2623 28.7074 13.1733 28.4459 13.3233L26.442 14.4721C26.1803 14.6223 26.0907 14.9543 26.2417 15.2143C26.3431 15.3886 26.5268 15.486 26.7158 15.486C26.8086 15.486 26.9026 15.4623 26.9889 15.4131L28.9921 14.2641C29.2537 14.1141 29.3443 13.7819 29.1925 13.5221Z" fill="white"/>
</svg>
