<svg width="40" height="40" viewBox="0 0 40 40" fill="none" xmlns="http://www.w3.org/2000/svg">
<path d="M0 20C0 8.95431 8.95431 0 20 0V0C31.0457 0 40 8.95431 40 20V20C40 31.0457 31.0457 40 20 40V40C8.95431 40 0 31.0457 0 20V20Z" fill="#0B4A6F"/>
<path d="M20.6738 10.67C20.6738 10.2999 20.3722 10 20 10C19.6278 10 19.3262 10.2999 19.3262 10.67V13.5407C19.3262 13.9108 19.6278 14.2107 20 14.2107C20.3722 14.2107 20.6738 13.9108 20.6738 13.5407V10.67Z" fill="white"/>
<path d="M16.6367 14.7323C16.7681 14.863 16.9406 14.9286 17.1131 14.9286C17.2854 14.9286 17.4579 14.8632 17.5895 14.7323C17.8525 14.4706 17.8525 14.0464 17.5895 13.7846L16.1458 12.3493C15.8828 12.0876 15.4562 12.0876 15.193 12.3493C14.9298 12.611 14.9298 13.0352 15.193 13.297L16.6367 14.7323Z" fill="white"/>
<path d="M22.8869 14.9284C23.0594 14.9284 23.2319 14.863 23.3634 14.7321L24.807 13.2968C25.07 13.0352 25.07 12.6109 24.807 12.3493C24.5438 12.0876 24.1172 12.0876 23.854 12.3493L22.4105 13.7846C22.1473 14.0464 22.1473 14.4706 22.4105 14.7321C22.5421 14.863 22.7146 14.9284 22.8869 14.9284Z" fill="white"/>
<path d="M18.0506 16.4732C18.0436 16.4789 18.0369 16.4845 18.0306 16.4897L15.1174 18.9731C14.8475 19.203 14.5025 19.3299 14.1466 19.3299H12.0601C10.0938 19.3299 8.5 20.912 8.5 22.8699V29.33C8.5 29.6999 8.80164 30 9.17383 30H14.9477C15.3201 30 15.6215 29.6997 15.6215 29.33V23.1789L19.0503 20.2564C19.2254 20.1072 19.3262 19.8893 19.3262 19.66V17.0875C19.3262 16.4332 18.5618 16.061 18.0506 16.4732Z" fill="white"/>
<path d="M27.9399 19.3299H25.8534C25.4975 19.3299 25.1525 19.203 24.8826 18.9729L21.9694 16.4897C21.9631 16.4845 21.9564 16.4789 21.9494 16.4732C21.4382 16.061 20.6738 16.4332 20.6738 17.0875V19.66C20.6738 19.8893 20.7746 20.1072 20.9497 20.2564L24.3785 23.1789V29.3298C24.3785 29.6997 24.6799 29.9998 25.0523 29.9998H30.8262C31.1984 29.9998 31.5 29.6999 31.5 29.3298V22.8699C31.5 20.912 29.9062 19.3299 27.9399 19.3299Z" fill="white"/>
<path d="M14.8998 16.5067C14.8998 14.9501 13.6262 13.6836 12.0608 13.6836C10.4953 13.6836 9.22173 14.9501 9.22173 16.5067C9.22173 18.0634 10.4953 19.3299 12.0608 19.3299C13.6262 19.3299 14.8998 18.0634 14.8998 16.5067Z" fill="white"/>
<path d="M30.7783 16.5067C30.7783 14.9501 29.5047 13.6836 27.9392 13.6836C26.3738 13.6836 25.1002 14.9501 25.1002 16.5067C25.1002 18.0634 26.3738 19.3299 27.9392 19.3299C29.5047 19.3299 30.7783 18.0634 30.7783 16.5067Z" fill="white"/>
</svg>
