<svg width="40" height="40" viewBox="0 0 40 40" fill="none" xmlns="http://www.w3.org/2000/svg">
<path d="M0 20C0 8.95431 8.95431 0 20 0V0C31.0457 0 40 8.95431 40 20V20C40 31.0457 31.0457 40 20 40V40C8.95431 40 0 31.0457 0 20V20Z" fill="#912018"/>
<path d="M11.2724 27.6368C11.1222 27.6368 11 27.7574 11 27.9058V29.7309C11 29.8793 11.1222 30 11.2724 30H28.7276C28.8778 30 29 29.8793 29 29.7309V27.9058C29 27.7574 28.8778 27.6368 28.7276 27.6368H11.2724Z" fill="white"/>
<path d="M20 14.7621C16.2537 14.7621 13.2059 17.7721 13.2059 21.472V26.3812H26.7941V21.472C26.7941 17.7721 23.7463 14.7621 20 14.7621ZM20 17.3812C17.716 17.3812 15.8579 19.2163 15.8579 21.472H14.5866C14.5866 18.524 17.015 16.1256 20 16.1256V17.3812H20Z" fill="white"/>
<path d="M19.3643 10H20.6357V12.2144H19.3643V10Z" fill="white"/>
<path d="M12.1653 13.4648L13.0642 12.5771L14.6494 14.1427L13.7506 15.0304L12.1653 13.4648Z" fill="white"/>
<path d="M25.3476 14.1441L26.9328 12.5785L27.8317 13.4662L26.2464 15.0318L25.3476 14.1441Z" fill="white"/>
</svg>
