<svg width="40" height="40" viewBox="0 0 40 40" fill="none" xmlns="http://www.w3.org/2000/svg">
<path d="M0 20C0 8.95431 8.95431 0 20 0V0C31.0457 0 40 8.95431 40 20V20C40 31.0457 31.0457 40 20 40V40C8.95431 40 0 31.0457 0 20V20Z" fill="#0B4A6F"/>
<path d="M18.6452 11.5234C18.6452 11.3296 18.8015 11.1719 18.9935 11.1719H21.0064C21.1985 11.1719 21.3548 11.3296 21.3548 11.5234V13.6178H22.5161V11.5234C22.5161 10.6834 21.8389 10 21.0064 10H18.9935C18.1611 10 17.4839 10.6834 17.4839 11.5234V13.6178H18.6452V11.5234Z" fill="white"/>
<path d="M24.6452 14.7897H15.3548C14.6078 14.7897 14 15.403 14 16.1569V27.461C14 28.1486 14.5056 28.719 15.1613 28.8141V29.414C15.1613 29.7376 15.4213 30 15.7419 30C16.0626 30 16.3226 29.7376 16.3226 29.414V28.8282H23.6774V29.4141C23.6774 29.7377 23.9374 30 24.2581 30C24.5787 30 24.8387 29.7377 24.8387 29.4141V28.8141C25.4944 28.719 26 28.1486 26 27.4611V16.1569C26 15.403 25.3922 14.7897 24.6452 14.7897ZM17.4839 26.6798C17.4839 27.0034 17.2239 27.2657 16.9032 27.2657C16.5826 27.2657 16.3226 27.0034 16.3226 26.6798V16.9381C16.3226 16.6145 16.5826 16.3522 16.9032 16.3522C17.2239 16.3522 17.4839 16.6145 17.4839 16.9381V26.6798ZM23.0968 27.2657C22.7761 27.2657 22.5161 27.0034 22.5161 26.6798V16.9381C22.5161 16.6145 22.7761 16.3522 23.0968 16.3522C23.4174 16.3522 23.6774 16.6145 23.6774 16.9381V26.6798C23.6774 27.0034 23.4174 27.2657 23.0968 27.2657Z" fill="white"/>
</svg>
