<svg width="34" height="34" viewBox="0 0 34 34" fill="none" xmlns="http://www.w3.org/2000/svg">
<g clip-path="url(#clip0_2675_18956)">
<mask id="mask0_2675_18956" style="mask-type:luminance" maskUnits="userSpaceOnUse" x="-1" y="0" width="35" height="34">
<path d="M33.0742 0H-0.000183105V33.0744H33.0742V0Z" fill="white"/>
</mask>
<g mask="url(#mask0_2675_18956)">
<path d="M31.2555 30.8946C31.055 30.7071 30.5463 30.7285 30.1754 30.7439C30.0327 30.7498 29.9095 30.7544 29.8214 30.7487L29.7658 30.7439V27.1795L29.8322 27.1866C30.1766 27.221 30.3168 27.1334 30.3325 27.0466C30.3554 26.9172 30.1608 26.7249 29.8045 26.6371L29.7585 26.6253L29.7658 24.6882L29.831 24.693C30.3602 24.7334 30.5233 24.6503 30.5669 24.5743C30.649 24.4295 30.4206 24.1197 30.22 23.8467C30.0629 23.6331 29.8999 23.4123 29.837 23.2223C29.7851 23.0669 29.7803 22.9185 29.7766 22.7879C29.7729 22.68 29.7706 22.5779 29.7416 22.4829C29.6291 22.108 29.4057 21.8372 29.112 21.7222C28.8305 21.6119 28.4971 21.652 28.1733 21.8361L28.0923 21.8824L28.0838 21.7897C28.0137 21.0657 27.3116 20.8165 26.7474 20.6171C26.4997 20.5292 26.2846 20.4533 26.1626 20.3477C26.0648 20.2647 26.043 20.1389 26.0211 20.0166C25.9994 19.892 25.9777 19.7745 25.8811 19.708C25.8798 19.708 25.8786 19.708 25.8775 19.708C25.6383 19.708 25.5875 19.9537 25.5573 20.2052C25.5463 20.2991 25.539 20.3548 25.5088 20.3856C25.4848 20.4106 25.4448 20.4214 25.2321 20.4652C25.0098 20.5116 24.6739 20.5804 24.5012 20.6694C24.1507 20.8498 23.8824 21.2355 23.7036 21.4907C23.5961 21.6449 23.5248 21.7459 23.4596 21.7826C23.3955 21.8195 23.294 21.7874 23.1417 21.7399C22.934 21.6747 22.65 21.5857 22.4991 21.7103L22.3999 21.7922L22.3975 20.7727L22.4604 20.775C22.4991 20.7762 22.5389 20.7785 22.5787 20.7798C22.8892 20.794 23.184 20.8083 23.329 20.5329C23.2565 20.2823 23.0692 20.0593 22.8892 19.8445C22.731 19.6557 22.5823 19.4789 22.4991 19.2795C22.4266 19.1062 22.3939 18.9353 22.3625 18.7691C22.2949 18.4142 22.2368 18.1068 21.8151 17.8694C21.3342 17.5988 21.1505 17.7175 20.9378 17.8576C20.8315 17.9276 20.7215 17.9988 20.5717 18.0214C20.4812 18.0344 20.3748 17.9727 20.2406 17.8955C20.0871 17.8065 19.9133 17.7056 19.7404 17.7056C19.5447 17.7056 19.3901 17.8077 19.2536 17.8967C19.1604 17.9573 19.0807 18.0095 19.001 18.0214C18.9128 18.0344 18.8004 17.9703 18.659 17.8908C18.5007 17.8006 18.3207 17.6985 18.1551 17.6938C17.9606 17.6878 17.7963 17.784 17.6525 17.8706C17.5341 17.9418 17.4314 18.0024 17.3238 18.0024C17.2151 18.0024 17.0991 17.9324 16.9758 17.8576C16.8478 17.7792 16.7161 17.6997 16.5855 17.6914C16.3995 17.6795 16.2339 17.7781 16.0901 17.8659C15.9741 17.9359 15.863 18.0036 15.7542 18.0036C15.6455 18.0036 15.5319 17.9347 15.4099 17.8611C15.2818 17.784 15.1501 17.7045 15.0172 17.695C14.7876 17.6807 14.5943 17.7959 14.4384 17.8908C14.3369 17.9513 14.2571 18 14.1834 18.0036C14.0844 18.0107 13.9744 17.943 13.8475 17.8659C13.7219 17.7899 13.5781 17.7045 13.4464 17.695C13.2023 17.6783 13.0247 17.7923 12.8676 17.8932C12.7697 17.9561 12.6839 18.0107 12.5969 18.0237C12.4918 18.0392 12.3951 17.9786 12.284 17.9098C12.087 17.7875 11.8417 17.6344 11.4188 17.7959C10.8751 18.0047 10.8171 18.349 10.7494 18.7489C10.718 18.9329 10.6866 19.124 10.6032 19.3091C10.5634 19.397 10.4619 19.5205 10.3326 19.6772C10.1006 19.9583 9.78158 20.3441 9.81785 20.585C9.82629 20.6421 9.85529 20.6883 9.90605 20.7263L10.7978 20.781V21.7234L9.60517 21.7982L9.58827 21.759C9.24752 20.9602 8.48508 20.4462 7.59698 20.4177L7.52688 20.4154L7.53898 20.3477C7.60059 20.0189 7.50514 19.8243 7.39639 19.7507C7.33115 19.7068 7.25623 19.7043 7.1922 19.7435C7.08707 19.8076 6.99402 19.9999 7.04236 20.3477L7.05204 20.4129L6.98558 20.4154C6.06848 20.4521 5.24562 21.0231 4.98583 21.804L4.96166 21.8765L4.89641 21.8349C4.63905 21.6734 4.33576 21.6213 4.06147 21.6924C3.80773 21.759 3.59749 21.9251 3.47062 22.1626C3.34253 22.401 3.32924 22.5922 3.31474 22.795C3.30507 22.9327 3.2954 23.0764 3.24708 23.2342C3.18423 23.4373 3.01025 23.6555 2.8423 23.8657C2.64414 24.1126 2.43992 24.3678 2.5088 24.5089C2.54747 24.5897 2.70696 24.687 3.24465 24.6953H3.30386L3.31232 26.5897L3.3099 26.598C3.29421 26.6515 3.23258 26.674 3.12987 26.7107C3.00057 26.7582 2.82295 26.8236 2.78913 26.9411C2.7698 27.0074 2.79759 27.0905 2.87251 27.1903L3.30507 27.1878V30.745L3.2495 30.7498C3.16008 30.7569 3.03682 30.751 2.89426 30.745C2.5233 30.7296 2.01461 30.7083 1.81523 30.8958C1.76086 30.9467 1.73307 31.0098 1.73065 31.0892L1.89015 31.3432H31.1844L31.3438 31.0892C31.3401 31.0098 31.3124 30.9467 31.258 30.8958L31.2555 30.8946ZM28.2021 22.6574C28.3581 22.2539 28.6517 22.1601 28.8571 22.2016C29.0818 22.248 29.3005 22.4676 29.2824 22.8581L29.2801 22.9185L29.2184 22.9139C29.1338 22.9079 29.0432 22.9139 28.9478 22.9196C28.8813 22.9233 28.8136 22.9281 28.7448 22.9281C28.5478 22.9281 28.3507 22.8925 28.2119 22.7145L28.1913 22.6883L28.2035 22.6574H28.2021ZM27.7116 22.8556V22.9139L26.8659 22.915C26.7584 22.902 26.7014 22.8354 26.7099 22.7381C26.728 22.5304 27.0724 22.1589 27.3612 22.1732C27.5243 22.1803 27.7177 22.3049 27.7116 22.8545V22.8556ZM24.3332 21.4705C24.4141 21.2734 24.9772 20.9684 25.1887 20.9258C25.9184 20.7785 27.1074 20.9056 27.3454 21.6497L27.3829 21.7672L27.2658 21.7222C27.1208 21.6663 26.9262 21.7567 26.7703 21.8301C26.6605 21.8813 26.5734 21.9216 26.5034 21.918C26.3861 21.9132 26.264 21.8634 26.1348 21.8099C25.8375 21.689 25.5015 21.5501 25.0956 21.9026L25.0412 21.9501L25.0039 21.8895C24.9664 21.829 24.8202 21.7993 24.692 21.7743C24.5362 21.7436 24.3876 21.7138 24.3357 21.619C24.3114 21.5749 24.3114 21.5251 24.3332 21.4705ZM26.2605 22.8652L26.2507 22.9139H25.2866L25.3506 22.3381L25.376 22.3228C25.6417 22.1601 25.9065 22.1328 26.084 22.2514C26.2507 22.3631 26.3136 22.5814 26.2605 22.8652ZM23.9019 22.3381L23.9272 22.3228C24.193 22.1601 24.4576 22.1328 24.6353 22.2514C24.802 22.3631 24.8649 22.5814 24.8118 22.8652L24.802 22.9139H23.8378L23.9019 22.3381ZM21.0623 18.2884C21.2097 18.1935 21.3934 18.1911 21.542 18.2801C21.7353 18.3964 21.826 18.6386 21.7922 18.9436L21.7861 18.997H20.8327L20.8255 18.946C20.7844 18.6516 20.8713 18.4119 21.0636 18.2884H21.0623ZM19.1363 18.7477C19.2993 18.3739 19.6003 18.165 19.871 18.2326C20.0668 18.2813 20.26 18.4937 20.2202 18.9436L20.2117 19.0326L20.1319 18.9911C20.1018 18.9792 19.9616 18.9911 19.86 18.9994C19.5858 19.0219 19.2753 19.0469 19.1665 18.9187C19.1399 18.8878 19.1133 18.832 19.1375 18.7489L19.1363 18.7477ZM18.2542 18.2125C18.4331 18.2196 18.6469 18.3501 18.6493 18.9377V18.997L17.6827 18.9982C17.5788 18.9863 17.5232 18.9199 17.5305 18.8261C17.5486 18.6041 17.9425 18.203 18.253 18.2113L18.2542 18.2125ZM16.2811 18.2647C16.449 18.1662 16.6544 18.1697 16.8188 18.2742C17.0181 18.4012 17.1136 18.6457 17.0785 18.9448L17.0725 18.997H15.9959L15.9911 18.9424C15.9669 18.6338 16.0732 18.3857 16.2811 18.2647ZM14.6366 18.3181C14.825 18.1887 15.115 18.1412 15.3338 18.3288C15.434 18.4142 15.515 18.7347 15.5186 18.8688C15.5198 18.9246 15.5102 18.959 15.4872 18.9804L15.4691 18.997H14.436L14.4215 18.959C14.3296 18.7216 14.413 18.47 14.6353 18.3181H14.6366ZM13.0646 18.3027C13.2096 18.2042 13.4053 18.1982 13.5769 18.2861C13.8016 18.4012 13.9357 18.6445 13.9357 18.9377V18.997H12.9087H12.8555L12.8495 18.9448C12.7999 18.5472 12.963 18.3715 13.0658 18.3015L13.0646 18.3027ZM11.3463 18.4332C11.4648 18.2338 11.6992 18.1745 11.9553 18.2789C12.1777 18.3679 12.3794 18.5721 12.3311 18.7596C12.2997 18.8842 12.1547 19.0184 11.6822 19.0184C11.5808 19.0184 11.4648 19.0124 11.3318 18.9982L11.2787 18.9922V18.9389C11.2787 18.9104 11.2763 18.8819 11.2751 18.8534C11.269 18.7145 11.2642 18.5709 11.3451 18.4332H11.3463ZM10.4981 20.3039L10.5646 20.21C10.6069 20.1495 10.6467 20.0829 10.689 20.0129C10.8449 19.7518 11.0225 19.4551 11.3947 19.467C12.9655 19.5857 14.6656 19.518 16.3101 19.4516C18.0754 19.3803 19.9012 19.3068 21.5613 19.4659C22.1329 19.5205 22.2754 19.7162 22.5098 20.2195L22.5485 20.3039H10.4969H10.4981ZM21.7909 23.3886V24.2205H20.0981V23.3886H21.7909ZM20.0993 22.915V20.9161L20.4871 20.7667L20.863 21.3792C21.078 21.4219 21.1094 21.315 21.1565 21.1559C21.1832 21.0634 21.2121 20.9684 21.2859 20.9067C21.4019 20.8106 21.5722 20.8071 21.6738 20.8533C21.7486 20.8877 21.7909 20.9471 21.7909 21.0171V22.9162H20.0993V22.915ZM20.0993 27.1878H21.7909V28.9682H20.0993V27.1878ZM20.0993 26.713V24.6953H21.9358L21.9093 24.7737C21.7172 25.3316 21.7172 26.0792 21.9093 26.6347L21.9358 26.713H20.0993ZM11.2787 24.6953H13.0911V26.713H11.2787V24.6953ZM11.2775 24.2253V23.379L11.3476 23.3898C11.5034 23.4146 11.7185 23.4004 11.9469 23.385C12.3819 23.3554 12.8301 23.3256 13.0114 23.5559C13.1056 23.6757 13.1141 23.8432 13.0368 24.0711L13.0235 24.109L11.2787 24.2265L11.2775 24.2253ZM11.2787 22.915V20.7773L11.8393 20.7858L11.8562 20.8023C11.8877 20.8331 11.8889 20.8831 11.8901 20.9733C11.8925 21.0896 11.8949 21.2652 11.9783 21.3388C12.0121 21.3684 12.0568 21.3792 12.1172 21.3732C12.191 21.3792 12.2369 21.3673 12.2707 21.3376C12.3529 21.2652 12.3541 21.0896 12.3553 20.9744C12.3553 20.8831 12.3553 20.8331 12.3867 20.8023L12.4048 20.7844L13.0899 20.7798V22.9162H11.2775L11.2787 22.915ZM9.22456 22.8639L9.21731 22.915H8.26637L8.26033 22.8627C8.22529 22.5756 8.31592 22.3441 8.50683 22.2278C8.65907 22.1353 8.85482 22.1376 9.00345 22.2337C9.1871 22.3524 9.26806 22.5827 9.22578 22.8639H9.22456ZM5.7241 21.6509C5.97906 20.8273 7.31181 20.8083 7.87972 20.9258C8.05854 20.9625 8.20958 21.0611 8.35578 21.1571C8.50562 21.2546 8.64578 21.3471 8.81133 21.3744L8.90799 21.3909L8.84878 21.4682C8.42709 22.0201 8.06096 21.8859 7.70693 21.7567C7.56434 21.7044 7.41572 21.6497 7.2671 21.6463C7.07015 21.6403 6.91791 21.7399 6.79225 21.8184C6.70404 21.8741 6.63516 21.9168 6.56629 21.9203C6.56267 21.9203 6.55903 21.9203 6.55542 21.9203C6.46237 21.9203 6.36934 21.8634 6.27146 21.8028C6.08901 21.6901 5.9585 21.6247 5.81473 21.7163L5.67578 21.8053L5.7241 21.6486V21.6509ZM7.77339 22.8652L7.76371 22.9139H6.7995L6.86353 22.3381L6.88891 22.3228C7.15474 22.1601 7.41935 22.1328 7.59698 22.2514C7.76371 22.3631 7.82655 22.5814 7.77339 22.8652ZM5.4776 22.2787L5.49815 22.2658C5.61897 22.1851 6.02738 22.1495 6.15787 22.2289C6.2485 22.2835 6.31859 22.6599 6.32946 22.7512C6.33913 22.8343 6.33188 22.8735 6.3065 22.8983L6.28959 22.915H5.3459L5.48002 22.2801L5.4776 22.2787ZM3.79444 22.655C3.93581 22.3274 4.16539 22.1541 4.40343 22.1922C4.65476 22.2326 4.84445 22.496 4.87224 22.8496L4.87828 22.9185L4.80821 22.9139C4.72362 22.9079 4.63301 22.9139 4.53754 22.9196C4.47108 22.9245 4.40343 22.9281 4.33455 22.9281C4.1376 22.9281 3.94064 22.8925 3.80169 22.7145L3.77994 22.6872L3.79323 22.655H3.79444ZM3.25915 24.2205L3.75215 23.3898H10.6745V24.2205H3.25915ZM5.1272 27.5499C5.1272 27.5499 5.11995 27.557 5.11632 27.5593V30.7473H3.78719V27.4074L3.79686 27.3931C3.92856 27.1878 4.36837 27.1641 4.5001 27.1618C4.75383 27.157 5.0837 27.1985 5.17552 27.3303C5.2589 27.4276 5.16345 27.5166 5.1272 27.5499ZM8.86207 30.7487H5.59965V27.5439C5.59965 26.9695 6.74512 25.7694 7.28885 25.5475L7.30698 25.5427C7.36619 25.5381 7.47372 25.5583 7.73835 25.7967C8.17212 26.1873 8.86207 27.0359 8.86207 27.3055V30.7473V30.7487ZM8.63249 26.1054C8.37753 25.8075 8.08875 25.4693 7.91837 25.3339C7.50031 24.9993 7.08184 24.9993 6.66295 25.3339C6.49258 25.4704 6.20379 25.8075 5.94885 26.1054C5.68785 26.4105 5.52473 26.5992 5.4486 26.6442C5.33019 26.7144 5.14653 26.7345 4.9387 26.7345C4.79371 26.7345 4.63783 26.7249 4.48317 26.7155C4.2391 26.7001 4.00952 26.6859 3.85726 26.7119L3.78598 26.7238V24.6953H10.7942V26.7249L10.7241 26.713C10.5718 26.6871 10.341 26.7013 10.0957 26.7167C9.71997 26.7403 9.33088 26.7642 9.13151 26.6455C9.0554 26.6003 8.89228 26.4105 8.63128 26.1065L8.63249 26.1054ZM9.34538 30.7487V27.182L10.7422 27.303L10.7978 30.7462H9.34659L9.34538 30.7487ZM10.7796 22.7145C10.6407 22.8925 10.4437 22.9281 10.2468 22.9281C10.1779 22.9281 10.1102 22.9233 10.0438 22.9196C9.94834 22.9139 9.85771 22.9079 9.77314 22.9139L9.71151 22.9185L9.70908 22.8581C9.69097 22.4687 9.90967 22.248 10.1344 22.2016C10.3386 22.1601 10.6334 22.2539 10.7893 22.6574L10.8014 22.6883L10.7808 22.7145H10.7796ZM11.2787 30.7487V29.4407L12.9727 29.4965L13.0972 30.7487H11.2787ZM13.0899 28.8982L13.102 28.9671H11.2787V27.1843L12.9377 27.2389L12.9522 27.2484C13.1238 27.3658 13.1189 27.7766 13.0923 28.3452C13.0815 28.5717 13.0718 28.7854 13.0911 28.8982H13.0899ZM14.1786 30.7487H13.5745V27.1878H14.1786V30.7487ZM18.4077 30.7487H14.6619V25.7637C14.6619 25.4087 15.5295 24.0521 16.1348 23.4609C16.333 23.2675 16.4828 23.1737 16.5952 23.1737H16.6194L16.6363 23.1892C17.3311 23.8003 17.8108 24.3713 18.0609 24.8853C18.0899 24.9447 18.4077 25.6912 18.4077 25.7637V30.7487ZM19.4951 30.7487H18.891V27.1878H19.4951V30.7487ZM19.4951 26.713H18.885L18.891 26.649C19.0046 25.4918 18.4548 23.8219 16.5723 22.5899C15.2443 23.3483 14.0022 24.9766 14.1762 26.6478L14.1834 26.713H13.5696L13.5745 26.649C13.5938 26.3986 13.5817 26.1267 13.5696 25.8633C13.5551 25.55 13.5406 25.2258 13.5793 24.9291C13.5926 24.8247 13.6578 24.7345 13.7146 24.6551C13.7654 24.5837 13.8149 24.5161 13.8149 24.4557C13.8149 24.4045 13.775 24.3417 13.7291 24.2693C13.647 24.1399 13.5443 23.9796 13.56 23.74C13.5708 23.5761 13.6554 23.4467 13.7231 23.3423C13.7726 23.2663 13.8149 23.201 13.8149 23.1489C13.8149 23.1025 13.7738 23.0337 13.7291 22.96C13.6663 22.8556 13.589 22.725 13.5672 22.5697C13.5298 22.2943 13.5491 21.9786 13.5672 21.6722C13.5841 21.3898 13.6023 21.0979 13.5745 20.8402L13.5672 20.7738L14.1339 20.7833L14.1508 20.8C14.1822 20.8308 14.1834 20.8806 14.1846 20.9721C14.1871 21.0882 14.1895 21.264 14.2729 21.3376C14.3067 21.3673 14.3526 21.378 14.4118 21.3721C14.4855 21.378 14.5314 21.3661 14.5653 21.3351C14.6474 21.2628 14.6486 21.0871 14.6498 20.9721C14.6498 20.8806 14.6498 20.8308 14.6813 20.8L14.6994 20.7821L15.6274 20.7762L15.6249 21.3292C15.7482 21.3994 15.8461 21.4196 15.9174 21.3898C16.0454 21.3365 16.0901 21.1204 16.1203 20.9779C16.1457 20.8558 16.1614 20.7821 16.2279 20.7713L16.9577 20.7833L16.9505 20.8486C16.9227 21.0871 16.971 21.2748 17.0822 21.3482C17.1861 21.4182 17.3287 21.3792 17.4398 21.3269L17.4374 20.7762L18.3654 20.7821L18.3835 20.8C18.4137 20.8308 18.4137 20.8817 18.4149 20.9721C18.4149 21.0871 18.4173 21.2617 18.4995 21.3351C18.5333 21.365 18.5793 21.3767 18.6421 21.3709C18.8427 21.315 18.8608 21.1929 18.8825 21.0492C18.897 20.9519 18.9115 20.851 19.001 20.7904C19.0892 20.7312 19.2269 20.7275 19.4468 20.7773L19.4939 20.7881V26.7107L19.4951 26.713ZM20.0956 30.7487L20.1718 29.4407H21.7897L21.7909 29.4999C21.7934 29.6043 21.7909 29.7112 21.7861 29.8134C21.7753 30.1149 21.7655 30.3997 21.9045 30.6608L21.9505 30.7473H20.0956V30.7487ZM22.5147 22.2787L22.5352 22.2658C22.656 22.1851 23.0644 22.1495 23.195 22.2289C23.2856 22.2835 23.3557 22.6599 23.3665 22.7512C23.3763 22.8343 23.369 22.8735 23.3436 22.8983L23.3267 22.915H22.3829L22.5172 22.2801L22.5147 22.2787ZM23.7242 30.7487H22.395V27.1878H23.7242V30.7487ZM27.47 30.7487H24.2076V27.3066C24.2076 27.0288 24.8962 26.1742 25.3796 25.7825C25.6056 25.5998 25.7723 25.5227 25.893 25.5452L25.9077 25.5475L25.9198 25.5571C26.3221 25.8787 27.47 26.9351 27.47 27.5428V30.7473V30.7487ZM29.2824 30.7487H27.9533V27.1807L28.021 27.1878C28.1394 27.2009 28.2698 27.1926 28.4077 27.1832C28.7242 27.1618 29.0505 27.1405 29.268 27.386L29.2824 27.4028V30.7487ZM29.2824 26.7144L27.6416 26.687L27.6246 26.6586C27.1739 25.8988 26.5322 25.3031 25.7675 24.9362C25.3591 24.9862 24.8552 25.6092 24.4855 26.0663C24.2511 26.3571 24.0649 26.5861 23.9332 26.6501C23.798 26.7155 23.6215 26.7345 23.4305 26.7345C23.3025 26.7345 23.1671 26.7261 23.0342 26.7178C22.8216 26.7047 22.621 26.6917 22.4652 26.7144L22.3962 26.7238V24.6966H29.2836V26.7155L29.2824 26.7144ZM22.395 24.2205V23.3898H29.2824C29.3476 23.3898 29.483 23.5736 29.5845 23.7292C29.8116 24.0722 29.7743 24.1553 29.7597 24.1861L29.7439 24.2219H22.395V24.2205Z" fill="#252B37"/>
</g>
</g>
<defs>
<clipPath id="clip0_2675_18956">
<rect width="33.0744" height="33.0744" fill="white"/>
</clipPath>
</defs>
</svg>
