<svg width="34" height="34" viewBox="0 0 34 34" fill="none" xmlns="http://www.w3.org/2000/svg">
<g clip-path="url(#clip0_2675_18967)">
<mask id="mask0_2675_18967" style="mask-type:luminance" maskUnits="userSpaceOnUse" x="0" y="0" width="34" height="34">
<path d="M33.0746 0H0.000183105V33.0744H33.0746V0Z" fill="white"/>
</mask>
<g mask="url(#mask0_2675_18967)">
<path d="M1.68854 29.0576H30.9475V29.3349H1.68854V29.0576Z" fill="#252B37" stroke="#252B37" stroke-width="0.14422" stroke-miterlimit="10"/>
<path d="M6.24856 29.2633H2.79095V23.9302H3.06824V28.9862H5.97454V20.1301H3.06824V22.8247H2.79095V19.8561H6.24856V29.2633ZM10.6098 18.0557H10.887V19.5038H10.6098V18.0557Z" fill="#252B37" stroke="#252B37" stroke-width="0.14422" stroke-miterlimit="10"/>
<path d="M9.84541 29.2631H5.97455V18.0557H6.24859V28.9862H9.84637L9.84541 29.2631ZM10.6088 22.5471H10.8861V28.0139H10.6088V22.5471ZM21.748 22.5471H22.0253V28.0139H21.7484L21.748 22.5471ZM26.7284 29.3317H21.748V29.1946L21.8851 29.1914V29.0577H26.4517V18.0557H26.729L26.7284 29.3317ZM21.7484 18.0557H22.0257V19.5038H21.7484V18.0557Z" fill="#252B37" stroke="#252B37" stroke-width="0.14422" stroke-miterlimit="10"/>
<path d="M27.3169 18.1925H21.1618V16.917H27.3169V18.1925ZM21.4456 17.9185H27.0429V17.1845H21.4358L21.4456 17.9185ZM29.8438 29.3318H26.4516V19.856H29.8438V22.8246H29.5667V20.13H26.7289V29.0578H29.5667V23.9301H29.8438V29.3318ZM11.5056 18.1925H5.35146V16.917H11.5066L11.5056 18.1925ZM5.63433 17.9185H11.2318V17.1845H5.62779L5.63433 17.9185ZM6.2214 24.067H2.27783V22.6841H6.2214V24.067ZM2.55514 23.793H5.9443V22.9613H2.55514V23.793Z" fill="#252B37" stroke="#252B37" stroke-width="0.14422" stroke-miterlimit="10"/>
<path d="M30.4386 24.0668H26.4949V22.6839H30.4386V24.0668ZM26.7722 23.7928H30.1613V22.9611H26.7722V23.7928ZM5.24958 29.2793H3.86987V25.1989C3.88433 25.0258 3.96327 24.8646 4.09103 24.747C4.21881 24.6295 4.3861 24.5643 4.55972 24.5643C4.73335 24.5643 4.90062 24.6295 5.0284 24.747C5.15618 24.8646 5.23513 25.0258 5.24958 25.1989V29.2793ZM4.14716 29.002H4.97248V25.1989C4.96356 25.0956 4.91622 24.9994 4.83982 24.9293C4.7634 24.8593 4.6635 24.8202 4.55982 24.8202C4.45614 24.8202 4.35624 24.8593 4.27984 24.9293C4.20342 24.9994 4.15608 25.0956 4.14716 25.1989V29.002ZM28.8785 29.2793H27.4988V25.1989C27.5133 25.0258 27.5923 24.8646 27.72 24.747C27.8479 24.6295 28.0152 24.5643 28.1888 24.5643C28.3622 24.5643 28.5295 24.6295 28.6574 24.747C28.7851 24.8646 28.8641 25.0258 28.8785 25.1989V29.2793ZM27.7825 29.002H28.6076V25.1989C28.5984 25.0958 28.5511 24.9998 28.4745 24.93C28.3982 24.8602 28.2986 24.8214 28.1949 24.8214C28.0915 24.8214 27.9919 24.8602 27.9155 24.93C27.839 24.9998 27.7917 25.0958 27.7825 25.1989V29.002ZM22.9255 22.6839H9.70847V21.2324H22.9255V22.6839ZM9.98577 22.4066H22.6483V21.5095H9.98577V22.4066ZM22.9255 29.3291H9.70847V27.8742H22.9255V29.3291ZM9.98577 29.0518H22.6483V28.1509H9.98577V29.0518Z" fill="#252B37" stroke="#252B37" stroke-width="0.14422" stroke-miterlimit="10"/>
<path d="M23.6508 21.51H8.97229L10.5608 19.3639H22.0622L23.6508 21.51ZM9.53338 21.2329H23.0994L21.912 19.6411H10.7141L9.53338 21.2329ZM12.0972 15.2832H20.5389V15.5605H12.0972V15.2832Z" fill="#252B37" stroke="#252B37" stroke-width="0.14422" stroke-miterlimit="10"/>
<path d="M20.6758 19.6406H11.9568V16.8191H12.2341V19.3631H20.3987V16.6299H20.6758V19.6406Z" fill="#252B37" stroke="#252B37" stroke-width="0.14422" stroke-miterlimit="10"/>
<path d="M20.6073 17.0106H12.0222L11.611 15.2852H21.0247L20.6073 17.0106ZM12.2341 16.7335H20.3888L20.6694 15.5559H11.9606L12.2341 16.7335ZM2.79095 19.2254H3.06824V20.0704H2.79095V19.2254ZM4.86559 19.2254H5.14287V20.0704H4.86503L4.86559 19.2254ZM27.4898 19.2254H27.7671V20.0704H27.4898V19.2254ZM29.5677 19.2254H29.8448V20.0704H29.5677V19.2254ZM17.4858 19.6464H15.1335V17.9859H15.6163C15.6148 17.962 15.6148 17.9381 15.6163 17.9142C15.6201 17.7315 15.6949 17.5576 15.825 17.4293C15.955 17.301 16.13 17.2285 16.3126 17.2272C16.4953 17.2259 16.6713 17.2959 16.8031 17.4223C16.935 17.5488 17.0123 17.7216 17.0187 17.9042V17.9142C17.0203 17.937 17.0203 17.9598 17.0187 17.9826H17.5112L17.4858 19.6464ZM15.4112 19.356H17.2118V18.247H16.618L16.6997 18.058C16.7261 17.9951 16.7367 17.9266 16.7304 17.8587C16.7241 17.7907 16.7012 17.7253 16.6637 17.6683C16.6262 17.6113 16.5752 17.5644 16.5152 17.5318C16.4553 17.4991 16.3882 17.4818 16.32 17.4812C16.2517 17.4806 16.1844 17.4968 16.1239 17.5284C16.0634 17.5601 16.0116 17.6061 15.9731 17.6624C15.9346 17.7188 15.9106 17.7838 15.9032 17.8516C15.8958 17.9195 15.9051 17.9881 15.9305 18.0515L16.0088 18.2438H15.4184L15.4112 19.356ZM9.57236 26.3747H7.14947V23.0648H9.57236V26.3747ZM7.42616 26.0974H9.29525V23.3428H7.42616V26.0974ZM25.4511 26.3747H23.0282V23.0648H25.4511V26.3747ZM23.3049 26.0974H25.1738V23.3428H23.3049V26.0974Z" fill="#252B37" stroke="#252B37" stroke-width="0.14422" stroke-miterlimit="10"/>
<path d="M18.9408 14.4158H13.6958C13.32 14.4158 12.9594 14.2674 12.6924 14.0029C12.4255 13.7384 12.2738 13.3791 12.2703 13.0034C12.2703 11.9138 13.151 11.1637 14.0056 10.4395C14.2763 10.2088 14.5307 9.98937 14.7592 9.76112L14.8015 9.72266H17.8351L17.8736 9.76112C18.1247 10.0122 18.4052 10.2536 18.676 10.4851C19.5079 11.1897 20.3657 11.9236 20.3657 13.0041C20.362 13.3797 20.2103 13.7386 19.9436 14.0029C19.6767 14.2673 19.3163 14.4156 18.9408 14.4158ZM14.9157 9.98937C14.6873 10.2113 14.4328 10.4297 14.185 10.6418C13.3793 11.3268 12.5541 12.0346 12.5541 12.9936C12.555 13.2978 12.6762 13.5894 12.8913 13.8046C13.1065 14.0197 13.3981 14.1409 13.7024 14.1417H18.9408C19.2433 14.1409 19.5334 14.021 19.7482 13.808C19.9632 13.595 20.0855 13.3059 20.089 13.0034C20.089 12.0509 19.3159 11.392 18.4972 10.6939C18.2362 10.4722 17.9655 10.2405 17.7209 9.99917L14.9157 9.98937Z" fill="#252B37" stroke="#252B37" stroke-width="0.14422" stroke-miterlimit="10"/>
<path d="M19.3972 15.5554H13.2388V14.1038H19.3972V15.5554ZM13.5259 15.2814H19.1199V14.3824H13.5161L13.5259 15.2814ZM17.9423 9.95158H14.4099V8.8457H17.9423V9.95158ZM14.6804 9.67429H17.6717V9.12299H14.6912L14.6804 9.67429Z" fill="#252B37" stroke="#252B37" stroke-width="0.14422" stroke-miterlimit="10"/>
<path d="M16.8138 9.12424H15.4667C15.3981 9.10349 15.3355 9.06655 15.2841 9.01656C15.2653 8.99904 15.252 8.97654 15.2456 8.95171C15.2393 8.92687 15.2401 8.90074 15.2481 8.87637C15.2294 8.85028 15.2172 8.82005 15.2126 8.78825C15.208 8.75644 15.2113 8.724 15.222 8.6937C15.2304 8.67658 15.2403 8.66018 15.2514 8.64466V8.62543C15.2444 8.60405 15.2389 8.5822 15.235 8.56005C15.2266 8.49544 15.2337 8.42973 15.2559 8.36843C15.278 8.30715 15.3145 8.25206 15.3623 8.20777L15.4112 8.15893C15.4477 8.1261 15.4785 8.08751 15.5025 8.04471C15.5304 7.93498 15.5177 7.8189 15.4667 7.71781L15.3883 7.47321C15.3539 7.38624 15.3427 7.2918 15.3558 7.19919C15.2672 7.12206 15.1895 7.03317 15.125 6.93498C15.1051 6.91054 15.0942 6.87999 15.0942 6.84845C15.0942 6.81691 15.1051 6.78636 15.125 6.76192L15.272 6.6052C15.341 6.52336 15.4281 6.45865 15.5264 6.41618C15.5855 6.38904 15.651 6.37885 15.7156 6.38675C15.7243 6.32691 15.7544 6.27224 15.8004 6.23292C15.8211 6.21734 15.845 6.20661 15.8704 6.20154C15.8958 6.19644 15.922 6.19712 15.9471 6.2035L16.0025 6.18062C16.0964 6.15464 16.1956 6.15464 16.2896 6.18062H16.3678C16.3763 6.21859 16.3935 6.25407 16.418 6.2843C16.4425 6.31451 16.4737 6.33862 16.5091 6.35474C16.5445 6.37087 16.5832 6.37856 16.6221 6.3772C16.6609 6.37585 16.699 6.36549 16.7332 6.34695C16.7882 6.34699 16.8414 6.3667 16.8832 6.40252C17.0295 6.49405 17.1506 6.62078 17.2354 6.77115C17.2717 6.82849 17.2847 6.89745 17.272 6.96406C17.2593 7.03067 17.2218 7.08997 17.167 7.12997L17.1247 7.15266C17.0969 7.19612 17.0538 7.22754 17.0039 7.24073C17.0153 7.31755 17.0153 7.39562 17.0039 7.47244C16.9871 7.54522 16.9665 7.61705 16.942 7.68762C16.8911 7.78855 16.8751 7.90349 16.8962 8.01452C16.9221 8.06478 16.9563 8.1103 16.9974 8.14912L17.0562 8.21431C17.1295 8.29288 17.1784 8.39106 17.1969 8.49688C17.2154 8.60272 17.2027 8.71164 17.1605 8.81042C17.1259 8.86943 17.0818 8.92237 17.0301 8.96714C17.0027 8.98979 16.9785 9.01611 16.9584 9.0454C16.9576 9.05301 16.9576 9.06067 16.9584 9.06828C16.9421 9.09045 16.9199 9.10749 16.8942 9.11741C16.8686 9.12734 16.8407 9.1297 16.8138 9.12424ZM15.5579 8.84695H16.742C16.7682 8.81426 16.7974 8.78926 16.8203 8.76215C16.8516 8.73783 16.8781 8.70798 16.8986 8.67408C16.9138 8.62397 16.9148 8.57063 16.9016 8.51996C16.8883 8.46929 16.8613 8.42325 16.8236 8.38699L16.7747 8.33161C16.7104 8.26759 16.6583 8.19241 16.6209 8.1097C16.5726 7.94095 16.5862 7.76046 16.6594 7.60089C16.6819 7.54384 16.6993 7.48488 16.7114 7.42475C16.7311 7.31303 16.7128 7.19794 16.6594 7.09786C16.6459 7.07163 16.6409 7.04188 16.645 7.01271C16.6491 6.98352 16.6621 6.95631 16.6822 6.93479C16.7029 6.91443 16.7293 6.90099 16.758 6.89631C16.7866 6.89162 16.8159 6.89593 16.842 6.90864L16.9268 6.95114C16.9418 6.93681 16.9595 6.92568 16.9789 6.91845C16.9185 6.8193 16.8359 6.73556 16.7376 6.67385C16.7208 6.68892 16.7022 6.70185 16.6822 6.71231C16.6253 6.74154 16.5593 6.74732 16.4982 6.7284C16.437 6.7095 16.3858 6.66741 16.3553 6.61116C16.3373 6.56903 16.3295 6.52323 16.3327 6.47752C16.2959 6.47444 16.2598 6.46675 16.2249 6.45463H16.1988C16.154 6.44194 16.1066 6.44194 16.0619 6.45463C16.0348 6.46829 16.0064 6.47925 15.9771 6.48732L15.9477 6.62751C15.9423 6.65514 15.9284 6.68041 15.9079 6.69971C15.8874 6.71904 15.8614 6.73144 15.8334 6.73519C15.8057 6.73992 15.7773 6.73625 15.7517 6.72461C15.7261 6.713 15.7046 6.69398 15.69 6.67C15.6813 6.6661 15.6718 6.6641 15.6623 6.6641C15.6528 6.6641 15.6433 6.6661 15.6346 6.67C15.5779 6.69973 15.5279 6.74077 15.4877 6.79057L15.4193 6.86576L15.4617 6.91787C15.4942 6.90498 15.5303 6.90498 15.5627 6.91787C15.6077 6.93671 15.6444 6.97117 15.666 7.01492C15.6875 7.05867 15.6926 7.10874 15.6802 7.15593C15.6715 7.185 15.6606 7.21335 15.6475 7.24073V7.25996C15.6459 7.30622 15.6549 7.35226 15.6737 7.39456L15.7552 7.64243C15.8322 7.80522 15.8416 7.9919 15.7813 8.16162C15.7448 8.23425 15.695 8.29948 15.6346 8.35391L15.5962 8.39622C15.5622 8.42677 15.5403 8.46844 15.5343 8.51371V8.54621C15.561 8.61099 15.561 8.68372 15.5343 8.7485C15.5447 8.76232 15.5521 8.77817 15.556 8.79501C15.5599 8.81188 15.5603 8.82936 15.5571 8.84638L15.5579 8.84695ZM6.90758 18.6847H7.18489V19.4481H6.90758V18.6847ZM8.29057 18.6847H8.56786V19.4481H8.29057V18.6847ZM9.67354 18.6847H9.95083V19.4481H9.67354V18.6847ZM22.7177 18.6847H22.995V19.4481H22.7177V18.6847ZM24.1009 18.6847H24.378V19.4481H24.1009V18.6847ZM25.4839 18.6847H25.7611V19.4481H25.4839V18.6847ZM12.7202 28.1509H11.6111L11.6828 22.4067H12.6614L12.7202 28.1509ZM11.8916 27.8736H12.4528L12.3874 22.684H11.9568L11.8916 27.8736ZM15.4894 28.1509H14.3772L14.4522 22.4067H15.4137L15.4894 28.1509ZM14.6578 27.8736H15.2089L15.1437 22.684H14.736L14.6578 27.8736ZM18.2556 28.1509H17.1464L17.2183 22.4067H18.1969L18.2556 28.1509ZM17.427 27.8736H17.975L17.9098 22.684H17.4924L17.427 27.8736ZM21.0248 28.1509H19.9126L19.9875 22.4067H20.949L21.0248 28.1509ZM20.1931 27.8736H20.7444L20.679 22.684H20.2583L20.1931 27.8736ZM10.9294 17.1709C10.9122 17.174 10.8945 17.174 10.8773 17.1709C10.8432 17.1565 10.8162 17.1293 10.8021 17.0951C10.788 17.0608 10.788 17.0225 10.8021 16.9883C10.9041 16.7365 10.9563 16.4673 10.9559 16.1956C10.9551 15.9704 10.9009 15.7486 10.7977 15.5484C10.6944 15.3482 10.5452 15.1754 10.3621 15.0442C9.94333 14.7443 9.55744 14.4009 9.21088 14.0198C8.91547 13.6979 8.65014 13.3496 8.41823 12.9793C7.91356 13.7904 7.25542 14.4951 6.48071 15.054C6.30612 15.1845 6.16335 15.3529 6.06305 15.5464C5.95784 15.7478 5.90302 15.9717 5.90323 16.1989C5.90223 16.4709 5.95544 16.7403 6.05976 16.9915C6.07282 17.0262 6.07197 17.0646 6.05739 17.0986C6.0428 17.1327 6.01561 17.1597 5.9815 17.1742C5.96482 17.1809 5.94698 17.1843 5.92898 17.1842C5.911 17.184 5.89323 17.1803 5.8767 17.1733C5.86014 17.1662 5.8451 17.156 5.83251 17.1432C5.81991 17.1303 5.80997 17.1151 5.80324 17.0984L5.80209 17.0957C5.68573 16.8112 5.62691 16.5063 5.62902 16.1989C5.62791 15.9289 5.69169 15.6626 5.81497 15.4224C5.93556 15.191 6.10735 14.9903 6.31726 14.8353C7.12506 14.2529 7.80011 13.5058 8.29786 12.6432L8.41535 12.4344L8.53594 12.6432C8.78524 13.0711 9.07938 13.4713 9.41335 13.837C9.7489 14.2012 10.1218 14.5292 10.5258 14.8155C10.7441 14.9728 10.9221 15.1795 11.0451 15.4188C11.1681 15.6581 11.2327 15.9231 11.2336 16.1922C11.2348 16.4999 11.1749 16.8048 11.0575 17.0892C11.0468 17.1142 11.0289 17.1353 11.0061 17.1499C10.9832 17.1645 10.9565 17.1718 10.9294 17.1709Z" fill="#252B37" stroke="#252B37" stroke-width="0.14422" stroke-miterlimit="10"/>
<path d="M5.92902 16.8939H10.9286V17.1708H5.92902V16.8939ZM26.7397 17.1712C26.7224 17.1743 26.7047 17.1743 26.6874 17.1712C26.6534 17.1567 26.6265 17.1294 26.6124 17.0953C26.5984 17.061 26.5984 17.0227 26.6124 16.9885C26.7144 16.7367 26.7667 16.4675 26.7663 16.1959C26.7655 15.9707 26.7113 15.7488 26.608 15.5487C26.505 15.3485 26.3557 15.1757 26.1727 15.0444C25.7539 14.7445 25.3679 14.4011 25.0212 14.0201C24.7255 13.695 24.4601 13.3434 24.2286 12.9698C23.724 13.7809 23.0658 14.4856 22.291 15.0444C22.1164 15.1758 21.9728 15.3439 21.8703 15.5369C21.7661 15.7385 21.7124 15.9624 21.7138 16.1893C21.7134 16.461 21.7657 16.7302 21.8676 16.982C21.8817 17.0161 21.8817 17.0545 21.8676 17.0887C21.8536 17.1229 21.8267 17.1502 21.7926 17.1646C21.759 17.1782 21.7211 17.1778 21.6878 17.1636C21.6544 17.1494 21.6278 17.1225 21.6142 17.0889L21.6132 17.0864C21.4957 16.8019 21.4359 16.4971 21.4371 16.1893C21.4371 15.9191 21.5019 15.6529 21.6263 15.413C21.7467 15.1816 21.9186 14.9807 22.1286 14.8258C22.936 14.244 23.6098 13.4966 24.1053 12.6336L24.2259 12.4248L24.3467 12.6336C24.8453 13.493 25.5241 14.2343 26.3363 14.8065C26.554 14.9643 26.7317 15.1712 26.8545 15.4103C26.9776 15.6495 27.0426 15.9143 27.0441 16.1832C27.0453 16.4909 26.9855 16.7958 26.868 17.0802C26.8584 17.1066 26.8411 17.1295 26.8182 17.1457C26.7951 17.1619 26.7678 17.1706 26.7397 17.1708V17.1712Z" fill="#252B37" stroke="#252B37" stroke-width="0.14422" stroke-miterlimit="10"/>
<path d="M21.7392 16.8947H26.7397V17.1716H21.7392V16.8947ZM17.4703 14.3757C17.4531 14.3799 17.4351 14.3799 17.4179 14.3757C17.3843 14.362 17.3575 14.3355 17.3433 14.3021C17.3292 14.2686 17.3289 14.2309 17.3426 14.1972V14.1963C17.384 14.0922 17.4061 13.9814 17.4079 13.8694C17.4077 13.7771 17.3857 13.6862 17.3437 13.604C17.3017 13.5218 17.241 13.4507 17.1664 13.3963C16.9678 13.2558 16.7851 13.094 16.6217 12.9137C16.5045 12.7902 16.3953 12.6595 16.2948 12.5222C16.066 12.8623 15.7789 13.1594 15.4468 13.3996C15.3757 13.4544 15.3168 13.5233 15.2737 13.6019C15.2307 13.6845 15.2082 13.7763 15.2083 13.8694C15.21 13.9814 15.2322 14.0922 15.2737 14.1963C15.2805 14.213 15.2841 14.2309 15.284 14.2489C15.2839 14.267 15.2803 14.2848 15.2733 14.3015C15.2664 14.3182 15.2562 14.3333 15.2434 14.346C15.2306 14.3587 15.2154 14.3688 15.1987 14.3757C15.182 14.3825 15.1641 14.386 15.146 14.386C15.128 14.3859 15.1101 14.3823 15.0935 14.3753C15.0768 14.3684 15.0617 14.3582 15.049 14.3454C15.0362 14.3326 15.0261 14.3174 15.0193 14.3007C14.961 14.1612 14.931 14.0115 14.9312 13.8603C14.9321 13.7229 14.9657 13.5877 15.0291 13.4658C15.0886 13.3486 15.1746 13.247 15.2802 13.1689C15.6437 12.9092 15.9483 12.5757 16.174 12.1903L16.2913 11.9814L16.4121 12.1903C16.5254 12.3832 16.6587 12.5637 16.8099 12.7287C16.9608 12.8934 17.1284 13.0421 17.3099 13.1723C17.4184 13.2491 17.5075 13.3501 17.5704 13.4673C17.6332 13.5844 17.668 13.7146 17.672 13.8475C17.6716 13.9983 17.6427 14.1477 17.587 14.2878C17.5776 14.312 17.5616 14.3332 17.5408 14.3488C17.5201 14.3645 17.4954 14.3741 17.4695 14.3765L17.4703 14.3757Z" fill="#252B37" stroke="#252B37" stroke-width="0.14422" stroke-miterlimit="10"/>
<path d="M15.1633 14.0986H17.4694V14.3759H15.1633V14.0986Z" fill="#252B37" stroke="#252B37" stroke-width="0.14422" stroke-miterlimit="10"/>
</g>
</g>
<defs>
<clipPath id="clip0_2675_18967">
<rect width="33.0744" height="33.0744" fill="white"/>
</clipPath>
</defs>
</svg>
