<svg width="34" height="34" viewBox="0 0 34 34" fill="none" xmlns="http://www.w3.org/2000/svg">
<g clip-path="url(#clip0_2675_19021)">
<path d="M16.5371 3.36752C16.4932 3.36752 16.4511 3.38495 16.4201 3.41594C16.3891 3.44696 16.3717 3.48903 16.3717 3.53289V5.36157H15.7142L15.7102 4.86414C15.7098 4.82051 15.6923 4.77877 15.6613 4.74804C15.6303 4.71732 15.5885 4.70009 15.5448 4.70009H15.5435C15.5218 4.70025 15.5003 4.70472 15.4803 4.71318C15.4603 4.72165 15.4422 4.73399 15.427 4.74947C15.4117 4.76495 15.3997 4.78327 15.3915 4.80341C15.3834 4.82352 15.3793 4.84505 15.3795 4.86678L15.3847 5.52827V6.34422H15.2141C15.1702 6.34422 15.1282 6.36165 15.0971 6.39264C15.0661 6.42366 15.0487 6.46573 15.0487 6.50959C15.0487 6.55344 15.0661 6.59551 15.0971 6.62654C15.1282 6.65753 15.1702 6.67496 15.2141 6.67496H15.3193L14.6928 8.65942H14.3872V8.16331C14.3872 8.11945 14.3698 8.07738 14.3388 8.04636C14.3078 8.01537 14.2657 7.99794 14.2219 7.99794C14.178 7.99794 14.1359 8.01537 14.1049 8.04636C14.0739 8.07738 14.0565 8.11945 14.0565 8.16331V10.6439C14.0565 10.6505 14.0598 10.6555 14.0604 10.6617L13.4026 12.7438C13.4009 12.7494 13.4026 12.7554 13.4016 12.7613C13.3993 12.7722 13.395 12.7821 13.395 12.7937V22.2199H6.11862V21.8988H6.29292C6.33678 21.8988 6.37885 21.8813 6.40987 21.8504C6.44087 21.8193 6.4583 21.7773 6.4583 21.7334C6.4583 21.6896 6.44087 21.6475 6.40987 21.6165C6.37885 21.5855 6.33678 21.568 6.29292 21.568H6.07728L5.19485 18.9221H5.29705C5.34091 18.9221 5.38298 18.9047 5.414 18.8737C5.445 18.8426 5.46243 18.8006 5.46243 18.7567C5.46243 18.7129 5.445 18.6708 5.414 18.6398C5.38298 18.6088 5.34091 18.5913 5.29705 18.5913H4.80028V17.103C4.80028 17.0591 4.78285 17.0171 4.75185 16.986C4.72083 16.955 4.67876 16.9376 4.6349 16.9376C4.59105 16.9376 4.54898 16.955 4.51795 16.986C4.48696 17.0171 4.46953 17.0591 4.46953 17.103V17.5991H2.81581V17.103C2.81581 17.0591 2.79839 17.0171 2.76737 16.986C2.73636 16.955 2.6943 16.9376 2.65044 16.9376C2.60658 16.9376 2.56451 16.955 2.5335 16.986C2.50249 17.0171 2.48507 17.0591 2.48507 17.103V18.5913H1.99094C1.94708 18.5913 1.90501 18.6088 1.874 18.6398C1.84299 18.6708 1.82556 18.7129 1.82556 18.7567C1.82556 18.8006 1.84299 18.8426 1.874 18.8737C1.90501 18.9047 1.94708 18.9221 1.99094 18.9221H2.08751L1.20376 21.568H0.995395C0.951535 21.568 0.909471 21.5855 0.878461 21.6165C0.847447 21.6475 0.830023 21.6896 0.830023 21.7334C0.830023 21.7773 0.847447 21.8193 0.878461 21.8504C0.909471 21.8813 0.951535 21.8988 0.995395 21.8988H1.15746V31.4804H0.661344C0.617484 31.4804 0.57542 31.4979 0.544409 31.5289C0.513395 31.5599 0.495972 31.602 0.495972 31.6458C0.495972 31.6897 0.513395 31.7317 0.544409 31.7628C0.57542 31.7938 0.617484 31.8112 0.661344 31.8112H32.4128C32.4566 31.8112 32.4987 31.7938 32.5297 31.7628C32.5607 31.7317 32.5782 31.6897 32.5782 31.6458C32.5782 31.602 32.5607 31.5599 32.5297 31.5289C32.4987 31.4979 32.4566 31.4804 32.4128 31.4804H31.9167V21.8988H32.082C32.1259 21.8988 32.168 21.8813 32.199 21.8504C32.23 21.8193 32.2474 21.7773 32.2474 21.7334C32.2474 21.6896 32.23 21.6475 32.199 21.6165C32.168 21.5855 32.1259 21.568 32.082 21.568H31.8737L30.9909 18.9221H31.0931C31.137 18.9221 31.179 18.9047 31.2101 18.8737C31.2411 18.8426 31.2585 18.8006 31.2585 18.7567C31.2585 18.7129 31.2411 18.6708 31.2101 18.6398C31.179 18.6088 31.137 18.5913 31.0931 18.5913H30.5963V17.103C30.5963 17.0591 30.5789 17.0171 30.5479 16.986C30.5169 16.955 30.4748 16.9376 30.431 16.9376C30.3871 16.9376 30.345 16.955 30.314 16.986C30.283 17.0171 30.2656 17.0591 30.2656 17.103V17.5991H28.6119V17.103C28.6119 17.0591 28.5944 17.0171 28.5634 16.986C28.5324 16.955 28.4904 16.9376 28.4465 16.9376C28.4026 16.9376 28.3606 16.955 28.3295 16.986C28.2986 17.0171 28.2811 17.0591 28.2811 17.103V18.5913H27.787C27.7431 18.5913 27.7011 18.6088 27.67 18.6398C27.6391 18.6708 27.6216 18.7129 27.6216 18.7567C27.6216 18.8006 27.6391 18.8426 27.67 18.8737C27.7011 18.9047 27.7431 18.9221 27.787 18.9221H27.8829L27.0028 21.5581H26.7908C26.7469 21.5581 26.7049 21.5755 26.6738 21.6065C26.6428 21.6376 26.6254 21.6796 26.6254 21.7235C26.6254 21.7673 26.6428 21.8094 26.6738 21.8404C26.7049 21.8714 26.7469 21.8889 26.7908 21.8889H26.9562V22.2196H19.6798V12.7934C19.6798 12.7821 19.6755 12.7722 19.6732 12.7613C19.6722 12.7554 19.6742 12.7494 19.6722 12.7438L19.0143 10.6617C19.015 10.6555 19.0176 10.6502 19.0176 10.6439V8.16331C19.0176 8.11945 19.0002 8.07738 18.9692 8.04636C18.9382 8.01537 18.8961 7.99794 18.8523 7.99794C18.8084 7.99794 18.7663 8.01537 18.7353 8.04636C18.7043 8.07738 18.6869 8.11945 18.6869 8.16331V8.65942H18.382L17.7555 6.67496H17.86C17.9039 6.67496 17.946 6.65753 17.977 6.62654C18.008 6.59551 18.0254 6.55344 18.0254 6.50959C18.0254 6.46573 18.008 6.42366 17.977 6.39264C17.946 6.36165 17.9039 6.34422 17.86 6.34422H17.7V5.52562L17.6947 4.86414C17.6943 4.82051 17.6767 4.77877 17.6457 4.74804C17.6148 4.71732 17.5729 4.70009 17.5293 4.70009H17.528C17.5062 4.70025 17.4848 4.70472 17.4648 4.71318C17.4448 4.72165 17.4267 4.73399 17.4114 4.74947C17.3962 4.76495 17.3842 4.78327 17.376 4.80341C17.3679 4.82352 17.3638 4.84505 17.3639 4.86678L17.3679 5.36157H16.7024V3.53256C16.7024 3.4887 16.685 3.44663 16.654 3.41561C16.623 3.38462 16.5809 3.36719 16.5371 3.36719V3.36752ZM15.7155 5.69232H16.0409V6.34388H15.7155V5.69232ZM16.3717 5.69232H16.7024V6.34388H16.3717V5.69232ZM17.0332 5.69232H17.3692V6.34388H17.0332V5.69232ZM15.6629 6.68455H17.4119L19.2882 12.628H18.3568V11.8012C18.3568 11.7573 18.3394 11.7152 18.3084 11.6842C18.2774 11.6532 18.2353 11.6358 18.1914 11.6358H17.6179L16.6935 9.09898C16.6819 9.06726 16.6609 9.03981 16.6333 9.02033C16.6057 9.00082 16.5728 8.9902 16.539 8.98984H16.5377C16.5043 8.98984 16.4716 8.99996 16.444 9.01894C16.4164 9.03789 16.3952 9.06475 16.3833 9.09601L15.4043 11.6361H14.884C14.8401 11.6361 14.7981 11.6536 14.7671 11.6845C14.7361 11.7156 14.7186 11.7576 14.7186 11.8015V12.6284H13.7873L15.6629 6.68455ZM14.3872 8.98951H14.589L14.3872 9.62586V8.98951ZM18.4861 8.98951H18.6869V9.62586L18.4861 8.98951ZM16.5331 9.62553L17.3467 11.8574C17.3467 11.8584 17.3477 11.8581 17.3484 11.859C17.3593 11.8875 17.3781 11.9103 17.402 11.9288C17.4072 11.9328 17.4119 11.9368 17.4175 11.9401C17.4425 11.9563 17.4716 11.9653 17.5015 11.9659H18.0254V12.7927C18.0254 12.8366 18.0428 12.8787 18.0738 12.9097C18.1049 12.9407 18.1469 12.9581 18.1908 12.9581H19.3484V12.9885C19.2954 12.969 19.2395 12.9587 19.183 12.9581C19.0557 12.9581 18.9402 13.0077 18.8523 13.0871C18.7619 13.0045 18.644 12.9585 18.5215 12.9581C18.248 12.9581 18.0254 13.1807 18.0254 13.4542V13.785C18.0254 13.8288 18.0428 13.8709 18.0738 13.9019C18.1049 13.9329 18.1469 13.9503 18.1908 13.9503C18.2346 13.9503 18.2767 13.9329 18.3077 13.9019C18.3387 13.8709 18.3562 13.8288 18.3562 13.785V13.4542C18.3562 13.3633 18.4306 13.2888 18.5215 13.2888C18.6125 13.2888 18.6869 13.3633 18.6869 13.4542V13.785C18.6869 13.8288 18.7043 13.8709 18.7353 13.9019C18.7663 13.9329 18.8084 13.9503 18.8523 13.9503C18.8961 13.9503 18.9382 13.9329 18.9692 13.9019C19.0002 13.8709 19.0176 13.8288 19.0176 13.785V13.4542C19.0176 13.3633 19.0921 13.2888 19.183 13.2888C19.274 13.2888 19.3484 13.3633 19.3484 13.4542V15.6041H13.7257V13.4542C13.7257 13.3633 13.8002 13.2888 13.8911 13.2888C13.9821 13.2888 14.0565 13.3633 14.0565 13.4542V13.785C14.0565 13.8288 14.0739 13.8709 14.1049 13.9019C14.1359 13.9329 14.178 13.9503 14.2219 13.9503C14.2657 13.9503 14.3078 13.9329 14.3388 13.9019C14.3698 13.8709 14.3872 13.8288 14.3872 13.785V13.4542C14.3872 13.3633 14.4616 13.2888 14.5526 13.2888C14.6436 13.2888 14.718 13.3633 14.718 13.4542V13.785C14.718 13.8288 14.7354 13.8709 14.7664 13.9019C14.7974 13.9329 14.8395 13.9503 14.8833 13.9503C14.9272 13.9503 14.9693 13.9329 15.0003 13.9019C15.0313 13.8709 15.0487 13.8288 15.0487 13.785V13.4542C15.0485 13.3239 14.9971 13.1989 14.9055 13.1061C14.8139 13.0134 14.6895 12.9605 14.5592 12.9588H14.8833C14.9272 12.9588 14.9693 12.9413 15.0003 12.9103C15.0313 12.8793 15.0487 12.8373 15.0487 12.7934V11.9665H15.5177L15.5204 11.9659C15.5286 11.9655 15.5362 11.9622 15.5442 11.9606C15.572 11.9565 15.5983 11.9452 15.6206 11.9279C15.6428 11.9105 15.6601 11.8877 15.6708 11.8617C15.6708 11.861 15.6708 11.8604 15.6715 11.8597L16.5331 9.6252V9.62553ZM13.7257 12.9591H13.8878C13.8325 12.9599 13.7777 12.9699 13.7257 12.9889V12.9591ZM13.8977 12.9591H14.546C14.4259 12.9609 14.3107 13.0066 14.2219 13.0874C14.133 13.0066 14.0178 12.9609 13.8977 12.9591ZM16.5371 12.9591C15.8987 12.9591 15.3795 13.4784 15.3795 14.1167C15.3795 14.755 15.8991 15.2743 16.5371 15.2743C17.1754 15.2743 17.6947 14.755 17.6947 14.1167C17.6947 13.4784 17.1754 12.9591 16.5371 12.9591ZM16.5371 13.2898C16.9932 13.2898 17.3639 13.6603 17.3639 14.1167C17.3639 14.5728 16.9932 14.9436 16.5371 14.9436C16.3178 14.9434 16.1076 14.8562 15.9526 14.7012C15.7976 14.5462 15.7104 14.336 15.7102 14.1167C15.7102 13.6603 16.081 13.2898 16.5371 13.2898ZM16.5371 13.6206C16.4932 13.6206 16.4511 13.638 16.4201 13.669C16.3891 13.7 16.3717 13.7421 16.3717 13.786V14.1167C16.3717 14.1606 16.3891 14.2026 16.4201 14.2337C16.4511 14.2646 16.4932 14.2821 16.5371 14.2821C16.54 14.2821 16.543 14.2808 16.546 14.2808C16.5493 14.2808 16.5516 14.2821 16.5546 14.2821H17.0332C17.077 14.2821 17.1191 14.2646 17.1501 14.2337C17.1811 14.2026 17.1985 14.1606 17.1985 14.1167C17.1985 14.0728 17.1811 14.0308 17.1501 13.9998C17.1191 13.9688 17.077 13.9513 17.0332 13.9513H16.7024V13.786C16.7024 13.7421 16.685 13.7 16.654 13.669C16.623 13.638 16.5809 13.6206 16.5371 13.6206ZM13.7257 15.9358H15.3795V16.4319C15.3795 16.4944 15.4152 16.5516 15.4711 16.5798L16.0409 16.8645V17.4241C16.0409 17.468 16.0584 17.5101 16.0894 17.5411C16.1204 17.5721 16.1625 17.5895 16.2063 17.5895H16.3717V18.251C16.3278 18.251 16.2858 18.2684 16.2547 18.2994C16.2237 18.3304 16.2063 18.3725 16.2063 18.4164C16.2063 18.4602 16.2237 18.5023 16.2547 18.5333C16.2858 18.5643 16.3278 18.5817 16.3717 18.5817H16.7024C16.7463 18.5817 16.7884 18.5643 16.8194 18.5333C16.8504 18.5023 16.8678 18.4602 16.8678 18.4164C16.8678 18.3725 16.8504 18.3304 16.8194 18.2994C16.7884 18.2684 16.7463 18.251 16.7024 18.251V17.5895H16.8678C16.9117 17.5895 16.9537 17.5721 16.9848 17.5411C17.0157 17.5101 17.0332 17.468 17.0332 17.4241V16.8645L17.6037 16.5798C17.6311 16.566 17.6541 16.5448 17.6702 16.5187C17.6862 16.4926 17.6947 16.4626 17.6947 16.4319V15.9358H19.3484V19.9047H18.0254V19.2432C18.0254 18.8784 17.7287 18.5817 17.3639 18.5817C16.9991 18.5817 16.7024 18.8784 16.7024 19.2432V19.9047H16.3717V19.2432C16.3717 18.8784 16.075 18.5817 15.7102 18.5817C15.3454 18.5817 15.0487 18.8784 15.0487 19.2432V19.9047H13.7257V15.9358ZM15.7102 15.9365H17.3639V16.33L16.794 16.6145C16.7666 16.6283 16.7434 16.6494 16.7272 16.6756C16.7111 16.7018 16.7025 16.7319 16.7024 16.7627V17.2588H16.3717V16.7627C16.3718 16.732 16.3633 16.7018 16.3472 16.6756C16.3312 16.6495 16.3082 16.6283 16.2807 16.6145L15.7102 16.33V15.9365ZM2.81647 17.9295H3.14192V18.5811H2.81647V17.9295ZM3.47267 17.9295H3.80341V18.5811H3.47267V17.9295ZM4.13416 17.9295H4.47019V18.5811H4.13416V17.9295ZM28.6119 17.9295H28.938V18.5811H28.6119V17.9295ZM29.2687 17.9295H29.5995V18.5811H29.2687V17.9295ZM29.9296 17.9295H30.2656V18.5811H29.9296V17.9295ZM15.7102 18.9122C15.7979 18.9122 15.8821 18.947 15.9441 19.009C16.0061 19.0711 16.0409 19.1552 16.0409 19.2429V21.5581H15.3795V19.2429C15.3795 19.1552 15.4143 19.0711 15.4763 19.009C15.5383 18.947 15.6225 18.9122 15.7102 18.9122ZM17.3639 18.9122C17.4516 18.9122 17.5358 18.947 17.5978 19.009C17.6598 19.0711 17.6947 19.1552 17.6947 19.2429V21.5581H17.0332V19.2429C17.0332 19.1552 17.068 19.0711 17.1301 19.009C17.1921 18.947 17.2762 18.9122 17.3639 18.9122ZM2.43645 18.9221H4.84757L5.72901 21.568H4.70469L3.76075 20.6155C3.74553 20.5999 3.72737 20.5875 3.70733 20.579C3.68729 20.5705 3.66576 20.566 3.64399 20.5659H3.64333C3.62157 20.5658 3.60001 20.5701 3.57993 20.5785C3.55982 20.5868 3.54156 20.5991 3.52625 20.6145L2.57701 21.568H1.55303L2.43645 18.9221ZM28.2318 18.9221H30.643L31.5244 21.568H30.5001L29.5561 20.6155C29.5409 20.5999 29.5228 20.5875 29.5027 20.579C29.4827 20.5705 29.4612 20.566 29.4394 20.5659H29.4387C29.417 20.5658 29.3954 20.5701 29.3753 20.5785C29.3552 20.5868 29.337 20.5991 29.3216 20.6145L28.3734 21.568H27.8313C27.8158 21.5634 27.7999 21.5581 27.783 21.5581H27.3521L28.2318 18.9221ZM13.7257 20.2348H15.0487V21.5578H14.8833C14.8395 21.5578 14.7974 21.5752 14.7664 21.6062C14.7354 21.6372 14.718 21.6793 14.718 21.7232V22.3846C14.718 22.4285 14.7354 22.4706 14.7664 22.5016C14.7974 22.5326 14.8395 22.55 14.8833 22.55H18.1908C18.2346 22.55 18.2767 22.5326 18.3077 22.5016C18.3387 22.4706 18.3562 22.4285 18.3562 22.3846V21.7232C18.3562 21.6793 18.3387 21.6372 18.3077 21.6062C18.2767 21.5752 18.2346 21.5578 18.1908 21.5578H18.0254V20.2348H19.3484V26.5189H18.0254V24.0384C18.0254 23.5826 17.6546 23.2115 17.1985 23.2115C16.927 23.2115 16.6879 23.3451 16.5371 23.5475C16.4607 23.4438 16.3611 23.3594 16.2462 23.3011C16.1313 23.2428 16.0044 23.2122 15.8756 23.2118C15.6563 23.212 15.4461 23.2992 15.2911 23.4542C15.1361 23.6092 15.0489 23.8194 15.0487 24.0387V26.5193H13.7257V20.2348ZM16.3717 20.2348H16.7024V20.5656H16.3717V20.2348ZM16.3717 20.8963H16.7024V21.5578H16.3717V20.8963ZM3.64267 20.9664L4.51782 21.8495C4.53323 21.865 4.55159 21.8774 4.5718 21.8858C4.59201 21.8942 4.61367 21.8985 4.63556 21.8984H5.78788V22.2497C5.73489 22.2302 5.67896 22.22 5.62251 22.2196C5.49517 22.2196 5.37974 22.2692 5.29176 22.3486C5.20137 22.266 5.08346 22.22 4.96102 22.2196C4.68749 22.2196 4.4649 22.4422 4.4649 22.7157V23.0465C4.4649 23.0903 4.48233 23.1324 4.51332 23.1634C4.54435 23.1944 4.58642 23.2118 4.63027 23.2118C4.67413 23.2118 4.7162 23.1944 4.74722 23.1634C4.77821 23.1324 4.79565 23.0903 4.79565 23.0465V22.7157C4.79565 22.6248 4.87006 22.5503 4.96102 22.5503C5.05197 22.5503 5.12639 22.6248 5.12639 22.7157V23.0465C5.12639 23.0903 5.14382 23.1324 5.17481 23.1634C5.20583 23.1944 5.2479 23.2118 5.29176 23.2118C5.33562 23.2118 5.37769 23.1944 5.40871 23.1634C5.4397 23.1324 5.45713 23.0903 5.45713 23.0465V22.7157C5.45713 22.6248 5.53155 22.5503 5.62251 22.5503C5.71346 22.5503 5.78788 22.6248 5.78788 22.7157V31.4804H5.10985V30.3195C5.10985 29.4989 4.44175 28.8312 3.6215 28.8312C3.2269 28.8316 2.84859 28.9886 2.56957 29.2676C2.29054 29.5466 2.13359 29.9249 2.13315 30.3195V31.4804H1.4882V22.7157C1.4882 22.6248 1.56262 22.5503 1.65358 22.5503C1.74453 22.5503 1.81895 22.6248 1.81895 22.7157V23.0465C1.81895 23.0903 1.83637 23.1324 1.86739 23.1634C1.8984 23.1944 1.94046 23.2118 1.98432 23.2118C2.02818 23.2118 2.07024 23.1944 2.10125 23.1634C2.13227 23.1324 2.14969 23.0903 2.14969 23.0465V22.7157C2.14969 22.6248 2.22411 22.5503 2.31506 22.5503C2.40602 22.5503 2.48044 22.6248 2.48044 22.7157V23.0465C2.48044 23.0903 2.49786 23.1324 2.52887 23.1634C2.55988 23.1944 2.60195 23.2118 2.64581 23.2118C2.68967 23.2118 2.73173 23.1944 2.76274 23.1634C2.79376 23.1324 2.81118 23.0903 2.81118 23.0465V22.7157C2.81118 22.4422 2.58859 22.2196 2.31506 22.2196C2.18773 22.2196 2.0723 22.2692 1.98432 22.3486C1.89392 22.266 1.77602 22.22 1.65358 22.2196C1.59537 22.2196 1.54013 22.2312 1.4882 22.2497V21.8984H2.64581C2.66761 21.8984 2.68921 21.8941 2.70935 21.8858C2.7295 21.8775 2.7478 21.8652 2.76322 21.8498L3.64267 20.9664ZM29.4381 20.9664L30.3132 21.8495C30.3286 21.865 30.347 21.8774 30.3672 21.8858C30.3874 21.8942 30.4091 21.8985 30.431 21.8984H31.5859V22.2497C31.5329 22.2302 31.477 22.22 31.4205 22.2196C31.2932 22.2196 31.1778 22.2692 31.0898 22.3486C30.9994 22.266 30.8815 22.22 30.7591 22.2196C30.4855 22.2196 30.2629 22.4422 30.2629 22.7157V23.0465C30.2629 23.0903 30.2804 23.1324 30.3114 23.1634C30.3424 23.1944 30.3845 23.2118 30.4283 23.2118C30.4722 23.2118 30.5142 23.1944 30.5453 23.1634C30.5763 23.1324 30.5937 23.0903 30.5937 23.0465V22.7157C30.5937 22.6248 30.6681 22.5503 30.7591 22.5503C30.85 22.5503 30.9244 22.6248 30.9244 22.7157V23.0465C30.9244 23.0903 30.9419 23.1324 30.9729 23.1634C31.0039 23.1944 31.0459 23.2118 31.0898 23.2118C31.1337 23.2118 31.1757 23.1944 31.2068 23.1634C31.2377 23.1324 31.2552 23.0903 31.2552 23.0465V22.7157C31.2552 22.6248 31.3296 22.5503 31.4205 22.5503C31.5115 22.5503 31.5859 22.6248 31.5859 22.7157V31.4804H30.9079V30.3195C30.9079 29.4989 30.2398 28.8312 29.4195 28.8312C29.0249 28.8316 28.6466 28.9886 28.3676 29.2676C28.0886 29.5466 27.9316 29.9249 27.9312 30.3195V31.4804H27.2869V22.7157C27.2869 22.6248 27.3613 22.5503 27.4523 22.5503C27.5432 22.5503 27.6177 22.6248 27.6177 22.7157V23.0465C27.6177 23.0903 27.6351 23.1324 27.6661 23.1634C27.6971 23.1944 27.7392 23.2118 27.783 23.2118C27.8269 23.2118 27.8689 23.1944 27.9 23.1634C27.931 23.1324 27.9484 23.0903 27.9484 23.0465V22.7157C27.9484 22.6248 28.0228 22.5503 28.1138 22.5503C28.2047 22.5503 28.2791 22.6248 28.2791 22.7157V23.0465C28.2791 23.0903 28.2966 23.1324 28.3276 23.1634C28.3586 23.1944 28.4007 23.2118 28.4445 23.2118C28.4884 23.2118 28.5304 23.1944 28.5615 23.1634C28.5925 23.1324 28.6099 23.0903 28.6099 23.0465V22.7157C28.6099 22.4422 28.3873 22.2196 28.1138 22.2196C27.9864 22.2196 27.871 22.2692 27.783 22.3486C27.6926 22.266 27.5747 22.22 27.4523 22.2196C27.3941 22.2196 27.3388 22.2312 27.2869 22.2497V21.8984H28.4419C28.4859 21.8984 28.5279 21.8809 28.5589 21.8498L29.4381 20.9664ZM3.63804 21.5584C3.36452 21.5584 3.14192 21.781 3.14192 22.0546V23.0468C3.14192 23.0906 3.15935 23.1327 3.19036 23.1637C3.22137 23.1947 3.26344 23.2122 3.3073 23.2122H3.96878C4.01264 23.2122 4.05471 23.1947 4.08574 23.1637C4.11673 23.1327 4.13416 23.0906 4.13416 23.0468V22.0546C4.13416 21.781 3.91157 21.5584 3.63804 21.5584ZM29.4361 21.5584C29.1626 21.5584 28.94 21.781 28.94 22.0546V23.0468C28.94 23.0906 28.9574 23.1327 28.9884 23.1637C29.0194 23.1947 29.0615 23.2122 29.1053 23.2122H29.7668C29.8107 23.2122 29.8528 23.1947 29.8838 23.1637C29.9148 23.1327 29.9322 23.0906 29.9322 23.0468V22.0546C29.9322 21.781 29.7096 21.5584 29.4361 21.5584ZM3.63804 21.8892C3.729 21.8892 3.80341 21.9636 3.80341 22.0546V22.8814H3.47267V22.0546C3.47267 21.9636 3.54709 21.8892 3.63804 21.8892ZM15.0487 21.8892H15.3795V22.2199H15.0487V21.8892ZM15.7102 21.8892H16.0409V22.2199H15.7102V21.8892ZM16.3717 21.8892H16.7024V22.2199H16.3717V21.8892ZM17.0332 21.8892H17.3639V22.2199H17.0332V21.8892ZM17.6947 21.8892H18.0254V22.2199H17.6947V21.8892ZM29.4361 21.8892C29.527 21.8892 29.6015 21.9636 29.6015 22.0546V22.8814H29.2707V22.0546C29.2707 21.9636 29.3451 21.8892 29.4361 21.8892ZM6.11862 22.5507H13.395V23.8737H6.11862V22.5507ZM19.6791 22.5507H26.9555V23.8737H19.6791V22.5507ZM15.8756 23.5429C16.1491 23.5429 16.3717 23.7655 16.3717 24.039V26.5196H15.3795V24.039C15.3795 23.7655 15.602 23.5429 15.8756 23.5429ZM17.1985 23.5429C17.4721 23.5429 17.6947 23.7655 17.6947 24.039V26.5196H16.7024V24.039C16.7024 23.7655 16.925 23.5429 17.1985 23.5429ZM3.63804 24.2011C2.95902 24.2011 2.39147 24.6602 2.21353 25.283C2.20289 25.3024 2.19636 25.3238 2.19434 25.3458C2.16788 25.4566 2.15035 25.5704 2.15035 25.6894V28.0046C2.15002 28.0956 2.22378 28.17 2.31506 28.17H4.96102C5.00487 28.17 5.04694 28.1526 5.07797 28.1216C5.10896 28.0906 5.12639 28.0485 5.12639 28.0046V25.6894C5.12639 25.5694 5.10853 25.4536 5.08174 25.3422C5.07969 25.3217 5.0736 25.3018 5.06388 25.2836C4.88627 24.6605 4.31739 24.2011 3.63804 24.2011ZM29.4367 24.2011C28.7577 24.2011 28.1898 24.6602 28.0116 25.283C28.0011 25.3024 27.9948 25.3238 27.993 25.3458C27.9666 25.4566 27.9484 25.5704 27.9484 25.6894V28.0046C27.9484 28.0485 27.9658 28.0906 27.9968 28.1216C28.0278 28.1526 28.0699 28.17 28.1138 28.17H30.7597C30.8036 28.17 30.8456 28.1526 30.8767 28.1216C30.9077 28.0906 30.9251 28.0485 30.9251 28.0046V25.6894C30.9251 25.5694 30.9072 25.4543 30.8804 25.3425C30.8779 25.3219 30.8716 25.302 30.8619 25.2836C30.6843 24.6605 30.1164 24.2011 29.4367 24.2011ZM6.11862 24.2044H13.395V26.8504H13.0642V25.4447C13.0642 25.1255 12.8046 24.8659 12.4854 24.8659C12.3234 24.8659 12.1772 24.9334 12.072 25.0408C12.0184 24.9854 11.9541 24.9413 11.8831 24.9112C11.8121 24.8811 11.7357 24.8656 11.6586 24.8656C11.3394 24.8656 11.0798 25.1255 11.0798 25.4444V26.85H10.749V25.4444C10.749 25.1255 10.4894 24.8656 10.1702 24.8656C10.0082 24.8656 9.86198 24.9334 9.75681 25.0408C9.70316 24.9854 9.63893 24.9413 9.56789 24.9112C9.49688 24.8811 9.42051 24.8656 9.34338 24.8656C9.02421 24.8656 8.76457 25.1255 8.76457 25.4444V26.85H8.43383V25.4444C8.43383 25.1255 8.1742 24.8656 7.85503 24.8656C7.69296 24.8656 7.54677 24.9334 7.4416 25.0408C7.38795 24.9854 7.32372 24.9413 7.25268 24.9112C7.18167 24.8811 7.1053 24.8656 7.02817 24.8656C6.709 24.8656 6.44937 25.1255 6.44937 25.4444V26.85H6.11862V24.2044ZM19.6791 24.2044H26.9555V26.8504H26.6248V25.4447C26.6248 25.1255 26.3651 24.8659 26.046 24.8659C25.8839 24.8659 25.7377 24.9334 25.6325 25.0408C25.5789 24.9854 25.5146 24.9413 25.4436 24.9112C25.3726 24.8811 25.2962 24.8656 25.2191 24.8656C24.8999 24.8656 24.6403 25.1255 24.6403 25.4444V26.85H24.3095V25.4444C24.3095 25.1255 24.0499 24.8656 23.7307 24.8656C23.5687 24.8656 23.4225 24.9334 23.3173 25.0408C23.2637 24.9854 23.1994 24.9413 23.1284 24.9112C23.0574 24.8811 22.981 24.8656 22.9039 24.8656C22.5847 24.8656 22.3251 25.1255 22.3251 25.4444V26.85H21.9943V25.4444C21.9943 25.1255 21.7347 24.8656 21.4155 24.8656C21.2535 24.8656 21.1073 24.9334 21.0021 25.0408C20.9485 24.9854 20.8842 24.9413 20.8132 24.9112C20.7422 24.8811 20.6658 24.8656 20.5887 24.8656C20.2695 24.8656 20.0099 25.1255 20.0099 25.4444V26.85H19.6791V24.2044ZM3.63804 24.5318C4.09943 24.5318 4.49599 24.805 4.68187 25.1966H2.59487C2.68786 24.9983 2.83529 24.8306 3.01999 24.7129C3.20468 24.5951 3.41902 24.5324 3.63804 24.5318ZM29.4361 24.5318C29.8975 24.5318 30.294 24.805 30.4799 25.1966H28.3929C28.4859 24.9983 28.6333 24.8306 28.818 24.7129C29.0027 24.5951 29.2171 24.5324 29.4361 24.5318ZM7.02817 25.1966C7.16477 25.1966 7.27623 25.3081 7.27623 25.4447V26.8504H6.78011V25.4447C6.78011 25.3081 6.89157 25.1966 7.02817 25.1966ZM7.85503 25.1966C7.99163 25.1966 8.10309 25.3081 8.10309 25.4447V26.8504H7.60697V25.4447C7.60697 25.3081 7.71843 25.1966 7.85503 25.1966ZM9.34338 25.1966C9.47997 25.1966 9.59143 25.3081 9.59143 25.4447V26.8504H9.09532V25.4447C9.09532 25.3081 9.20678 25.1966 9.34338 25.1966ZM10.1702 25.1966C10.3068 25.1966 10.4183 25.3081 10.4183 25.4447V26.8504H9.92218V25.4447C9.92218 25.3081 10.0336 25.1966 10.1702 25.1966ZM11.6586 25.1966C11.7952 25.1966 11.9066 25.3081 11.9066 25.4447V26.8504H11.4105V25.4447C11.4105 25.3081 11.522 25.1966 11.6586 25.1966ZM12.4854 25.1966C12.622 25.1966 12.7335 25.3081 12.7335 25.4447V26.8504H12.2374V25.4447C12.2374 25.3081 12.3488 25.1966 12.4854 25.1966ZM20.5887 25.1966C20.7253 25.1966 20.8367 25.3081 20.8367 25.4447V26.8504H20.3406V25.4447C20.3406 25.3081 20.4521 25.1966 20.5887 25.1966ZM21.4155 25.1966C21.5521 25.1966 21.6636 25.3081 21.6636 25.4447V26.8504H21.1675V25.4447C21.1675 25.3081 21.2789 25.1966 21.4155 25.1966ZM22.9039 25.1966C23.0405 25.1966 23.1519 25.3081 23.1519 25.4447V26.8504H22.6558V25.4447C22.6558 25.3081 22.7673 25.1966 22.9039 25.1966ZM23.7307 25.1966C23.8673 25.1966 23.9788 25.3081 23.9788 25.4447V26.8504H23.4827V25.4447C23.4827 25.3081 23.5941 25.1966 23.7307 25.1966ZM25.2191 25.1966C25.3557 25.1966 25.4672 25.3081 25.4672 25.4447V26.8504H24.971V25.4447C24.971 25.3081 25.0825 25.1966 25.2191 25.1966ZM26.046 25.1966C26.1826 25.1966 26.294 25.3081 26.294 25.4447V26.8504H25.7979V25.4447C25.7979 25.3081 25.9094 25.1966 26.046 25.1966ZM2.49697 25.5274H2.81118V25.8581H2.48044V25.6894C2.48044 25.6339 2.4897 25.5803 2.49697 25.5274ZM3.14192 25.5274H3.47267V25.8581H3.14192V25.5274ZM3.80341 25.5274H4.13416V25.8581H3.80341V25.5274ZM4.4649 25.5274H4.77944C4.78738 25.5803 4.79565 25.6339 4.79565 25.6894V25.8581H4.4649V25.5274ZM28.295 25.5274H28.6092V25.8581H28.2785V25.6894C28.2785 25.6339 28.2877 25.5803 28.295 25.5274ZM28.94 25.5274H29.2707V25.8581H28.94V25.5274ZM29.6015 25.5274H29.9322V25.8581H29.6015V25.5274ZM30.2629 25.5274H30.5775C30.5851 25.5803 30.5937 25.6342 30.5937 25.6894V25.8581H30.2629V25.5274ZM2.48044 26.1889H2.81118V27.8393H2.48044V26.1889ZM3.14192 26.1889H3.47267V27.8393H3.14192V26.1889ZM3.80341 26.1889H4.13416V27.8393H3.80341V26.1889ZM4.4649 26.1889H4.79565V27.8393H4.4649V26.1889ZM28.2785 26.1889H28.6092V27.8393H28.2785V26.1889ZM28.94 26.1889H29.2707V27.8393H28.94V26.1889ZM29.6015 26.1889H29.9322V27.8393H29.6015V26.1889ZM30.2629 26.1889H30.5937V27.8393H30.2629V26.1889ZM13.7264 26.8504H19.3484V31.4808H18.3396V29.3276C18.3396 28.3248 17.523 27.5085 16.5205 27.5085C16.0383 27.5091 15.5759 27.701 15.2349 28.042C14.8939 28.383 14.7021 28.8454 14.7014 29.3276V31.4808H13.7264V26.8504ZM6.11862 27.1811H13.395V31.4808H13.0642V30.1558C13.0642 29.6088 12.6191 29.1636 12.072 29.1636C11.525 29.1636 11.0798 29.6088 11.0798 30.1558V31.4808H10.749V30.1558C10.749 29.6088 10.3039 29.1636 9.75681 29.1636C9.20976 29.1636 8.76457 29.6088 8.76457 30.1558V31.4808H8.43383V30.1558C8.43383 29.6088 7.98865 29.1636 7.4416 29.1636C6.89455 29.1636 6.44937 29.6088 6.44937 30.1558V31.4808H6.11862V27.1811ZM19.6791 27.1811H26.9555V31.4808H26.6248V30.1558C26.6248 29.6088 26.1796 29.1636 25.6325 29.1636C25.0855 29.1636 24.6403 29.6088 24.6403 30.1558V31.4808H24.3095V30.1558C24.3095 29.6088 23.8644 29.1636 23.3173 29.1636C22.7703 29.1636 22.3251 29.6088 22.3251 30.1558V31.4808H21.9943V30.1558C21.9943 29.6088 21.5492 29.1636 21.0021 29.1636C20.4551 29.1636 20.0099 29.6088 20.0099 30.1558V31.4808H19.6791V27.1811ZM6.61474 27.5085C6.57088 27.5085 6.52881 27.526 6.49779 27.557C6.4668 27.588 6.44937 27.63 6.44937 27.6739V28.5008C6.44937 28.5446 6.4668 28.5867 6.49779 28.6177C6.52881 28.6487 6.57088 28.6661 6.61474 28.6661H8.26846C8.31232 28.6661 8.35439 28.6487 8.38541 28.6177C8.4164 28.5867 8.43383 28.5446 8.43383 28.5008V27.6739C8.43383 27.63 8.4164 27.588 8.38541 27.557C8.35439 27.526 8.31232 27.5085 8.26846 27.5085H6.61474ZM8.92995 27.5085C8.88609 27.5085 8.84402 27.526 8.813 27.557C8.782 27.588 8.76457 27.63 8.76457 27.6739V28.5008C8.76457 28.5446 8.782 28.5867 8.813 28.6177C8.84402 28.6487 8.88609 28.6661 8.92995 28.6661H10.5837C10.6275 28.6661 10.6696 28.6487 10.7006 28.6177C10.7316 28.5867 10.749 28.5446 10.749 28.5008V27.6739C10.749 27.63 10.7316 27.588 10.7006 27.557C10.6696 27.526 10.6275 27.5085 10.5837 27.5085H8.92995ZM11.2452 27.5085C11.2013 27.5085 11.1592 27.526 11.1282 27.557C11.0972 27.588 11.0798 27.63 11.0798 27.6739V28.5008C11.0798 28.5446 11.0972 28.5867 11.1282 28.6177C11.1592 28.6487 11.2013 28.6661 11.2452 28.6661H12.8989C12.9427 28.6661 12.9848 28.6487 13.0158 28.6177C13.0468 28.5867 13.0642 28.5446 13.0642 28.5008V27.6739C13.0642 27.63 13.0468 27.588 13.0158 27.557C12.9848 27.526 12.9427 27.5085 12.8989 27.5085H11.2452ZM20.1752 27.5085C20.1314 27.5085 20.0893 27.526 20.0583 27.557C20.0273 27.588 20.0099 27.63 20.0099 27.6739V28.5008C20.0099 28.5446 20.0273 28.5867 20.0583 28.6177C20.0893 28.6487 20.1314 28.6661 20.1752 28.6661H21.829C21.8728 28.6661 21.9149 28.6487 21.9459 28.6177C21.9769 28.5867 21.9943 28.5446 21.9943 28.5008V27.6739C21.9943 27.63 21.9769 27.588 21.9459 27.557C21.9149 27.526 21.8728 27.5085 21.829 27.5085H20.1752ZM22.4905 27.5085C22.4466 27.5085 22.4045 27.526 22.3735 27.557C22.3425 27.588 22.3251 27.63 22.3251 27.6739V28.5008C22.3251 28.5446 22.3425 28.5867 22.3735 28.6177C22.4045 28.6487 22.4466 28.6661 22.4905 28.6661H24.1442C24.188 28.6661 24.2301 28.6487 24.2611 28.6177C24.2921 28.5867 24.3095 28.5446 24.3095 28.5008V27.6739C24.3095 27.63 24.2921 27.588 24.2611 27.557C24.2301 27.526 24.188 27.5085 24.1442 27.5085H22.4905ZM24.8057 27.5085C24.7618 27.5085 24.7197 27.526 24.6887 27.557C24.6577 27.588 24.6403 27.63 24.6403 27.6739V28.5008C24.6403 28.5446 24.6577 28.5867 24.6887 28.6177C24.7197 28.6487 24.7618 28.6661 24.8057 28.6661H26.4594C26.5032 28.6661 26.5453 28.6487 26.5763 28.6177C26.6073 28.5867 26.6248 28.5446 26.6248 28.5008V27.6739C26.6248 27.63 26.6073 27.588 26.5763 27.557C26.5453 27.526 26.5032 27.5085 26.4594 27.5085H24.8057ZM6.78011 27.8393H7.27623V28.3354H6.78011V27.8393ZM7.60697 27.8393H8.10309V28.3354H7.60697V27.8393ZM9.09532 27.8393H9.59143V28.3354H9.09532V27.8393ZM9.92218 27.8393H10.4183V28.3354H9.92218V27.8393ZM11.4105 27.8393H11.9066V28.3354H11.4105V27.8393ZM12.2374 27.8393H12.7335V28.3354H12.2374V27.8393ZM16.5205 27.8393C17.3408 27.8393 18.0089 28.507 18.0089 29.3276V31.4775H15.0322V29.3276C15.0322 28.507 15.6996 27.8393 16.5205 27.8393ZM20.3406 27.8393H20.8367V28.3354H20.3406V27.8393ZM21.1675 27.8393H21.6636V28.3354H21.1675V27.8393ZM22.6558 27.8393H23.1519V28.3354H22.6558V27.8393ZM23.4827 27.8393H23.9788V28.3354H23.4827V27.8393ZM24.971 27.8393H25.4672V28.3354H24.971V27.8393ZM25.7979 27.8393H26.294V28.3354H25.7979V27.8393ZM3.6215 29.1623C4.25984 29.1623 4.77911 29.6815 4.77911 30.3199V31.4775H2.4639V30.3199C2.4639 29.6815 2.98317 29.1623 3.6215 29.1623ZM29.4195 29.1623C30.0579 29.1623 30.5771 29.6815 30.5771 30.3199V31.4775H28.2619V30.3199C28.2619 29.6815 28.7812 29.1623 29.4195 29.1623ZM7.4416 29.4943C7.80641 29.4943 8.10309 29.791 8.10309 30.1558V31.4808H6.78011V30.1558C6.78011 29.791 7.07679 29.4943 7.4416 29.4943ZM9.75681 29.4943C10.1216 29.4943 10.4183 29.791 10.4183 30.1558V31.4808H9.09532V30.1558C9.09532 29.791 9.392 29.4943 9.75681 29.4943ZM12.072 29.4943C12.4368 29.4943 12.7335 29.791 12.7335 30.1558V31.4808H11.4105V30.1558C11.4105 29.791 11.7072 29.4943 12.072 29.4943ZM21.0021 29.4943C21.3669 29.4943 21.6636 29.791 21.6636 30.1558V31.4808H20.3406V30.1558C20.3406 29.791 20.6373 29.4943 21.0021 29.4943ZM23.3173 29.4943C23.6821 29.4943 23.9788 29.791 23.9788 30.1558V31.4808H22.6558V30.1558C22.6558 29.791 22.9525 29.4943 23.3173 29.4943ZM25.6325 29.4943C25.9973 29.4943 26.294 29.791 26.294 30.1558V31.4808H24.971V30.1558C24.971 29.791 25.2677 29.4943 25.6325 29.4943Z" fill="#252B37"/>
</g>
<defs>
<clipPath id="clip0_2675_19021">
<rect width="33.0744" height="33.0744" fill="white"/>
</clipPath>
</defs>
</svg>
