<svg width="34" height="34" viewBox="0 0 34 34" fill="none" xmlns="http://www.w3.org/2000/svg">
<g clip-path="url(#clip0_2675_18990)">
<mask id="mask0_2675_18990" style="mask-type:luminance" maskUnits="userSpaceOnUse" x="0" y="0" width="34" height="34">
<path d="M33.0746 0H0.000183105V33.0744H33.0746V0Z" fill="white"/>
</mask>
<g mask="url(#mask0_2675_18990)">
<path d="M27.8921 24.4841V23.4207H27.3537V18.2013L27.7938 18.182V16.652H27.1158V15.1476H26.8639C25.9063 15.1476 24.9485 15.1436 23.9908 15.1515C23.9268 15.1623 23.861 15.1478 23.8076 15.111C23.7541 15.0742 23.717 15.018 23.7041 14.9544C22.8627 12.5244 22.0185 10.0951 21.1716 7.66648C21.1199 7.51426 21.093 7.35476 21.0914 7.19402C21.0841 6.26543 21.0878 5.33666 21.0878 4.40808V3.71582H20.7801V4.20309H12.391V3.75063H12.0791C12.0791 4.86304 12.0791 5.97546 12.0727 7.08787C12.0717 7.23471 12.0472 7.38045 12.0002 7.51957C11.153 9.99977 10.3038 12.4791 9.45271 14.9577C9.44189 15.0182 9.40787 15.0722 9.3579 15.1081C9.30792 15.144 9.2459 15.159 9.18504 15.15C8.12878 15.1426 7.07251 15.1461 6.01625 15.1461H5.77146V16.6046H5.21381V18.1445H5.76223V23.4268H5.21592V24.4946H5.76607V28.9203H5.23457C5.2363 29.0054 5.23823 29.0983 5.23996 29.1958H27.85C27.85 29.1033 27.8494 29.0099 27.8484 28.9154H27.3615V24.4841H27.8921ZM23.8085 15.4597H26.8118V16.5943H23.8085V15.4597ZM27.4979 16.9789V17.8847H22.6961V16.9789H27.4979ZM27.0321 18.1988V20.9885H26.3134V18.1993L27.0321 18.1988ZM25.9926 18.1999V20.9809H24.3289V18.2005L25.9926 18.1999ZM20.21 23.1538C20.1517 23.1728 20.1019 23.2115 20.0688 23.2632C20.0359 23.3149 20.0219 23.3763 20.0292 23.4372C20.0427 23.9003 20.034 24.3637 20.034 24.8409H13.2286V23.3007L9.36234 21.3585L9.37407 21.3222H23.8484C23.7405 21.3818 23.683 21.416 23.6232 21.446C22.4861 22.0165 21.3485 22.5859 20.21 23.1538ZM20.3271 23.5899H21.7885V24.8408H20.3271V23.5899ZM9.1312 20.9785V18.1636H9.84961V20.9785H9.1312ZM11.9525 17.3179C11.9835 16.9989 12.0118 16.7069 12.041 16.4068H21.4193C21.4508 16.7104 21.4816 17.0075 21.5135 17.3179H11.9525ZM20.5261 17.6548V20.9753H19.8281V17.6546L20.5261 17.6548ZM15.1523 18.4124V20.9891H13.738V17.6326H19.4839V20.9857H18.3226V18.4122L15.1523 18.4124ZM17.9953 18.7095V20.9593H15.4546V18.7095H17.9953ZM12.6957 17.7015H13.4157V20.9626H12.6957V17.7015ZM23.2878 20.9732V18.2041H23.9903V20.9732H23.2878ZM12.4029 4.53595H20.7753V7.27747L12.4029 7.19767V4.53595ZM9.76269 14.9625C10.5976 12.5311 11.4319 10.0994 12.2656 7.66744C12.2761 7.60689 12.3101 7.55295 12.3602 7.51736C12.4103 7.48175 12.4724 7.46734 12.5331 7.47727C15.229 7.51572 17.925 7.54995 20.6211 7.57995C20.7509 7.58149 20.8326 7.5963 20.8853 7.74686C21.7212 10.1632 22.5619 12.5778 23.4074 14.9907C23.423 15.0359 23.4342 15.0826 23.4522 15.1459H20.7822V12.9203H20.2363V11.182L19.6991 11.1524V9.66921L19.3529 9.64999V8.43239H13.8995V9.64249L13.5341 9.67402V11.1524H13.0149V12.9074H12.386V15.1413H9.71308C9.73 15.078 9.74269 15.0192 9.76211 14.9625H9.76269ZM15.5196 13.8176V15.1382H12.6934V13.2416H20.4569V15.1426H17.6302V13.8176H15.5196ZM17.306 14.1071V15.1373H15.8253V14.1071H17.306ZM19.3887 9.96977V11.068H13.8549V9.96977H19.3887ZM14.205 9.63191V8.71236H19.0316V9.63191H14.205ZM19.6875 11.457C19.9098 11.456 19.9638 11.5231 19.9521 11.7312C19.935 12.0327 19.9398 12.3361 19.951 12.638C19.9567 12.7974 19.9027 12.8401 19.7464 12.8396C18.4018 12.834 17.0573 12.8363 15.7128 12.8363H13.3243V11.4625H13.563C15.6044 11.4625 17.6457 11.4662 19.6869 11.457H19.6875ZM9.68539 15.4682H23.4743V16.6481H22.4067V18.1849H22.9525V20.9834H20.8815V17.6307H21.8602C21.8047 17.1044 21.752 16.6068 21.6981 16.0964H11.7668C11.7154 16.5933 11.6639 17.0923 11.6093 17.6201H12.3706V20.9882H10.1767V18.1505H10.6036V16.6045H9.68481L9.68539 15.4682ZM6.07355 15.4586H9.32772V16.5762H6.07297L6.07355 15.4586ZM5.52513 17.8238V16.9212H10.3169V17.8249L5.52513 17.8238ZM8.80834 18.1545V20.9862H7.13174V18.1553L8.80834 18.1545ZM6.80907 18.1518V20.9039H6.08739V18.1518H6.80907ZM5.52359 24.1666V23.7268H10.084V24.1666H5.52359ZM9.33215 28.3041C9.35041 28.4982 9.33618 28.6953 9.33618 28.9041H6.0922V24.4923H10.3803V23.4259H6.09797V21.3766C6.95983 21.3766 7.80438 21.3754 8.64912 21.3791C8.71891 21.3827 8.787 21.4018 8.84853 21.4349C10.0109 22.0179 11.1724 22.6027 12.3331 23.1891C12.363 23.2095 12.3916 23.2318 12.4186 23.2559H10.9143V25.1475H12.7011C12.605 25.2371 12.5538 25.2869 12.5002 25.3332C11.509 26.188 10.5167 27.0416 9.52348 27.8944C9.45758 27.9388 9.40497 28.0003 9.37128 28.0724C9.33759 28.1445 9.32407 28.2243 9.33215 28.3034V28.3041ZM12.8938 23.5864V24.844H11.2085V23.5864H12.8938ZM10.3184 28.2649C10.3276 28.4736 10.3207 28.683 10.3207 28.9041H9.63809C9.63809 28.6839 9.63328 28.4747 9.64193 28.2661C9.65139 28.2124 9.68002 28.164 9.7225 28.1297C10.7513 27.2352 11.7813 26.3422 12.8127 25.4507C12.8342 25.4369 12.8571 25.4251 12.8809 25.4155V26.3962C12.5892 26.3962 12.2965 26.4089 12.0056 26.392C11.7981 26.3799 11.7302 26.4514 11.7504 26.6531C11.7666 26.8121 11.7537 26.9742 11.7537 27.1613H10.9049V28.0609C10.764 28.0609 10.6457 28.0674 10.5286 28.0592C10.3751 28.049 10.3115 28.1072 10.3184 28.2649ZM22.2715 28.8391C22.2687 28.8629 22.1525 28.8872 22.0887 28.8876C21.5255 28.8912 20.9622 28.8897 20.399 28.8897C17.2167 28.8897 14.0345 28.8908 10.8524 28.8933C10.6828 28.8933 10.6011 28.8601 10.6197 28.6755C10.6351 28.5226 10.5697 28.3366 10.8449 28.3572C10.9626 28.3661 11.0814 28.3666 11.2014 28.3655C11.2014 28.1797 11.2014 27.9326 11.2034 27.7748C11.1988 27.7359 11.1965 27.6971 11.1964 27.658C11.1889 27.525 11.2185 27.4452 11.378 27.4465C11.6008 27.4488 11.8237 27.4481 12.0466 27.4488C12.0466 27.341 12.0466 27.2373 12.0466 27.2215C12.0466 27.2058 12.0466 27.086 12.0466 26.9696C12.0466 26.9675 12.0466 26.9658 12.0466 26.9635C12.0466 26.8419 12.0485 26.7237 12.0506 26.7237C12.0596 26.7237 12.0685 26.726 12.0773 26.727V26.7256C12.1469 26.7225 12.2214 26.7164 12.2958 26.7164H13.2236C13.2224 26.6485 13.2213 26.5931 13.2213 26.5818C13.2213 26.5477 13.2136 26.1891 13.2213 26.1032C13.2201 25.9632 13.2195 25.7884 13.2199 25.6397H13.2149V25.2186H20.01V25.6276H19.9985C19.9994 25.7122 20.0004 25.8328 20.0008 25.9589H20.0181V26.3753H20.0125C20.0115 26.5001 20.0077 26.6356 20.0077 26.6558C20.0077 26.6618 20.0077 26.6806 20.0077 26.7043H20.9161V27.1352H20.9045C20.9086 27.2473 20.9143 27.3756 20.9182 27.4932H21.103C21.4628 27.4932 21.4068 27.4577 21.4107 27.7898C21.4107 27.8651 21.4107 27.9407 21.4107 28.0417H21.4072C21.4058 28.1493 21.4041 28.2628 21.4024 28.363H22.0041C22.095 28.363 22.2529 28.3822 22.264 28.4239C22.2923 28.5607 22.295 28.7014 22.2715 28.8391ZM23.5984 28.9045H22.5931C22.5931 28.6768 22.5867 28.4603 22.5954 28.2443C22.6008 28.1051 22.546 28.0563 22.411 28.0599C22.1881 28.0661 21.965 28.0617 21.7187 28.0617C21.7187 27.8323 21.7064 27.6294 21.7224 27.4286C21.7383 27.2279 21.6587 27.1606 21.4695 27.185C21.3962 27.1896 21.3226 27.19 21.2493 27.1863C21.2493 26.9779 21.2439 26.7839 21.251 26.5902C21.2564 26.4447 21.1993 26.3893 21.0528 26.3947C20.822 26.4031 20.5899 26.397 20.3413 26.397V25.3959C20.408 25.4472 20.4628 25.4846 20.5125 25.528C21.4755 26.3712 22.4354 27.2185 23.4032 28.0547C23.4738 28.1045 23.5295 28.1728 23.5641 28.252C23.5988 28.3311 23.6111 28.4182 23.5997 28.5039C23.5918 28.6374 23.5914 28.771 23.5984 28.9045ZM27.0271 28.9006H23.9057C23.9057 28.7197 23.8922 28.5322 23.9093 28.3476C23.9174 28.2653 23.9035 28.1822 23.8687 28.107C23.8341 28.0321 23.7799 27.9674 23.712 27.9203C22.7061 27.0504 21.7068 26.1728 20.7057 25.2975C20.6688 25.2653 20.6336 25.2311 20.5671 25.1694H22.0977V23.2709H20.7201C20.8144 23.2084 20.8547 23.1759 20.8984 23.1534C22.0281 22.5832 23.1582 22.0142 24.2887 21.4462C24.3489 21.4102 24.416 21.3877 24.4858 21.3806C25.3292 21.3762 26.1724 21.3777 27.0287 21.3777V23.4134H22.7406V24.4825H27.0287L27.0271 28.9006ZM23.0367 24.1683V23.7308H27.5869V24.1683H23.0367Z" fill="#252B37" stroke="#252B37" stroke-width="0.192293" stroke-miterlimit="10"/>
<path d="M11.0568 28.1699H21.4407" stroke="#252B37" stroke-width="0.576879" stroke-miterlimit="10"/>
<path d="M11.6337 27.209H20.8637" stroke="#252B37" stroke-width="0.576879" stroke-miterlimit="10"/>
<path d="M13.2682 26.0557H20.1907" stroke="#252B37" stroke-width="0.576879" stroke-miterlimit="10"/>
<path d="M21.2307 9.70215V9.97732H20.2608V9.70215H21.2307Z" fill="#252B37" stroke="#252B37" stroke-width="0.192293" stroke-miterlimit="10"/>
<path d="M12.0146 9.70117H12.9744V9.97692H12.0146V9.70117Z" fill="#252B37" stroke="#252B37" stroke-width="0.192293" stroke-miterlimit="10"/>
<path d="M19.9985 11.4852V11.1523H22.306V11.4852H19.9985Z" fill="#252B37" stroke="#252B37" stroke-width="0.192293" stroke-miterlimit="10"/>
<path d="M13.2146 8.41797V8.68449H12.2449V8.41797H13.2146Z" fill="#252B37" stroke="#252B37" stroke-width="0.192293" stroke-miterlimit="10"/>
<path d="M20.9995 8.41992V8.68452H20.0336V8.41992H20.9995Z" fill="#252B37" stroke="#252B37" stroke-width="0.192293" stroke-miterlimit="10"/>
<path d="M13.0759 11.21V11.4792H10.8613V11.21H13.0759Z" fill="#252B37" stroke="#252B37" stroke-width="0.192293" stroke-miterlimit="10"/>
<path d="M6.81464 22.8322H6.53485V22.0322H6.81464V22.8322Z" fill="#252B37" stroke="#252B37" stroke-width="0.192293" stroke-miterlimit="10"/>
<path d="M7.2785 22.829C7.2689 22.5952 7.27248 22.3612 7.28926 22.1277C7.2958 22.071 7.4356 22.0297 7.5602 21.9531V22.829H7.2785Z" fill="#252B37" stroke="#252B37" stroke-width="0.192293" stroke-miterlimit="10"/>
<path d="M8.31975 22.0283V22.8315H8.04785V22.0283H8.31975Z" fill="#252B37" stroke="#252B37" stroke-width="0.192293" stroke-miterlimit="10"/>
<path d="M25.7865 22.0322V22.8295H25.5048V22.0322H25.7865Z" fill="#252B37" stroke="#252B37" stroke-width="0.192293" stroke-miterlimit="10"/>
<path d="M25.0283 22.8323H24.7574V22.0264H25.0283V22.8323Z" fill="#252B37" stroke="#252B37" stroke-width="0.192293" stroke-miterlimit="10"/>
<path d="M26.262 22.8315V22.0273H26.5337V22.8315H26.262Z" fill="#252B37" stroke="#252B37" stroke-width="0.192293" stroke-miterlimit="10"/>
<path d="M14.1608 6.77507V6.50586H18.5522V6.77507H14.1608Z" fill="#252B37" stroke="#252B37" stroke-width="0.192293" stroke-miterlimit="10"/>
<path d="M19.0912 5.19141H19.3557V5.99673H19.0912V5.19141Z" fill="#252B37" stroke="#252B37" stroke-width="0.192293" stroke-miterlimit="10"/>
<path d="M17.5807 5.19434H17.85V5.99735H17.5807V5.19434Z" fill="#252B37" stroke="#252B37" stroke-width="0.192293" stroke-miterlimit="10"/>
<path d="M16.0653 5.19434H16.3345V5.99389H16.0653V5.19434Z" fill="#252B37" stroke="#252B37" stroke-width="0.192293" stroke-miterlimit="10"/>
<path d="M14.8173 5.99848H14.5466V5.19238H14.8173V5.99848Z" fill="#252B37" stroke="#252B37" stroke-width="0.192293" stroke-miterlimit="10"/>
<path d="M13.4714 5.99848H13.2006V5.19238H13.4714V5.99848Z" fill="#252B37" stroke="#252B37" stroke-width="0.192293" stroke-miterlimit="10"/>
</g>
</g>
<defs>
<clipPath id="clip0_2675_18990">
<rect width="33.0744" height="33.0744" fill="white"/>
</clipPath>
</defs>
</svg>
