<svg width="34" height="34" viewBox="0 0 34 34" fill="none" xmlns="http://www.w3.org/2000/svg">
<g clip-path="url(#clip0_2675_19066)">
<mask id="mask0_2675_19066" style="mask-type:luminance" maskUnits="userSpaceOnUse" x="0" y="3" width="34" height="28">
<path d="M33.0744 3.0127H-6.10352e-05V30.0021H33.0744V3.0127Z" fill="white"/>
</mask>
<g mask="url(#mask0_2675_19066)">
<path d="M17.2896 19.6926C17.1436 16.8717 14.8094 14.6299 11.9525 14.6299C9.09567 14.6299 6.76147 16.8717 6.61542 19.6926" stroke="#252B37" stroke-width="0.523951" stroke-linecap="round" stroke-linejoin="round"/>
<path d="M11.9526 12.3783V11.7646" stroke="#252B37" stroke-width="0.523951" stroke-linecap="round" stroke-linejoin="round"/>
<path d="M15.7507 13.3961L16.0578 12.8643" stroke="#252B37" stroke-width="0.523951" stroke-linecap="round" stroke-linejoin="round"/>
<path d="M18.5314 16.1763L19.0632 15.8691" stroke="#252B37" stroke-width="0.523951" stroke-linecap="round" stroke-linejoin="round"/>
<path d="M5.3744 16.1763L4.84259 15.8691" stroke="#252B37" stroke-width="0.523951" stroke-linecap="round" stroke-linejoin="round"/>
<path d="M8.15464 13.3961L7.84747 12.8643" stroke="#252B37" stroke-width="0.523951" stroke-linecap="round" stroke-linejoin="round"/>
<path d="M4.26423 29.7393H0.261902" stroke="#252B37" stroke-width="0.523951" stroke-linecap="round" stroke-linejoin="round"/>
<path d="M32.8123 29.7393H6.55585" stroke="#252B37" stroke-width="0.523951" stroke-linecap="round" stroke-linejoin="round"/>
<path d="M27.827 19.6924H0.261902" stroke="#252B37" stroke-width="0.523951" stroke-linecap="round" stroke-linejoin="round"/>
<path d="M32.8124 19.6924H30.845" stroke="#252B37" stroke-width="0.523951" stroke-linecap="round" stroke-linejoin="round"/>
<path d="M6.70134 8.97273C6.52188 8.75725 6.25532 8.63281 5.97501 8.63281C5.66784 8.63281 5.37967 8.78148 5.20218 9.03233C5.15634 9.09716 5.05875 9.09716 5.0129 9.03233C4.84197 8.79065 4.56034 8.63281 4.24073 8.63281C3.94863 8.63281 3.68796 8.76511 3.5144 8.97273" stroke="#252B37" stroke-width="0.523951" stroke-linecap="round" stroke-linejoin="round"/>
<path d="M14.759 3.61433C14.5796 3.39885 14.313 3.27441 14.0327 3.27441C13.7137 3.27441 13.4315 3.43225 13.2599 3.67393C13.214 3.73877 13.1164 3.73877 13.0706 3.67393C12.8996 3.43225 12.618 3.27441 12.2984 3.27441C12.0063 3.27441 11.7456 3.40671 11.5721 3.61433" stroke="#252B37" stroke-width="0.523951" stroke-linecap="round" stroke-linejoin="round"/>
<path d="M25.7586 11.2041C27.9605 14.3858 28.457 18.0358 27.4326 21.501" stroke="#252B37" stroke-width="0.523951" stroke-linecap="round" stroke-linejoin="round"/>
<path d="M27.1688 10.3896C30.3753 13.906 31.68 18.5469 30.3151 22.6429" stroke="#252B37" stroke-width="0.523951" stroke-linecap="round" stroke-linejoin="round"/>
<path d="M20.0889 26.5986C20.6141 25.2618 21.9148 24.3154 23.4376 24.3154C23.4808 24.3154 23.524 24.3168 23.5672 24.3181C24.0342 24.3331 24.4946 24.2408 24.9105 24.0391" stroke="#252B37" stroke-width="0.523951" stroke-linecap="round" stroke-linejoin="round"/>
<path d="M28.2678 22.6841C28.6522 22.6245 29.0471 22.5938 29.4486 22.5938C30.655 22.5938 31.7966 22.8728 32.8124 23.3692" stroke="#252B37" stroke-width="0.523951" stroke-linecap="round" stroke-linejoin="round"/>
<path d="M32.8125 26.5996H18.4837" stroke="#252B37" stroke-width="0.523951" stroke-linecap="round" stroke-linejoin="round"/>
<path d="M22.2685 5.06934C21.6882 5.08374 21.1099 5.21735 20.5846 5.47278C20.4543 5.53631 20.4661 5.72689 20.6023 5.77601C21.719 6.18011 22.7119 6.90185 23.471 7.8168" stroke="#252B37" stroke-width="0.523951" stroke-linecap="round" stroke-linejoin="round"/>
<path d="M24.4704 5.64648C24.7042 5.79057 24.923 5.96216 25.1208 6.15929C25.2308 6.26932 25.3336 6.38657 25.4279 6.50969" stroke="#252B37" stroke-width="0.523951" stroke-linecap="round" stroke-linejoin="round"/>
<path d="M22.6649 10.4416L19.3908 9.69429C19.2815 9.66875 19.2251 9.5463 19.2782 9.44806C20.0025 8.10871 21.5534 7.3588 23.1102 7.71378C24.1188 7.94432 24.9244 8.59205 25.3855 9.43299" stroke="#252B37" stroke-width="0.523951" stroke-linecap="round" stroke-linejoin="round"/>
<path d="M28.0568 7.32807L29.0464 4.11952C29.0798 4.01211 29.0019 3.90208 28.8899 3.89881C27.3678 3.85624 25.9427 4.82424 25.4724 6.35025C25.1672 7.33855 25.3251 8.3596 25.8228 9.18024" stroke="#252B37" stroke-width="0.523951" stroke-linecap="round" stroke-linejoin="round"/>
<path d="M27.0948 10.4081L27.1055 10.4146L27.1084 10.4053" stroke="#252B37" stroke-width="0.523951" stroke-linecap="round" stroke-linejoin="round"/>
<path d="M22.6202 10.4865C23.3602 9.71952 24.3669 9.3672 25.3526 9.43204C25.5563 9.44579 25.7488 9.3351 25.8385 9.15172C26.2747 8.26559 27.0836 7.57004 28.1177 7.31265C29.6346 6.93541 31.1658 7.61654 31.934 8.88778C32.0166 9.02466 31.9419 9.20281 31.7867 9.24145L26.3474 10.5958L22.4551 14.6289C22.3444 14.7442 22.1525 14.72 22.0753 14.5798C21.3581 13.2791 21.5343 11.6116 22.6195 10.4871L22.6202 10.4865Z" stroke="#252B37" stroke-width="0.523951" stroke-linecap="round" stroke-linejoin="round"/>
<path d="M26.4699 21.2295C27.4844 21.2295 28.3077 22.0521 28.3077 23.0673C28.3077 24.0824 27.4851 24.905 26.4699 24.905C25.4547 24.905 24.6321 24.0824 24.6321 23.0673C24.6321 22.0521 25.4547 21.2295 26.4699 21.2295Z" stroke="#252B37" stroke-width="0.523951" stroke-linecap="round" stroke-linejoin="round"/>
<path d="M15.3825 21.9912H8.52264" stroke="#252B37" stroke-width="0.523951" stroke-linecap="round" stroke-linejoin="round"/>
<path d="M14.1264 23.8701H9.77887" stroke="#252B37" stroke-width="0.523951" stroke-linecap="round" stroke-linejoin="round"/>
<path d="M12.8701 25.75H11.0349" stroke="#252B37" stroke-width="0.523951" stroke-linecap="round" stroke-linejoin="round"/>
</g>
</g>
<defs>
<clipPath id="clip0_2675_19066">
<rect width="33.0744" height="33.0744" fill="white"/>
</clipPath>
</defs>
</svg>
