<svg width="34" height="34" viewBox="0 0 34 34" fill="none" xmlns="http://www.w3.org/2000/svg">
<g clip-path="url(#clip0_2675_19102)">
<mask id="mask0_2675_19102" style="mask-type:luminance" maskUnits="userSpaceOnUse" x="-1" y="0" width="35" height="34">
<path d="M33.0742 0H-0.000183105V33.0744H33.0742V0Z" fill="white"/>
</mask>
<g mask="url(#mask0_2675_19102)">
<path d="M7.27386 29.2194L7.28021 26.9627C7.28021 26.9062 7.28021 26.8496 7.28021 26.7794C7.34886 26.776 7.40443 26.771 7.4602 26.771C8.85971 26.771 10.2592 26.771 11.6587 26.771C11.9018 26.771 11.8774 26.7985 11.8774 26.5595C11.8774 22.7538 11.8769 18.9482 11.876 15.1424C11.88 15.0668 11.8649 14.9914 11.8322 14.923C11.6259 14.5671 11.4985 14.171 11.4587 13.7616C11.4189 13.3522 11.4676 12.9389 11.6014 12.5499C11.8368 11.8693 12.1739 11.2283 12.6013 10.6487C13.6685 9.11153 15.0572 7.82471 16.6711 6.87749C17.8177 6.18875 19.0328 5.62099 20.2967 5.18339C20.3511 5.17299 20.3994 5.14185 20.4311 5.09657C20.463 5.0513 20.4761 4.9954 20.4675 4.94071C20.4615 3.97733 20.4642 3.01394 20.4644 2.05055C20.4644 2.01209 20.4678 1.97479 20.4703 1.92383H20.9203V4.96206L21.6341 4.74746C22.2225 6.2111 22.3781 7.81298 22.0823 9.36249C22.3481 9.45114 22.6015 9.53421 22.854 9.62094C22.9077 9.64172 22.9592 9.66747 23.0078 9.69785C23.4074 9.92611 23.4817 10.3032 23.1459 10.6191C22.8921 10.8362 22.6186 11.0293 22.3292 11.196C22.2791 11.2183 22.2366 11.2553 22.2079 11.3021C22.1791 11.3489 22.165 11.4034 22.1677 11.4583C22.1721 15.2115 22.1733 18.9646 22.1712 22.7176V22.8938H25.6473C25.6525 22.9549 25.6588 22.9963 25.6588 23.0376C25.6588 25.0603 25.6588 27.0831 25.6588 29.106C25.6588 29.1445 25.6538 29.1829 25.6511 29.2214L7.27386 29.2194ZM18.8965 7.81415C18.8457 7.82598 18.7956 7.84063 18.7465 7.85799C18.5267 7.95299 18.3028 8.04048 18.0894 8.14797C17.0084 8.69853 15.9761 9.34002 15.0039 10.0655C14.0812 10.7302 13.3363 11.6118 12.835 12.6324C12.5063 13.2901 12.3347 14.0151 12.3335 14.7504C12.3458 18.3214 12.3391 21.8925 12.3391 25.4636C12.3391 25.497 12.3417 25.5309 12.3391 25.5641C12.3314 25.6463 12.3693 25.6745 12.4485 25.6724C12.5825 25.6657 12.7168 25.6663 12.8507 25.6738C12.9813 25.6841 13.0132 25.632 13.0119 25.509C13.0063 24.9771 13.0096 24.445 13.0096 23.9129V23.7279H14.1726V22.4252H15.3925V19.47H16.6318C16.6347 19.4123 16.6386 19.3692 16.6389 19.3269C16.642 18.7712 16.6508 18.2153 16.6435 17.6596C16.6414 17.5076 16.6895 17.475 16.8301 17.4801C17.1125 17.4905 17.3956 17.4832 17.6785 17.4832H17.9779V17.3102C17.9779 17.0217 17.9829 16.7348 17.976 16.4473C17.9733 16.3379 18.0098 16.3083 18.1155 16.31C18.4653 16.3156 18.8153 16.3087 19.1651 16.3143C19.271 16.316 19.3074 16.285 19.3054 16.1764C19.2993 15.8553 19.3072 15.5339 19.3012 15.213C19.2993 15.1074 19.3285 15.0696 19.4381 15.0723C19.7256 15.0788 20.0133 15.0749 20.3007 15.0742C20.3513 15.0742 20.4017 15.0684 20.4488 15.0655C20.4555 15.0472 20.4603 15.0283 20.4632 15.009C20.4642 13.5135 20.4653 12.0179 20.4663 10.5224C20.4663 10.4263 20.4194 10.4118 20.3402 10.4168C20.1106 10.4313 19.881 10.443 19.6514 10.4553C19.4043 10.468 19.1572 10.4795 18.8968 10.492L18.8965 7.81415ZM22.1827 23.3737V28.7439H25.1921V25.8501H23.4038V25.3945H23.5701C24.0685 25.3945 24.567 25.3945 25.0652 25.3945C25.1229 25.3945 25.2019 25.4167 25.2029 25.3176C25.2048 25.094 25.2029 24.8702 25.2029 24.63H25.0146C24.521 24.63 24.0274 24.6319 23.534 24.6265C23.487 24.6265 23.4045 24.5835 23.4005 24.5525C23.3903 24.424 23.388 24.2952 23.394 24.1666H23.7662C24.2024 24.1666 24.6385 24.1683 25.0738 24.1631C25.1167 24.1631 25.1952 24.1198 25.1961 24.0941C25.2058 23.8566 25.2019 23.6185 25.2019 23.3751L22.1827 23.3737ZM21.7118 28.7479V28.5605C21.7118 22.9105 21.7141 17.2605 21.7185 11.6104C21.7343 11.4946 21.7151 11.3767 21.6629 11.2721C21.6106 11.1675 21.5283 11.081 21.4262 11.0239C21.2559 10.911 21.0924 10.7878 20.937 10.6551V28.7479H21.7118ZM19.3029 28.7468V28.5218C19.3029 24.6921 19.3029 20.8624 19.3029 17.0325C19.3029 16.9892 19.2993 16.9458 19.3029 16.9031C19.3127 16.806 19.2783 16.7654 19.1745 16.7685C18.9832 16.7756 18.7909 16.7787 18.5997 16.7685C18.4749 16.7615 18.4334 16.7956 18.4361 16.9258C18.4444 17.3184 18.4392 17.7113 18.4392 18.1039C18.4392 21.5981 18.4392 25.0923 18.4392 28.5866C18.4392 28.6376 18.4442 28.6887 18.4471 28.7468H19.3029ZM20.465 28.7468V28.5668C20.465 24.3208 20.465 20.0748 20.465 15.8287C20.465 15.7664 20.4613 15.7039 20.465 15.642C20.4703 15.5597 20.4342 15.5324 20.3548 15.5347C20.2063 15.5386 20.0571 15.5438 19.9092 15.5332C19.7837 15.5243 19.7581 15.5757 19.7598 15.6899C19.7658 16.097 19.7623 16.5041 19.7623 16.9112C19.7623 20.8024 19.7623 24.6936 19.7623 28.5851C19.7623 28.6364 19.7669 28.6878 19.7696 28.7468H20.465ZM17.1172 17.9565V28.7441H17.965V17.9565H17.1172ZM11.9222 13.7602C11.9474 13.7362 11.953 13.7335 11.9539 13.7297C11.9743 13.656 11.9939 13.5822 12.0143 13.5085C12.421 12.092 13.265 10.8402 14.4256 9.93187C15.2626 9.2741 16.1498 8.68305 17.0793 8.16412C17.5948 7.84901 18.1411 7.5873 18.7097 7.38303C18.9146 7.29802 19.1385 7.26954 19.3581 7.30054V7.96106H20.4515V5.62201C20.3854 5.64355 20.3361 5.65816 20.2869 5.67604C19.286 6.03698 18.316 6.47833 17.3864 6.99575C15.6602 7.96856 14.1616 9.20001 13.0306 10.8455C12.6494 11.3688 12.3343 11.9372 12.0922 12.5376C11.9424 12.9267 11.8843 13.3451 11.9222 13.7602ZM15.8513 28.7545C16.0705 28.7545 16.2711 28.7435 16.4699 28.7579C16.6224 28.7691 16.6503 28.713 16.6501 28.5722C16.6462 25.7837 16.6453 22.9955 16.6472 20.2074C16.6472 20.1548 16.6432 20.1017 16.6482 20.0494C16.6568 19.9588 16.6151 19.934 16.5307 19.9352C16.3438 19.9392 16.1567 19.9405 15.9701 19.9352C15.8726 19.9321 15.8463 19.9709 15.8499 20.0619C15.8567 20.2246 15.8551 20.3876 15.8551 20.5505C15.854 23.2097 15.8527 25.8689 15.8513 28.528V28.7545ZM11.8683 27.2417H7.74943V28.7453H11.8681L11.8683 27.2417ZM14.6306 28.7435H15.3757V22.8863C15.1669 22.8863 14.9706 22.8924 14.7746 22.884C14.6606 22.879 14.6268 22.9163 14.6283 23.0299C14.6341 23.4655 14.6306 23.9012 14.6306 24.3375V28.7441V28.7435ZM14.1626 28.7458V24.1993H13.4784V28.7458H14.1626ZM21.7581 8.28585C21.8124 7.28008 21.6749 6.27317 21.353 5.31876C21.2386 5.35038 21.1261 5.38791 21.0155 5.43125C20.9928 5.4432 20.9732 5.46019 20.958 5.48092C20.9428 5.50165 20.9326 5.52557 20.9282 5.55086C20.9232 6.34567 20.9232 7.14099 20.9282 7.93683C20.9292 7.9585 20.9351 7.97966 20.9457 7.9986C20.9563 8.01754 20.9713 8.03373 20.9892 8.04586C21.2355 8.12836 21.4866 8.2022 21.7574 8.28508L21.7581 8.28585ZM21.7128 8.75543C21.3628 8.6252 21.0032 8.52169 20.6374 8.44583C20.2413 8.41382 19.8435 8.41049 19.447 8.43583C19.4172 8.43583 19.3625 8.47775 19.3622 8.50083C19.3564 8.791 19.3583 9.08117 19.3583 9.38345C19.4504 9.37596 19.521 9.36711 19.5919 9.36423C20.175 9.345 20.7578 9.32 21.3418 9.31519C21.6135 9.31308 21.6141 9.33211 21.6651 9.05406C21.6804 8.96099 21.6939 8.86599 21.712 8.75466L21.7128 8.75543ZM12.9904 28.7479C12.9977 28.7306 13.003 28.7126 13.0063 28.6941C13.0075 27.8713 13.0094 27.0487 13.0044 26.2258C13.0044 26.1941 12.9398 26.1389 12.9019 26.1356C12.7688 26.1243 12.6339 26.1381 12.5006 26.1289C12.3787 26.1203 12.3348 26.1545 12.336 26.286C12.3423 27.0562 12.3389 27.8263 12.3396 28.5964C12.3396 28.6466 12.3456 28.6968 12.3487 28.7479H12.9904ZM20.6705 9.74516C20.27 9.77689 19.8692 9.80612 19.4695 9.844C19.4295 9.84784 19.3945 9.90399 19.3574 9.93591C19.3958 9.95726 19.436 9.99879 19.4741 9.99725C19.8515 9.98226 20.2292 9.96399 20.6061 9.93764C20.6553 9.93224 20.7051 9.93676 20.7524 9.95091C20.7999 9.96508 20.844 9.98862 20.882 10.0201C21.2087 10.2782 21.5385 10.5322 21.8716 10.7822C21.9123 10.813 21.9908 10.8507 22.0185 10.833C22.2916 10.6595 22.5598 10.4788 22.8234 10.2909C22.914 10.2259 22.8834 10.1478 22.7881 10.1042C22.6644 10.0422 22.5367 9.98826 22.406 9.94284C21.8399 9.79454 21.2555 9.72824 20.6705 9.74593V9.74516Z" fill="#252B37" stroke="#252B37" stroke-width="0.0903777" stroke-miterlimit="10"/>
</g>
</g>
<defs>
<clipPath id="clip0_2675_19102">
<rect width="33.0744" height="33.0744" fill="white"/>
</clipPath>
</defs>
</svg>
