<svg width="34" height="34" viewBox="0 0 34 34" fill="none" xmlns="http://www.w3.org/2000/svg">
<g clip-path="url(#clip0_2675_19112)">
<mask id="mask0_2675_19112" style="mask-type:luminance" maskUnits="userSpaceOnUse" x="0" y="0" width="34" height="34">
<path d="M33.0744 0H0V33.0744H33.0744V0Z" fill="white"/>
</mask>
<g mask="url(#mask0_2675_19112)">
<path d="M29.1323 15.6709H3.74963V28.9391H29.1323V15.6709Z" stroke="#252B37" stroke-width="0.576879" stroke-miterlimit="10" stroke-linecap="round"/>
<path d="M9.71072 15.6709H3.74963V28.9391H9.71072V15.6709Z" stroke="#252B37" stroke-width="0.576879" stroke-miterlimit="10" stroke-linecap="round"/>
<path d="M29.1324 15.6709H23.7482V28.9391H29.1324V15.6709Z" stroke="#252B37" stroke-width="0.576879" stroke-miterlimit="10" stroke-linecap="round"/>
<path d="M20.0945 15.6709H13.172V28.9391H20.0945V15.6709Z" stroke="#252B37" stroke-width="0.576879" stroke-miterlimit="10" stroke-linecap="round"/>
<path d="M20.0945 17.21H13.172V19.5175H20.0945V17.21Z" stroke="#252B37" stroke-width="0.576879" stroke-miterlimit="10" stroke-linecap="round"/>
<path d="M23.7482 17.21H20.0947V22.0173H23.7482V17.21Z" stroke="#252B37" stroke-width="0.576879" stroke-miterlimit="10" stroke-linecap="round"/>
<path d="M29.1324 17.21H23.7482V22.0173H29.1324V17.21Z" stroke="#252B37" stroke-width="0.576879" stroke-miterlimit="10" stroke-linecap="round"/>
<path d="M29.1324 22.0186H23.7482V23.9415H29.1324V22.0186Z" stroke="#252B37" stroke-width="0.576879" stroke-miterlimit="10" stroke-linecap="round"/>
<path d="M9.71069 22.0173H12.7874V17.21H9.71069V22.0173Z" stroke="#252B37" stroke-width="0.576879" stroke-miterlimit="10" stroke-linecap="round"/>
<path d="M3.74963 22.0173H9.61457V17.21H3.74963V22.0173Z" stroke="#252B37" stroke-width="0.576879" stroke-miterlimit="10" stroke-linecap="round"/>
<path d="M3.74963 23.9415H9.61457V22.0186H3.74963V23.9415Z" stroke="#252B37" stroke-width="0.576879" stroke-miterlimit="10" stroke-linecap="round"/>
<path d="M18.2503 28.4859V26.3188C18.2503 25.2604 18.0245 24.2332 17.6307 23.5009L16.6451 21.6678L15.6479 23.5223C15.3107 24.1493 15.1173 25.0306 15.1173 25.9402V28.4859H18.2503ZM18.3682 29.0628H14.9996C14.746 29.0628 14.5404 28.8572 14.5404 28.6038V25.9402C14.5404 24.9308 14.756 23.9628 15.1398 23.249L16.2407 21.2017C16.4139 20.8794 16.8762 20.8794 17.0494 21.2017L18.1388 23.2277C18.5795 24.0474 18.8272 25.1594 18.8272 26.3188V28.6038C18.8272 28.8572 18.6216 29.0628 18.3682 29.0628Z" fill="#252B37"/>
<path d="M22.0175 23.748V26.8247" stroke="#252B37" stroke-width="0.576879" stroke-miterlimit="10" stroke-linecap="round"/>
<path d="M11.6337 23.748V26.8247" stroke="#252B37" stroke-width="0.576879" stroke-miterlimit="10" stroke-linecap="round"/>
<path d="M11.4414 18.749V20.4797" stroke="#252B37" stroke-width="0.576879" stroke-miterlimit="10" stroke-linecap="round"/>
<path d="M7.59552 19.3262V20.4799" stroke="#252B37" stroke-width="0.576879" stroke-miterlimit="10" stroke-linecap="round"/>
<path d="M5.86493 19.3262V20.4799" stroke="#252B37" stroke-width="0.576879" stroke-miterlimit="10" stroke-linecap="round"/>
<path d="M21.8252 18.749V20.4797" stroke="#252B37" stroke-width="0.576879" stroke-miterlimit="10" stroke-linecap="round"/>
<path d="M27.4017 19.3262V20.4799" stroke="#252B37" stroke-width="0.576879" stroke-miterlimit="10" stroke-linecap="round"/>
<path d="M25.6711 19.3262V20.4799" stroke="#252B37" stroke-width="0.576879" stroke-miterlimit="10" stroke-linecap="round"/>
<path d="M24.7095 13.9414H8.55688V15.672H24.7095V13.9414Z" stroke="#252B37" stroke-width="0.576879" stroke-miterlimit="10" stroke-linecap="round"/>
<path d="M8.55698 11.4414H5.0957V15.6719H8.55698V11.4414Z" stroke="#252B37" stroke-width="0.576879" stroke-miterlimit="10" stroke-linecap="round"/>
<path d="M9.51836 9.71094H4.13416V11.4416H9.51836V9.71094Z" stroke="#252B37" stroke-width="0.576879" stroke-miterlimit="10" stroke-linecap="round"/>
<path d="M7.98005 9.32618H5.66484C4.89567 8.94159 3.9342 7.78783 5.36102 6.19372C6.56477 4.84767 6.78014 4.08042 6.8186 3.87467C6.82052 3.86698 6.82052 3.85928 6.82244 3.85352C6.82437 3.85928 6.82437 3.86698 6.82629 3.87467C6.86475 4.08042 7.07819 4.84767 8.28387 6.19372C9.71069 7.78783 8.74922 8.94159 7.98005 9.32618Z" stroke="#252B37" stroke-width="0.576879" stroke-miterlimit="10"/>
<path d="M28.1708 11.4414H24.7095V15.6719H28.1708V11.4414Z" stroke="#252B37" stroke-width="0.576879" stroke-miterlimit="10" stroke-linecap="round"/>
<path d="M29.1324 9.71094H23.7482V11.4416H29.1324V9.71094Z" stroke="#252B37" stroke-width="0.576879" stroke-miterlimit="10" stroke-linecap="round"/>
<path d="M27.5939 9.32618H25.2787C24.5096 8.94159 23.5481 7.78783 24.9749 6.19372C26.1787 4.84767 26.394 4.08042 26.4325 3.87467C26.4344 3.86698 26.4344 3.85928 26.4363 3.85352C26.4383 3.85928 26.4383 3.86698 26.4402 3.87467C26.4786 4.08042 26.6921 4.84767 27.8978 6.19372C29.3246 7.78783 28.3631 8.94159 27.5939 9.32618Z" stroke="#252B37" stroke-width="0.576879" stroke-miterlimit="10"/>
</g>
</g>
<defs>
<clipPath id="clip0_2675_19112">
<rect width="33.0744" height="33.0744" fill="white"/>
</clipPath>
</defs>
</svg>
