<svg width="34" height="34" viewBox="0 0 34 34" fill="none" xmlns="http://www.w3.org/2000/svg">
<g clip-path="url(#clip0_2675_19148)">
<mask id="mask0_2675_19148" style="mask-type:luminance" maskUnits="userSpaceOnUse" x="0" y="0" width="34" height="34">
<path d="M33.0746 0H0.000183105V33.0744H33.0746V0Z" fill="white"/>
</mask>
<g mask="url(#mask0_2675_19148)">
<path d="M4.58118 29.2791L4.56329 28.9124H5.30728V26.3164H4.5831V25.8549H5.28689V23.6551H4.57868V23.1955H5.29132V20.8993H4.57656V20.4488H5.28285V18.0284L4.58039 17.9957V17.5588H5.29189V14.9775H4.58291V14.5265H5.28978V12.1421H4.57829V11.6862H5.3117V10.0225L4.90786 9.98688V8.90773H5.96973C6.07549 8.11414 6.26432 7.85628 6.70236 7.86935C7.12098 7.88262 7.30828 8.15298 7.38712 8.88447H8.44933V9.98573L8.05899 10.019V10.8555H9.09391C9.21252 10.5731 9.35353 10.3007 9.51561 10.0409C9.57424 9.99171 9.64227 9.95494 9.71556 9.93283C9.78884 9.91072 9.86585 9.90372 9.94192 9.91227C10.3509 9.92458 10.5417 10.2094 10.5967 10.852H14.0433V9.90977H13.4605V8.80678H13.9768C13.9903 8.30682 14.088 7.85416 14.6485 7.83608C15.2486 7.81686 15.3861 8.26971 15.3802 8.82351L15.4786 8.78967C15.4786 8.54892 15.4855 8.30893 15.4769 8.06761C15.4622 7.92604 15.4858 7.78315 15.5452 7.65381C15.6047 7.52449 15.6978 7.41352 15.8147 7.33247C15.8874 7.2543 15.9265 7.15073 15.9236 7.04403C15.9309 6.49965 15.9209 5.95507 15.9199 5.40954C15.9199 5.27782 15.9315 5.1461 15.9392 4.99707H17.8761V6.56926H16.3641C16.3641 6.78424 16.3553 6.96423 16.3689 7.1421C16.3733 7.17698 16.3846 7.21065 16.4021 7.24111C16.4197 7.27157 16.4432 7.29818 16.4712 7.31939C16.6003 7.39981 16.7038 7.5153 16.7696 7.65237C16.8354 7.78942 16.8608 7.94238 16.8429 8.09337C16.8322 8.32218 16.8442 8.55149 16.8787 8.77794C16.9472 8.23548 17.0927 7.78609 17.7236 7.8332C18.094 7.8607 18.2605 8.12164 18.3511 8.79467H18.8391V9.89708H18.2742V10.8641H21.6201C21.723 10.5885 21.8508 10.323 22.0024 10.0709C22.0622 10.0161 22.1322 9.97371 22.2085 9.94633C22.2848 9.91895 22.366 9.90712 22.4469 9.9115C22.8525 9.90631 23.0482 10.1892 23.1319 10.8551H24.2255V10.023L23.8316 9.98977V8.91177H24.9029C24.9029 8.3622 25.0017 7.89935 25.6107 7.87474C26.0217 7.85839 26.1707 8.08472 26.3199 8.89793H27.3796V9.98611L26.982 10.0196V11.6625H27.72V12.1308H26.9843V14.506H27.7221V14.9629H26.9854V17.545H27.7225V18.0017H26.9852V20.4351H27.7254V20.8876H26.986V23.1874H27.7206V23.6395H26.9899V25.8509H27.7281V26.3039H26.9822V28.9095H27.7365V29.2791H4.58118ZM17.9404 28.8872H20.3298V23.6708H11.9585V28.8876H14.2468V28.5574C14.2468 27.8698 14.2445 27.1821 14.2468 26.4947C14.251 25.4913 15.0038 24.6358 15.9276 24.5798C16.1694 24.5592 16.4129 24.5869 16.644 24.6612C16.8751 24.7354 17.0892 24.8546 17.2738 25.0121C17.4585 25.1696 17.6101 25.3621 17.72 25.5784C17.8298 25.7949 17.8956 26.0309 17.9136 26.273C17.9694 26.9173 17.9354 27.5704 17.9404 28.2195C17.9419 28.4374 17.9409 28.6555 17.9409 28.8872H17.9404ZM20.3358 14.9963H11.9652V17.5377H20.3358V14.9963ZM20.3358 20.9234H11.9681V23.1732H20.3358V20.9234ZM26.5232 26.3268H20.8105V28.8685H26.5232V26.3268ZM5.78012 28.8699H11.4858V26.3293H5.78012V28.8699ZM17.9823 20.4305C17.9823 20.0602 17.9682 19.7173 17.9877 19.3764C17.9912 19.1687 18.0328 18.9635 18.1103 18.7708C18.198 18.5961 18.3429 18.4567 18.5209 18.3759C18.699 18.2952 18.8994 18.2781 19.0885 18.3274C19.2801 18.3779 19.45 18.4896 19.5723 18.6455C19.6946 18.8013 19.7627 18.9929 19.7662 19.191C19.7775 19.5981 19.7687 20.0059 19.7687 20.4182H20.3288V18.0322H11.967V20.4234H12.5163C12.5163 20.2163 12.5133 20.0271 12.5163 19.8381C12.5095 19.581 12.5191 19.3235 12.545 19.0675C12.5723 18.8557 12.6759 18.6611 12.8364 18.5203C12.9969 18.3794 13.2033 18.302 13.4169 18.3025C13.6305 18.303 13.8365 18.3814 13.9964 18.523C14.1562 18.6646 14.259 18.8596 14.2852 19.0716C14.3113 19.3946 14.3197 19.719 14.3104 20.043C14.3126 20.1711 14.3104 20.2994 14.3104 20.4299L17.9823 20.4305ZM17.9852 14.5025C17.9852 14.0647 17.9738 13.6645 17.988 13.2653C17.9808 13.0574 18.046 12.8534 18.1724 12.6882C18.2989 12.523 18.4788 12.4068 18.6815 12.3596C19.2753 12.2402 19.7556 12.6409 19.7681 13.2759C19.7762 13.6816 19.7696 14.0875 19.7696 14.5004H20.3313V12.1525H11.9598V14.4931H12.5163V13.9004C12.5163 13.6999 12.5113 13.4993 12.5175 13.2989C12.5336 12.7809 12.8444 12.4027 13.2932 12.3461C13.8509 12.2759 14.2914 12.6703 14.3085 13.2707C14.3201 13.6766 14.3106 14.0831 14.3106 14.5013L17.9852 14.5025ZM17.4754 28.8904C17.4754 27.9951 17.5256 27.1165 17.4602 26.2478C17.4408 26.0691 17.3864 25.8961 17.3 25.7386C17.2136 25.5811 17.0969 25.4421 16.9567 25.3298C16.8165 25.2173 16.6555 25.1338 16.483 25.0838C16.3104 25.0338 16.1296 25.0182 15.9511 25.0382C15.6011 25.0836 15.2795 25.2546 15.0461 25.5194C14.8126 25.784 14.6833 26.1245 14.682 26.4774C14.6741 27.1354 14.6802 27.7938 14.6802 28.452V28.8904H17.4754ZM11.4937 14.9946H8.05166V17.5359H11.4937V14.9946ZM20.8019 14.9913V17.5323H24.2283V14.9907L20.8019 14.9913ZM8.0557 20.9128V23.1701H11.4908V20.9122L8.0557 20.9128ZM20.8082 20.9128V23.1753H24.2235V20.9116L20.8082 20.9128ZM8.05918 18.0309V20.4255H11.4933V18.0297L8.05918 18.0309ZM20.8132 18.0309V20.4182H24.236V18.0305L20.8132 18.0309ZM11.4951 12.1546H8.05303V14.4967H11.4951V12.1546ZM20.8021 12.1471V14.4917H24.2285V12.1467L20.8021 12.1471ZM8.56241 25.8393V24.8177H8.99565V25.8272H9.64137V24.8186H10.07V25.8313H10.7155V24.8121H11.153V25.8313H11.492V23.6737H8.05707V25.8388L8.56241 25.8393ZM23.9074 25.8295H24.2289V23.6662H20.8119V25.8351H21.3311V24.8219H21.7691V25.8245H22.4171V24.8233H22.8484V25.8326H23.4709V24.819H23.9059L23.9074 25.8295ZM26.5226 17.5369V14.993H24.6941V17.5367L26.5226 17.5369ZM7.58787 14.9963H5.79551V17.5396H7.58787V14.9963ZM24.6922 20.4161H26.5234V18.0317H24.6922V20.4161ZM24.705 12.1452V14.5002H26.5147V12.1448L24.705 12.1452ZM5.78801 20.4261H7.57808V18.0322H5.78801V20.4261ZM5.78937 12.1519V14.495H7.58826V12.1525L5.78937 12.1519ZM26.5155 23.1772V20.9237H24.7002V23.1772H26.5155ZM5.78626 23.1772H7.5846V20.9216H5.78626V23.1772ZM24.6933 25.8168H26.5118V23.6708H24.6933V25.8168ZM7.58345 25.8309V23.6657H5.80147V25.8318L7.58345 25.8309ZM17.8021 9.93996H14.5229V10.8549H17.8021V9.93996ZM26.5207 10.0275H24.7004V11.6619H26.5207V10.0275ZM7.58864 10.0275H5.78243V11.6575H7.58864V10.0275ZM8.04514 11.6537H14.0689L14.051 11.3556H8.04514V11.6537ZM24.2345 11.3479H18.2734V11.6619H24.2345V11.3479ZM19.3322 14.5004C19.3322 14.0572 19.3427 13.6493 19.3283 13.2424C19.3312 13.1288 19.2893 13.0186 19.212 12.9354C19.1346 12.8521 19.0276 12.8025 18.9141 12.7971C18.6815 12.7915 18.4719 12.8984 18.4526 13.1455C18.419 13.5926 18.4432 14.0445 18.4432 14.5004H19.3322ZM13.8726 14.4977C13.8726 14.0579 13.8851 13.6487 13.8682 13.2407C13.8682 13.182 13.8567 13.1238 13.8342 13.0696C13.8117 13.0153 13.7787 12.9661 13.7371 12.9246C13.6956 12.8832 13.6462 12.8503 13.5919 12.828C13.5376 12.8057 13.4794 12.7943 13.4207 12.7946C13.362 12.7926 13.3035 12.8024 13.2486 12.8234C13.1937 12.8443 13.1436 12.8759 13.101 12.9165C13.0585 12.957 13.0245 13.0056 13.001 13.0594C12.9775 13.1132 12.9649 13.1712 12.964 13.2299C12.9432 13.6455 12.9584 14.0629 12.9584 14.4977H13.8726ZM12.9555 20.4028H13.8759C13.8759 19.994 13.8851 19.6225 13.873 19.2519C13.8792 19.1291 13.8365 19.0087 13.7543 18.9172C13.6721 18.8257 13.557 18.7703 13.4342 18.7633C13.3734 18.7615 13.3129 18.7718 13.2561 18.7934C13.1994 18.8152 13.1474 18.8479 13.1034 18.8898C13.0593 18.9316 13.024 18.9818 12.9995 19.0374C12.9749 19.093 12.9616 19.1529 12.9603 19.2137C12.9413 19.6115 12.955 20.0098 12.955 20.404L12.9555 20.4028ZM19.327 20.4234C19.327 19.9921 19.3452 19.5756 19.3201 19.1618C19.3162 19.0523 19.2689 18.9489 19.1888 18.8742C19.1087 18.7996 19.0022 18.7597 18.8928 18.7635C18.8414 18.7561 18.7891 18.7591 18.739 18.7723C18.6888 18.7856 18.6418 18.8088 18.6009 18.8406C18.5599 18.8724 18.5258 18.9121 18.5005 18.9575C18.4752 19.0028 18.4593 19.0527 18.4538 19.1043C18.4215 19.5427 18.4444 19.9854 18.4444 20.4234H19.327ZM14.5168 11.6621H17.7971V11.3516H14.5162L14.5168 11.6621ZM16.132 9.44423C16.8231 9.44423 17.5142 9.44635 18.2053 9.44096C18.2764 9.42768 18.3449 9.40272 18.4078 9.36712C18.3394 9.33097 18.2711 9.26348 18.2025 9.26309C16.8385 9.25694 15.4744 9.25694 14.1105 9.26309C14.0378 9.26309 13.9651 9.32405 13.8924 9.35655C13.9607 9.39712 14.0354 9.42566 14.1133 9.44096C14.785 9.44846 15.458 9.44558 16.1309 9.44539L16.132 9.44423ZM17.4514 5.43742C17.12 5.43742 16.8143 5.43165 16.5091 5.44357C16.4784 5.45329 16.4507 5.47061 16.4285 5.49396C16.4063 5.5173 16.3904 5.54587 16.3822 5.57703C16.3664 5.75009 16.3762 5.92681 16.3762 6.09622H17.4512L17.4514 5.43742ZM24.243 9.47288C24.2739 9.49211 24.3018 9.52673 24.3299 9.52692C25.1656 9.53076 26.0013 9.53288 26.837 9.52903C26.8808 9.52903 26.9247 9.47519 26.992 9.43116C26.6437 9.29271 24.3756 9.33289 24.2418 9.47404L24.243 9.47288ZM5.33881 9.38135L5.3292 9.48961C5.40594 9.51098 5.48445 9.52532 5.56379 9.53249C6.30893 9.53576 7.05407 9.53711 7.7992 9.53076C7.87775 9.51536 7.95309 9.48656 8.02188 9.44558C7.95446 9.40372 7.8802 9.37405 7.80247 9.35789C7.05733 9.35116 6.3122 9.35289 5.56706 9.35462C5.49013 9.35939 5.41352 9.3687 5.33768 9.38251L5.33881 9.38135ZM16.4047 8.79274C16.4175 8.51753 16.4137 8.2418 16.3934 7.96704C16.3757 7.9111 16.3446 7.86031 16.3028 7.81914C16.261 7.77799 16.2098 7.74769 16.1536 7.7309C16.0893 7.7184 15.937 7.85858 15.9282 7.94242C15.91 8.22542 15.9063 8.50919 15.9172 8.79255L16.4047 8.79274ZM6.98523 8.88178C6.93584 8.70742 6.87262 8.53728 6.7962 8.37297C6.77582 8.33605 6.58141 8.34047 6.56007 8.38066C6.48857 8.54261 6.43069 8.71023 6.387 8.88178H6.98523ZM25.9069 8.88485C25.8567 8.70833 25.7923 8.53613 25.7146 8.36989C25.6953 8.33393 25.4952 8.34335 25.4742 8.38527C25.4077 8.54709 25.3554 8.71438 25.3177 8.88524L25.9069 8.88485ZM17.9371 8.78871C17.8909 8.62847 17.8275 8.47373 17.7479 8.3272C17.7064 8.30876 17.6609 8.30124 17.6157 8.30543C17.5705 8.30961 17.5272 8.32532 17.4898 8.35105C17.427 8.49052 17.3818 8.63727 17.3552 8.78794L17.9371 8.78871ZM22.715 10.8603C22.6748 10.7077 22.6194 10.5595 22.5494 10.418C22.5148 10.3961 22.4752 10.3836 22.4344 10.3815C22.3937 10.3794 22.3529 10.388 22.3164 10.4063C22.2354 10.5509 22.1679 10.7027 22.1148 10.8597L22.715 10.8603ZM10.2071 10.8651C10.1487 10.7046 10.0759 10.5498 9.98961 10.4024C9.96404 10.3663 9.78271 10.3832 9.75886 10.4282C9.6976 10.5686 9.6512 10.715 9.62041 10.8651H10.2071ZM14.9685 8.78505C14.9312 8.62956 14.8761 8.4789 14.8042 8.33605C14.7639 8.3157 14.719 8.30607 14.6739 8.30807C14.6288 8.31005 14.5849 8.32359 14.5466 8.34739C14.4813 8.4869 14.4335 8.63389 14.4041 8.78505H14.9685Z" fill="#252B37"/>
<path d="M19.1371 25.0938H19.5287V25.9014H19.1371V25.0938Z" fill="#252B37"/>
<path d="M12.6384 25.9121V25.1045H13.0384V25.9121H12.6384Z" fill="#252B37"/>
<path d="M19.1331 16.806V15.9922H19.5331V16.806H19.1331Z" fill="#252B37"/>
<path d="M13.0451 15.999V16.8117H12.6444V15.999H13.0451Z" fill="#252B37"/>
<path d="M19.535 21.6318V22.4395H19.1362V21.6318H19.535Z" fill="#252B37"/>
<path d="M12.6404 21.6191H13.0401V22.436H12.6404V21.6191Z" fill="#252B37"/>
</g>
</g>
<defs>
<clipPath id="clip0_2675_19148">
<rect width="33.0744" height="33.0744" fill="white"/>
</clipPath>
</defs>
</svg>
