<svg width="34" height="34" viewBox="0 0 34 34" fill="none" xmlns="http://www.w3.org/2000/svg">
<g clip-path="url(#clip0_2675_19164)">
<mask id="mask0_2675_19164" style="mask-type:luminance" maskUnits="userSpaceOnUse" x="0" y="0" width="34" height="34">
<path d="M33.0744 0H0V33.0744H33.0744V0Z" fill="white"/>
</mask>
<g mask="url(#mask0_2675_19164)">
<path d="M2.49988 29.5094V28.7979H3.68094V28.3608C3.68094 24.4207 3.68133 20.4806 3.6821 16.5407C3.67788 16.3807 3.68831 16.2206 3.71325 16.0625C3.88497 15.1449 4.65029 14.6697 5.55176 14.9135C5.62695 14.9339 5.70175 14.9558 5.82213 14.9905C5.72983 14.2753 5.79847 13.64 6.43881 13.2021C7.04953 12.7851 7.6741 12.7866 8.36905 13.1177V12.0345H10.7V11.1442C10.6921 10.742 10.8391 10.3521 11.1107 10.0553C11.3823 9.75843 11.7576 9.57743 12.159 9.54972C12.5436 9.53351 12.9247 9.62866 13.2566 9.82374C13.5633 10.0369 13.9346 10.1368 14.3069 10.1064C14.4526 10.0954 14.5999 10.1047 14.7384 10.1047C14.9851 9.01918 15.7043 8.425 16.6453 8.50057C17.0578 8.53732 17.4444 8.71686 17.7386 9.00824C18.0328 9.29962 18.2161 9.68454 18.2568 10.0966C18.7544 10.0456 19.2425 10.2295 19.7357 9.83854C20.5672 9.17917 21.8934 9.59222 22.3011 10.5814C22.3476 10.7452 22.3649 10.9159 22.3526 11.0858C22.3601 11.3817 22.3547 11.6778 22.3547 12.0157H24.7615V13.1118C25.4456 12.7901 26.0721 12.7849 26.6844 13.1931C27.319 13.6161 27.4507 14.2315 27.3382 14.9647C27.548 14.9262 27.6991 14.8878 27.8526 14.8701C28.0485 14.8377 28.2493 14.848 28.441 14.9003C28.6325 14.9526 28.8108 15.0457 28.9631 15.1731C29.1156 15.3006 29.2386 15.4594 29.324 15.6388C29.4094 15.8181 29.4549 16.0138 29.4578 16.2125C29.4653 16.3381 29.4632 16.4644 29.4632 16.5903C29.4632 20.5075 29.4632 24.4247 29.4632 28.3418V28.7811H30.9593V29.5088L2.49988 29.5094ZM22.3774 12.786V23.6165H24.0119V12.786H22.3774ZM9.13399 12.7772V23.6079H10.6698V12.7772H9.13399ZM5.80405 23.6194V23.3846C5.80405 21.071 5.80361 18.757 5.8027 16.4429C5.80486 16.3402 5.79342 16.2377 5.76867 16.1381C5.64022 15.675 5.23236 15.465 4.81278 15.6548C4.48223 15.8046 4.42627 16.1071 4.42627 16.4325C4.42742 18.7346 4.42789 21.0367 4.42762 23.3391C4.42762 23.4275 4.43954 23.516 4.44685 23.6187L5.80405 23.6194ZM28.7062 23.6154C28.7148 23.5087 28.7285 23.4202 28.7285 23.3319C28.7296 21.044 28.7296 18.7562 28.7285 16.4684C28.7296 16.3541 28.719 16.24 28.6965 16.1279C28.6748 15.9727 28.5956 15.8313 28.4744 15.7318C28.3533 15.6324 28.1993 15.5821 28.0427 15.591C27.8866 15.587 27.7343 15.6403 27.6145 15.7408C27.4949 15.8412 27.4161 15.982 27.393 16.1365C27.3676 16.283 27.3559 16.4315 27.3578 16.5801C27.3557 18.8223 27.3557 21.0644 27.3578 23.3064C27.3578 23.4054 27.3726 23.5042 27.3815 23.6154H28.7062ZM14.773 23.6175V10.8685H14.0486V23.6175H14.773ZM18.261 10.8579V23.6069H19.0371V23.1341C19.0371 19.2626 19.0361 15.3906 19.034 11.518C19.0319 10.7752 19.1852 10.8206 18.26 10.8579H18.261ZM5.78809 24.4034H4.45338V28.7665H5.78809V24.4034ZM17.4912 23.6235V21.164C17.5059 20.9246 17.4308 20.6881 17.2807 20.501C17.1307 20.3137 16.9163 20.1891 16.6794 20.1512C16.2021 20.0305 15.4556 20.5037 15.5064 21.0912C15.5693 21.8072 15.5204 22.5333 15.5224 23.255C15.5224 23.3748 15.5352 23.4946 15.5427 23.6235H17.4912ZM28.7058 24.3959H27.3757V28.7561H28.7058V24.3959ZM17.4912 12.5876C17.4912 11.7501 17.4912 10.985 17.4912 10.2199C17.5013 10.0091 17.4385 9.80141 17.3134 9.63154C17.1883 9.46167 17.0086 9.34002 16.8044 9.28705C16.6594 9.23711 16.5047 9.22234 16.3529 9.24397C16.2011 9.26561 16.0567 9.32302 15.9315 9.41146C15.8062 9.49992 15.7038 9.61687 15.6327 9.75267C15.5616 9.88848 15.5237 10.0393 15.5224 10.1926C15.5216 10.8207 15.5216 11.4492 15.5224 12.0782V12.5868C15.8173 12.4012 16.1588 12.3027 16.5073 12.3029C16.8558 12.303 17.1972 12.4017 17.492 12.5876H17.4912ZM17.4912 19.6874C17.4912 18.8859 17.4912 18.1441 17.4912 17.4024C17.4969 17.1636 17.415 16.931 17.261 16.7484C17.107 16.5659 16.8915 16.4459 16.6552 16.4113C16.1412 16.3152 15.4449 16.7903 15.5083 17.3787C15.5446 17.9716 15.5492 18.566 15.5222 19.1594V19.6711C15.8211 19.4949 16.1624 19.4034 16.5094 19.4063C16.8563 19.4092 17.196 19.5063 17.492 19.6874H17.4912ZM15.5414 28.7606H17.4643V25.9089H15.5414V28.7606ZM22.377 25.9014V28.759H24.0067V25.9014H22.377ZM24.7999 25.9041V28.7648H26.5963V25.9035L24.7999 25.9041ZM19.787 28.7585H21.583V25.9179H19.787V28.7585ZM13.2564 28.7729V25.9156H11.468V28.7729H13.2564ZM10.6702 28.7717V25.9098H9.13399V28.7717H10.6702ZM26.62 16.8342C26.62 16.0133 26.6209 15.2491 26.62 14.4847C26.6056 14.2458 26.5 14.0216 26.325 13.8582C26.15 13.6949 25.9193 13.6049 25.6799 13.6067C25.446 13.6055 25.2208 13.6955 25.0524 13.8577C24.8841 14.0199 24.7855 14.2414 24.778 14.4751C24.7772 15.0349 24.7772 15.5948 24.778 16.1546V16.8192C25.0587 16.6573 25.3774 16.5734 25.7014 16.576C26.0254 16.5787 26.3427 16.6678 26.6207 16.8342H26.62ZM13.2844 23.6221C13.2844 22.9106 13.2618 22.2376 13.2925 21.5673C13.3069 21.3844 13.2616 21.2017 13.1635 21.0465C13.0654 20.8916 12.9196 20.7725 12.7481 20.7071C12.5844 20.6216 12.398 20.5893 12.2149 20.6148C12.0319 20.6402 11.8614 20.7221 11.7273 20.8492C11.6312 20.9202 11.5543 21.0138 11.5035 21.1219C11.4527 21.23 11.4295 21.349 11.4361 21.4682C11.4534 22.1834 11.4421 22.8991 11.4421 23.6219L13.2844 23.6221ZM21.6107 23.6194C21.6107 22.9216 21.6107 22.2499 21.6107 21.5784C21.6252 21.3506 21.5529 21.1256 21.4086 20.9487C21.2644 20.7716 21.0587 20.6556 20.8325 20.6237C20.4095 20.5412 19.802 20.8679 19.7843 21.2515C19.7484 22.0345 19.7736 22.8203 19.7736 23.6194H21.6107ZM8.34251 28.7704V25.91H6.56842V28.771L8.34251 28.7704ZM17.4901 15.9531C17.4901 15.1874 17.4912 14.489 17.4882 13.7907C17.4887 13.723 17.4735 13.656 17.4439 13.595C17.3257 13.3973 17.15 13.2403 16.9402 13.1449C16.7305 13.0494 16.4968 13.0201 16.27 13.0608C16.0446 13.1065 15.8438 13.2334 15.7058 13.4173C15.5678 13.6013 15.5021 13.8296 15.5214 14.0588C15.5214 14.2421 15.5214 14.4254 15.5214 14.6088V15.9473C15.8176 15.7641 16.1592 15.6676 16.5074 15.6687C16.8557 15.6698 17.1966 15.7685 17.4916 15.9537L17.4901 15.9531ZM19.7751 13.381C20.0547 13.2208 20.3718 13.1374 20.6941 13.139C21.0164 13.1406 21.3325 13.2272 21.6105 13.3902C21.6105 12.621 21.6105 11.9122 21.6105 11.2031C21.6259 11.009 21.5736 10.8156 21.4629 10.6556C21.3521 10.4956 21.1894 10.3788 21.0023 10.3249C20.4831 10.131 19.8032 10.4708 19.7836 10.9746C19.7541 11.7599 19.7766 12.5466 19.7766 13.3815L19.7751 13.381ZM13.271 13.3879C13.271 12.5922 13.2808 11.8495 13.2675 11.1065C13.2621 10.9871 13.2324 10.8701 13.1803 10.7626C13.1281 10.655 13.0546 10.5593 12.9642 10.4811C12.8738 10.403 12.7684 10.3441 12.6544 10.3081C12.5405 10.272 12.4204 10.2596 12.3014 10.2716C12.0727 10.274 11.8541 10.3664 11.6931 10.5289C11.5321 10.6914 11.4416 10.9108 11.4413 11.1396C11.4413 11.6315 11.4413 12.1234 11.4413 12.6153V13.3844C11.7198 13.2237 12.0359 13.1394 12.3575 13.1401C12.679 13.1408 12.9947 13.2265 13.2725 13.3885L13.271 13.3879ZM8.3554 16.8196C8.3554 15.9833 8.36405 15.1958 8.35213 14.4086C8.3454 13.9648 7.8987 13.5931 7.42431 13.6058C7.19552 13.606 6.97588 13.6956 6.81215 13.8554C6.64841 14.0152 6.55351 14.2326 6.54765 14.4613C6.54765 15.0216 6.55188 15.5818 6.5538 16.1421C6.5538 16.3507 6.5538 16.5594 6.5538 16.8151C6.8278 16.656 7.1392 16.5726 7.45604 16.5735C7.7729 16.5743 8.08382 16.6595 8.35693 16.8201L8.3554 16.8196ZM26.6194 23.6135C26.6194 22.9443 26.6194 22.2961 26.6194 21.6476C26.6273 21.4425 26.564 21.2408 26.4404 21.0767C26.3165 20.9127 26.14 20.7966 25.9404 20.7479C25.4766 20.6193 24.8099 20.9431 24.7913 21.3548C24.7572 22.1034 24.7816 22.8547 24.7816 23.6131L26.6194 23.6135ZM21.6105 20.133C21.6105 19.383 21.6105 18.6958 21.6105 18.0091C21.6255 17.8149 21.5732 17.6215 21.4627 17.4612C21.3519 17.301 21.1896 17.1836 21.0027 17.1288C20.4874 16.9365 19.7913 17.2857 19.7755 17.7752C19.7515 18.5392 19.7691 19.3044 19.7691 20.1185C20.0505 19.9587 20.3691 19.8761 20.6927 19.8787C21.0162 19.8814 21.3334 19.9695 21.6121 20.1339L21.6105 20.133ZM13.2843 20.1268C13.2843 19.3884 13.2843 18.6946 13.2843 18.0008C13.2936 17.8005 13.234 17.603 13.1155 17.4412C12.9969 17.2794 12.8266 17.1631 12.6328 17.1116C12.1416 16.9559 11.4625 17.3028 11.449 17.7487C11.4259 18.5227 11.4427 19.2978 11.4427 20.1283C12.0667 19.7741 12.6591 19.8174 13.2852 20.1278L13.2843 20.1268ZM8.37309 23.624C8.37309 22.9308 8.37443 22.2703 8.37309 21.6098C8.37268 21.4905 8.34841 21.3727 8.30171 21.2631C8.255 21.1535 8.18679 21.0542 8.10115 20.9715C8.01548 20.8887 7.9141 20.8239 7.80298 20.7808C7.69185 20.7377 7.57322 20.7173 7.45412 20.721C7.33492 20.7141 7.21558 20.7321 7.10378 20.7741C6.99196 20.8158 6.89014 20.8808 6.80486 20.9642C6.71958 21.0479 6.65272 21.1483 6.60855 21.2592C6.56438 21.3702 6.5439 21.4892 6.54842 21.6084C6.54765 22.043 6.54765 22.4776 6.54842 22.9122V23.6237L8.37309 23.624ZM24.7782 20.2318C25.4006 19.8749 25.9937 19.911 26.62 20.2354C26.62 19.5367 26.62 18.8894 26.62 18.2406C26.6207 17.9946 26.5244 17.7582 26.3519 17.5827C26.1794 17.4072 25.9446 17.3069 25.6987 17.3034C25.2907 17.2949 24.792 17.6445 24.7838 17.9852C24.7674 18.7156 24.7791 19.4457 24.7791 20.2328L24.7782 20.2318ZM6.5488 20.2204C6.82684 20.062 7.14149 19.9789 7.4615 19.9797C7.78153 19.9805 8.0958 20.0649 8.37309 20.2247C8.37309 19.5282 8.37309 18.889 8.37309 18.2498C8.3828 18.0209 8.30526 17.7967 8.15614 17.6227C8.00702 17.4487 7.79744 17.3377 7.56969 17.3122C7.11511 17.2407 6.56072 17.6105 6.55284 18.016C6.53976 18.7256 6.54976 19.4347 6.54976 20.2214L6.5488 20.2204ZM21.6111 16.5461C21.6111 15.9692 21.6111 15.3995 21.6111 14.8295C21.6234 14.6016 21.5492 14.3774 21.4034 14.2017C21.2577 14.0261 21.051 13.9119 20.8246 13.8821C20.4028 13.8034 19.803 14.138 19.783 14.5199C19.7482 15.1854 19.7734 15.854 19.7734 16.5317C20.4968 16.3388 20.4508 16.175 21.6121 16.5471L21.6111 16.5461ZM13.2848 16.5955C13.2848 15.9637 13.2848 15.3937 13.2848 14.8237C13.2923 14.5896 13.2106 14.3614 13.0563 14.1852C12.9019 14.009 12.6864 13.898 12.4534 13.8746C12.0597 13.8207 11.4746 14.1469 11.4569 14.4915C11.4221 15.1676 11.4467 15.8467 11.4467 16.5707C11.728 16.4119 12.0464 16.3307 12.3694 16.3352C12.6925 16.3397 13.0085 16.4299 13.2852 16.5965L13.2848 16.5955ZM14.0469 25.9056V28.755H14.7718V25.9066L14.0469 25.9056ZM18.2596 25.9091V28.7585H19.0173V25.91L18.2596 25.9091ZM17.4641 25.1297V24.3955H15.5443V25.1297H17.4641ZM13.2696 24.4015H11.4679V25.1201H13.2696V24.4015ZM24.7982 24.3928V25.1264H26.599V24.3928H24.7982ZM21.5934 25.128V24.4067H19.7899V25.128H21.5934ZM8.35328 24.4015H6.57399V25.1289H8.35328V24.4015ZM24.0231 24.3965H22.3743V25.1228H24.0231V24.3965ZM9.13034 25.1249H10.6752V24.4067H9.13034V25.1249ZM14.0373 25.1268H14.7726V24.398H14.0375L14.0373 25.1268ZM19.0077 25.1301V24.3957H18.2566V25.1301H19.0077Z" fill="#252B37"/>
<path d="M16.194 21.8174H16.8699V22.7788H16.194V21.8174Z" fill="#252B37"/>
<path d="M16.8757 11.3487H16.1956V10.3828H16.8757V11.3487Z" fill="#252B37"/>
<path d="M16.187 26.8613H16.8779V27.8093H16.187V26.8613Z" fill="#252B37"/>
<path d="M26.0655 26.8633V27.8055H25.3479V26.8633H26.0655Z" fill="#252B37"/>
<path d="M21.051 26.8701V27.8108H20.348V26.8701H21.051Z" fill="#252B37"/>
<path d="M12.0098 27.8076V26.8711H12.7224V27.8076H12.0098Z" fill="#252B37"/>
<path d="M26.0638 14.667V15.6242H25.3567V14.667H26.0638Z" fill="#252B37"/>
<path d="M12.0158 21.8174H12.7213V22.769H12.0158V21.8174Z" fill="#252B37"/>
<path d="M21.0518 21.8213V22.7783H20.348V21.8213H21.0518Z" fill="#252B37"/>
<path d="M7.12561 26.8613H7.81902V27.807H7.12561V26.8613Z" fill="#252B37"/>
<path d="M20.3461 11.3643H21.046V12.3282H20.3461V11.3643Z" fill="#252B37"/>
<path d="M12.7222 12.3307H12.0144V11.373H12.7222V12.3307Z" fill="#252B37"/>
<path d="M7.11786 15.6211V14.6641H7.81838V15.6211H7.11786Z" fill="#252B37"/>
<path d="M26.0608 21.8193V22.7787H25.3541V21.8193H26.0608Z" fill="#252B37"/>
<path d="M7.12811 21.8174H7.81595V22.7842H7.12811V21.8174Z" fill="#252B37"/>
</g>
</g>
<defs>
<clipPath id="clip0_2675_19164">
<rect width="33.0744" height="33.0744" fill="white"/>
</clipPath>
</defs>
</svg>
