<svg width="34" height="34" viewBox="0 0 34 34" fill="none" xmlns="http://www.w3.org/2000/svg">
<g clip-path="url(#clip0_2675_19189)">
<mask id="mask0_2675_19189" style="mask-type:luminance" maskUnits="userSpaceOnUse" x="0" y="0" width="34" height="34">
<path d="M33.0744 0H0V33.0744H33.0744V0Z" fill="white"/>
</mask>
<g mask="url(#mask0_2675_19189)">
<path d="M29.8362 28.8555H29.6708C29.5887 28.8555 29.5068 28.8472 29.4273 28.8428V19.312C29.6071 19.2862 29.814 19.306 29.8131 18.9968C29.8121 18.6876 29.6016 18.7163 29.4147 18.6863C29.4147 18.5595 29.4147 18.444 29.4147 18.3284C29.4102 17.6685 29.506 17.4796 28.8483 17.5044C28.8424 17.5044 28.8362 17.4931 28.8014 17.4577V17.2025C28.8014 16.7308 28.8035 16.2591 28.7999 15.7874C28.7949 15.1279 28.638 14.5229 28.2251 14.1103C27.9086 13.7939 27.6675 13.4984 27.7425 12.9409C27.7527 12.8654 27.5867 12.6661 27.5296 12.6819C27.4729 12.7103 27.4229 12.7505 27.3831 12.8C27.3433 12.8494 27.3144 12.9067 27.2988 12.9682C27.2804 13.1331 27.2754 13.2992 27.2837 13.4649C27.2823 13.5539 27.2521 13.6399 27.1977 13.7103C26.4595 14.3016 26.1893 15.1623 26.2418 16.2293C26.2622 16.647 26.2451 17.0677 26.2451 17.5025C26.147 17.5085 26.0786 17.515 26.0099 17.5163C25.683 17.5229 25.6346 17.585 25.6334 18.0021C25.6334 18.2328 25.6334 18.4636 25.6334 18.6964C25.4248 18.703 25.2367 18.7061 25.2309 18.991C25.2246 19.3141 25.4526 19.2795 25.6169 19.3141V20.7055H22.0104C22.0104 20.0937 22.0141 19.5054 22.0104 18.9172C22.005 18.1965 21.7989 17.5654 21.3306 17.1558C21.0157 16.8808 20.8082 16.623 20.8841 16.109C20.9099 15.9338 20.7968 15.7821 20.6563 15.8269C20.6001 15.858 20.5513 15.9007 20.5126 15.9521C20.4742 16.0034 20.4469 16.0623 20.4326 16.1249C20.4151 16.2999 20.4103 16.4759 20.4184 16.6516C20.4134 16.7399 20.3834 16.8249 20.3315 16.8966C20.153 17.1004 19.9627 17.2875 19.7673 17.491C19.6656 17.3227 19.4817 17.1518 19.4579 16.951C19.4279 16.5193 19.4229 16.0863 19.4429 15.654C19.5275 15.6459 19.6035 15.6665 19.6469 15.6286C19.7469 15.5601 19.8225 15.4616 19.8627 15.3473C19.8752 15.2663 19.7423 15.0588 19.6938 15.0688C19.3789 15.1298 19.3669 14.8469 19.3104 14.5971C19.2745 14.4366 19.2335 14.2768 19.1847 14.1222C18.8654 13.1234 18.4011 12.2912 17.5659 11.8741C17.4943 11.8027 17.4538 11.706 17.4532 11.6049C17.4442 11.283 17.4356 10.9351 17.2338 10.7305C16.9469 10.4396 16.9356 10.0815 16.9562 9.68579C16.9617 9.5781 16.9581 9.46965 16.9562 9.36158C16.9527 9.1666 16.8831 9.03353 16.7187 9.03718C16.5543 9.04084 16.4897 9.18179 16.4879 9.37273C16.4852 9.62829 16.5024 9.88596 16.4802 10.1384C16.4578 10.2771 16.4115 10.4109 16.3435 10.5338C16.253 10.7261 16.0584 10.9118 16.0657 11.0901C16.0922 11.7235 15.7528 11.9016 15.4042 12.1679C14.7144 12.695 14.3683 13.5574 14.14 14.501C14.0975 14.6766 14.0631 14.8556 14.0247 15.0346C13.8345 15.0648 13.5882 14.9769 13.5753 15.3263C13.5624 15.6724 13.8101 15.6178 14.015 15.6628C13.9368 16.2955 14.2098 17.0104 13.6572 17.4739C13.6011 17.3972 13.5374 17.3263 13.4672 17.2623C13.2865 17.136 13.1471 16.9591 13.0667 16.7538C12.9862 16.5485 12.9683 16.324 13.0151 16.1086C13.0392 15.9332 12.928 15.7865 12.7844 15.8265C12.73 15.8531 12.6821 15.8912 12.6439 15.9381C12.6057 15.985 12.578 16.0396 12.5629 16.0982C12.5475 16.2631 12.5415 16.4287 12.545 16.5943C12.5368 16.6964 12.4942 16.7926 12.4242 16.8674C11.7389 17.3717 11.4112 18.1126 11.4358 19.1122C11.4487 19.6393 11.4381 20.1673 11.4381 20.7132H7.82302V19.3154C7.99897 19.2849 8.21049 19.3108 8.21683 19.0078C8.22376 18.6809 7.98877 18.7288 7.80975 18.6782C7.80975 18.5403 7.80975 18.4142 7.80975 18.2878C7.80783 17.5085 7.85898 17.5365 7.19806 17.4994C7.19806 16.9145 7.19922 16.3472 7.19806 15.7797C7.19653 15.1056 7.02154 14.5016 6.60407 14.083C6.29813 13.7753 6.07738 13.4868 6.14584 12.9544C6.15603 12.8744 6.00489 12.6963 5.91297 12.6763C5.77548 12.6465 5.69356 12.7946 5.69145 12.98C5.68972 13.1274 5.68106 13.2759 5.6926 13.4222C5.70389 13.4938 5.69466 13.5672 5.66597 13.6338C5.63728 13.7003 5.5903 13.7574 5.5305 13.7984C5.26233 14.013 5.04507 14.2844 4.89439 14.5931C4.74371 14.9017 4.66331 15.24 4.65903 15.5834C4.64307 15.8672 4.65095 16.153 4.64999 16.438C4.64884 16.7887 4.64999 17.1395 4.64999 17.5056C4.55096 17.5113 4.4825 17.5183 4.41405 17.5187C4.08349 17.5212 4.03907 17.5763 4.03734 18.0005C4.03638 18.2313 4.03734 18.462 4.03734 18.6993C3.8339 18.7111 3.64064 18.6959 3.63257 18.9878C3.62334 19.3202 3.85274 19.2779 4.02158 19.3224V28.858H3.57296C3.57296 28.9334 3.57392 29.0089 3.57392 29.0845C3.57392 29.2055 3.57257 29.3266 3.57257 29.4477H3.92024L29.8383 29.4495C29.8367 29.2599 29.8363 29.0595 29.8362 28.8555ZM27.6655 27.7444C27.5396 27.7444 27.4136 27.7444 27.2877 27.7429V27.7556H26.1214V25.5352H28.9289V27.7558H27.759V27.744L27.6655 27.7444ZM27.3758 24.8918C27.3821 24.8918 27.2887 24.8966 27.2373 24.8935H26.118V22.6811H28.9208V24.9019H27.7575V24.8929C27.6309 24.8933 27.5033 24.8931 27.3758 24.8918ZM26.1186 22.0529V19.3126H28.9303V22.0529H26.1186ZM27.4215 14.2458C27.4467 14.2297 27.4759 14.2209 27.5058 14.2204C27.5358 14.2199 27.5652 14.2277 27.5909 14.2429C27.7946 14.3879 27.964 14.5756 28.0874 14.7929C28.2109 15.0102 28.2853 15.2518 28.3057 15.5009H26.7399C26.7929 15.0095 27.0377 14.5589 27.421 14.2468L27.4215 14.2458ZM26.7366 16.128H28.3167V17.4987H27.759C27.759 17.3125 27.7605 17.1308 27.759 16.9493C27.7571 16.7603 27.6959 16.6105 27.5342 16.6031C27.3586 16.5962 27.2915 16.7487 27.289 16.9516C27.2869 17.1268 27.289 17.3017 27.289 17.5052H26.7383L26.7366 16.128ZM26.1095 18.1332H28.9251V18.6809H26.1095V18.1332ZM22.0279 21.3478H25.6226V22.0545H22.0279V21.3478ZM24.0637 23.9982C24.0424 23.9562 24.0099 23.9209 23.9699 23.8961C23.9301 23.8711 23.8841 23.8574 23.837 23.8566C23.7899 23.8557 23.7435 23.8676 23.7028 23.8911C23.662 23.9145 23.6282 23.9486 23.6053 23.9897C23.4305 24.2205 23.2867 24.486 23.1195 24.7256C23.0632 24.8062 22.9786 24.901 22.903 24.9066C22.6171 24.9277 22.3296 24.915 22.0285 24.915V22.6767H25.6115V24.9148C25.2998 24.9148 24.9961 24.9231 24.6948 24.9073C24.6404 24.9044 24.581 24.8112 24.5383 24.745C24.3781 24.4981 24.2354 24.2322 24.0637 23.9982ZM24.0977 24.89H23.5699C23.6626 24.74 23.7297 24.631 23.8212 24.4827L24.0977 24.89ZM22.0221 25.53H25.6161V27.771C25.2963 27.771 24.9788 27.774 24.6614 27.7667C24.6517 27.7656 24.6425 27.7617 24.6352 27.7554H24.5423C24.4054 27.7554 24.2685 27.7548 24.1314 27.7536C24.1387 27.7536 24.1274 27.7536 24.1089 27.7536V27.755H23.9095C23.8576 27.7631 23.8051 27.766 23.7526 27.7636C23.6026 27.7702 23.4484 27.759 23.3013 27.759C23.208 27.759 23.109 27.7529 23.0096 27.7486C22.9732 27.7706 22.9307 27.7808 22.8884 27.7773C22.609 27.7638 22.329 27.7733 22.0214 27.7733L22.0221 25.53ZM20.6276 17.374C20.644 17.3643 20.6624 17.3583 20.6815 17.3565C20.7005 17.3547 20.7197 17.3571 20.7376 17.3637C21.0766 17.4687 21.4814 18.16 21.4847 18.652H19.9094C19.9346 18.4012 20.0115 18.1582 20.1352 17.9385C20.2586 17.7187 20.4263 17.5269 20.6276 17.375V17.374ZM19.9038 19.276H21.5276V22.045H19.9038V19.276ZM21.4781 27.7529C21.4781 27.7511 21.4735 27.7502 21.4712 27.7488H21.0866C20.8328 27.7794 20.5767 27.7821 20.3223 27.7571H19.9063V25.5329H21.5281V27.7498H21.4781V27.7529ZM19.9013 22.6763H21.5233V24.9019H21.3339C21.3287 24.9454 20.5903 24.8956 20.2938 24.8931H20.2632C20.208 24.8931 20.1725 24.8956 20.1717 24.9019C20.1717 24.8989 20.1717 24.896 20.1717 24.8931H19.9023L19.9013 22.6763ZM18.5053 21.6266C18.5036 21.3766 18.5649 21.2997 18.7572 21.3176C18.9651 21.3368 19.1747 21.322 19.4068 21.322V27.7621C19.1316 27.7621 18.8622 27.77 18.5937 27.7515C18.5626 27.7494 18.5145 27.6025 18.5136 27.5219C18.5066 26.9424 18.5097 26.3626 18.5097 25.7828C18.5105 24.3981 18.5155 23.0127 18.5061 21.6274L18.5053 21.6266ZM16.5031 23.0915C16.6517 23.0448 16.8114 23.0471 16.9587 23.0978C17.6175 23.3303 18.0355 24.0484 18.0382 24.9144C18.0399 25.7588 18.0382 26.6032 18.0382 27.4477V27.7542H15.4128C15.4088 27.644 15.4024 27.5485 15.4022 27.4531C15.4007 26.6087 15.4 25.7644 15.4001 24.9198C15.4005 24.0559 15.8411 23.3124 16.5039 23.0923L16.5031 23.0915ZM15.4151 23.2699V21.347H18.0255V23.2634C17.1498 22.1941 16.2891 22.196 15.4159 23.2707L15.4151 23.2699ZM14.0487 20.7125V19.9752H19.3873V20.7125H14.0487ZM16.7408 18.1828C17.041 18.4782 17.0562 18.8578 17.0162 19.2822H16.4602C16.3449 18.8041 16.4364 18.4409 16.7412 18.1834L16.7408 18.1828ZM19.3944 19.3414H17.5179V18.6684H19.3944V19.3414ZM16.7006 10.9359C16.8181 11.0159 16.9056 11.1329 16.9491 11.2682C16.9926 11.4036 16.9897 11.5496 16.9408 11.6831H16.4895C16.4552 11.551 16.4567 11.4122 16.4938 11.2809C16.5309 11.1496 16.6023 11.0305 16.7006 10.9359ZM16.4681 12.2896C17.6661 12.141 18.7649 13.3751 18.8978 15.0325H14.57C14.4856 13.9028 15.5215 12.4069 16.4681 12.2896ZM18.9487 15.6605V16.7345H18.2203V15.6605H18.9487ZM17.7261 16.6012C17.7246 16.6505 17.6567 16.7347 17.6167 16.7374C17.4088 16.7512 17.2 16.7439 16.9662 16.7439V15.66H17.7311C17.7315 15.9811 17.7365 16.2914 17.7265 16.6012H17.7261ZM16.4762 15.659V16.7241H15.7372V15.659H16.4762ZM14.4894 15.6513H15.234V16.7281H14.4894V15.6513ZM14.6733 17.3389C15.0244 17.3279 15.3759 17.335 15.7272 17.335C16.7271 17.335 17.7259 17.3319 18.7251 17.3367C19.1177 17.3387 19.3473 17.5917 19.3762 18.0561C18.7055 18.0561 18.0361 18.0613 17.3671 18.0478C17.3008 18.0465 17.2287 17.9404 17.1715 17.8677C16.8214 17.4208 16.6412 17.4092 16.2974 17.8625C16.2565 17.927 16.1992 17.9795 16.1313 18.0145C16.0635 18.0496 15.9875 18.0659 15.9113 18.0619C15.2959 18.0517 14.6821 18.0578 14.0652 18.0578C14.1052 17.6038 14.3206 17.3498 14.6733 17.3389ZM14.0483 18.6678H15.9362V19.3447H14.0483V18.6678ZM14.0458 21.3397H14.9152V27.7513H14.0458V21.3397ZM12.6828 17.3785C12.7071 17.3685 12.7335 17.3644 12.7596 17.3666C12.7858 17.3687 12.8111 17.3771 12.8334 17.391C13.0297 17.5437 13.1935 17.7342 13.3152 17.9511C13.4369 18.168 13.5141 18.407 13.5422 18.6541H11.9548C11.9675 18.1561 12.3288 17.5246 12.6828 17.3777V17.3785ZM11.9167 19.2801H13.5489V22.0623H11.9167V19.2801ZM11.9141 22.681H13.5522V24.8923H12.9424V24.8681C12.7859 24.8681 12.6125 24.8681 12.4713 24.8681V24.8944H11.9137L11.9141 22.681ZM11.9041 25.7251C11.9066 25.6515 11.9842 25.5213 12.0292 25.52C12.5277 25.5054 13.0263 25.5107 13.5543 25.5107V27.7746C13.4803 27.7746 13.4068 27.7765 13.3341 27.7775V27.7886C13.3311 27.8271 12.1736 27.7665 12.1719 27.7886C12.1719 27.779 12.1731 27.7694 12.1738 27.7598H11.8991V26.8441C11.8983 26.4705 11.8912 26.0968 11.9041 25.7244V25.7251ZM9.86459 23.9809C9.84402 23.9436 9.81392 23.9122 9.77737 23.8903C9.7408 23.8682 9.69907 23.8563 9.6564 23.8557C9.61375 23.8549 9.57165 23.8655 9.53443 23.8864C9.4972 23.9072 9.46614 23.9376 9.44443 23.9743C9.26387 24.2105 9.11177 24.4806 8.93812 24.7256C8.88044 24.806 8.79756 24.9023 8.72218 24.9077C8.42855 24.9289 8.13338 24.9164 7.82436 24.9164V22.6781H11.406V24.916C11.1022 24.916 10.807 24.9264 10.5132 24.9071C10.4555 24.9033 10.3959 24.7918 10.3476 24.7191C10.1851 24.4743 10.0377 24.2112 9.86459 23.9809ZM9.90767 24.891H9.39271L9.64942 24.4772C9.74345 24.6279 9.81152 24.737 9.90767 24.891ZM11.4095 25.5344V27.7738C11.1847 27.7738 10.9495 27.7569 10.7172 27.7788C10.6445 27.79 10.5702 27.7808 10.5024 27.7523C10.4436 27.7523 10.3847 27.7546 10.3261 27.7546C10.1316 27.7725 9.93593 27.7742 9.74114 27.76H9.70499C9.60461 27.7719 9.1858 27.76 9.14599 27.76C9.12003 27.76 8.92409 27.7563 8.7666 27.7542C8.69668 27.7802 8.6215 27.7886 8.54758 27.7788C8.31567 27.7581 8.08165 27.7742 7.82071 27.7742V25.5344H11.4095ZM7.81725 21.3466H11.4087V22.0527H7.81706L7.81725 21.3466ZM5.84721 14.2489C5.87197 14.2323 5.90086 14.223 5.93064 14.2219C5.96043 14.2208 5.98993 14.228 6.01585 14.2427C6.20845 14.3973 6.3684 14.5886 6.48637 14.8055C6.60436 15.0224 6.67803 15.2607 6.7031 15.5063H5.14207C5.16082 15.258 5.23364 15.0167 5.35544 14.7996C5.47725 14.5823 5.64509 14.3944 5.84721 14.2489ZM5.13572 16.1334H6.71253V17.5013H6.16026C6.16026 17.3004 6.16276 17.1168 6.16026 16.9333C6.1568 16.7378 6.07719 16.6064 5.91989 16.6078C5.75894 16.6091 5.69087 16.7464 5.6926 16.9425C5.69414 17.1183 5.6926 17.2939 5.6926 17.4954H5.13688L5.13572 16.1334ZM4.51885 18.1301H7.32632V18.6843H4.51885V18.1301ZM4.52019 19.3177H7.31863V22.0483H4.52058L4.52019 19.3177ZM4.52288 22.6731H7.32152V24.896H6.15949V24.8891C6.02315 24.89 5.8499 24.8906 5.68933 24.8902V24.8944H4.52288V22.6731ZM4.52404 25.5209H7.31979V27.7494H6.4262L6.42466 27.7538C6.40543 27.8 5.90066 27.7596 5.84355 27.7596C5.82432 27.7596 5.74491 27.7554 5.6503 27.7513H5.26687C5.26513 27.7513 5.26283 27.7529 5.26244 27.7538L5.2634 27.7513H4.52404V25.5209ZM28.9328 28.8328H4.52596V28.3849H28.9331L28.9328 28.8328Z" fill="#252B37"/>
<path d="M27.5224 20.2295C27.6283 20.2408 27.7256 20.2933 27.7933 20.3758C27.861 20.4581 27.8937 20.5637 27.8845 20.6698C27.892 20.7245 27.8887 20.7802 27.8747 20.8335C27.8604 20.8869 27.8358 20.9369 27.8024 20.9808C27.7687 21.0246 27.7266 21.0614 27.6787 21.0887C27.6308 21.1162 27.578 21.1338 27.5231 21.1406C27.4172 21.1294 27.3197 21.0771 27.252 20.9948C27.1841 20.9125 27.1514 20.8069 27.1607 20.7008C27.153 20.646 27.1563 20.5902 27.1703 20.5368C27.1843 20.4833 27.2089 20.4331 27.2426 20.3893C27.2762 20.3453 27.3184 20.3085 27.3664 20.2812C27.4145 20.2537 27.4674 20.2362 27.5224 20.2295Z" fill="#252B37"/>
<path d="M6.28945 20.6966C6.29393 20.7512 6.28737 20.8062 6.27016 20.8583C6.25295 20.9104 6.22545 20.9585 6.1893 20.9998C6.15313 21.0412 6.10906 21.0746 6.05966 21.0985C6.01028 21.1225 5.95659 21.1362 5.90179 21.1388C5.7961 21.1187 5.7019 21.0594 5.63802 20.9727C5.57414 20.8862 5.54528 20.7787 5.5572 20.6718C5.55281 20.6172 5.55941 20.5622 5.5766 20.5102C5.59379 20.4581 5.62123 20.4102 5.65729 20.3689C5.69336 20.3278 5.73732 20.2941 5.78656 20.2703C5.83583 20.2462 5.8894 20.2324 5.94409 20.2295C6.04956 20.2503 6.14346 20.3097 6.20736 20.396C6.27126 20.4826 6.30055 20.5897 6.28945 20.6966Z" fill="#252B37"/>
</g>
</g>
<defs>
<clipPath id="clip0_2675_19189">
<rect width="33.0744" height="33.0744" fill="white"/>
</clipPath>
</defs>
</svg>
