<svg width="34" height="34" viewBox="0 0 34 34" fill="none" xmlns="http://www.w3.org/2000/svg">
<g clip-path="url(#clip0_2675_19201)">
<mask id="mask0_2675_19201" style="mask-type:luminance" maskUnits="userSpaceOnUse" x="0" y="0" width="34" height="34">
<path d="M33.0744 0H0V33.0744H33.0744V0Z" fill="white"/>
</mask>
<g mask="url(#mask0_2675_19201)">
<path d="M2.08633 29.3906C2.06206 29.3208 2.04941 29.2474 2.04883 29.1735C2.04994 29.1451 2.05669 29.1172 2.06871 29.0914C2.08075 29.0654 2.09779 29.0424 2.11886 29.0233C2.13992 29.0041 2.16459 28.9893 2.19143 28.9799C2.21828 28.9705 2.24674 28.9664 2.27516 28.968C2.53475 28.9718 2.79437 28.9639 3.05416 28.9714C3.17338 28.9749 3.21278 28.933 3.21182 28.8074C3.2072 28.208 3.20989 27.6084 3.20989 27.0091V19.831C3.20989 19.5873 3.20991 19.5875 2.98108 19.5866C2.88013 19.5866 2.77897 19.59 2.6784 19.5833C2.64576 19.5852 2.61311 19.5798 2.58275 19.5677C2.55241 19.5556 2.5251 19.5369 2.50276 19.5131C2.48043 19.4893 2.46362 19.4608 2.45353 19.4298C2.44345 19.3987 2.44032 19.3658 2.44438 19.3333C2.44053 18.8547 2.44053 18.3762 2.44438 17.8976C2.44591 17.7363 2.54744 17.6465 2.7232 17.6377C2.83848 17.6314 2.95405 17.6314 3.06933 17.6377C3.17874 17.6442 3.21182 17.594 3.21086 17.4861C3.20739 17.1033 3.2097 16.7204 3.2097 16.3376C3.2097 14.9725 3.2097 13.6073 3.2097 12.2417C3.2097 11.8043 3.21124 11.367 3.2097 10.9295C3.20245 10.8724 3.21455 10.8144 3.24406 10.765C3.2736 10.7155 3.31883 10.6774 3.37255 10.6567C3.51466 10.6024 3.65717 10.7118 3.66524 10.8922C3.67428 11.0932 3.67351 11.296 3.66736 11.4964C3.66371 11.6175 3.69926 11.6658 3.82117 11.6668C4.24787 11.6704 4.24751 11.6745 4.24808 11.223C4.24476 11.1075 4.24724 10.992 4.25558 10.8768C4.25566 10.846 4.26185 10.8154 4.27381 10.787C4.28577 10.7585 4.30325 10.7327 4.32525 10.7111C4.34725 10.6895 4.37334 10.6724 4.40198 10.6609C4.43063 10.6494 4.46124 10.6437 4.4921 10.6442C4.62075 10.6522 4.69863 10.743 4.7017 10.9014C4.70555 11.108 4.70588 11.3145 4.70268 11.521C4.70095 11.6229 4.73612 11.6697 4.83727 11.6654C4.95265 11.6606 5.06804 11.6625 5.18342 11.6654C5.26956 11.6672 5.303 11.627 5.30185 11.5372C5.29916 11.3306 5.29916 11.1241 5.30185 10.9176C5.30435 10.749 5.39357 10.6434 5.52664 10.6436C5.65971 10.6438 5.75239 10.7497 5.75739 10.9178C5.76201 11.0991 5.75912 11.2805 5.75951 11.4618C5.75951 11.6645 5.75951 11.665 5.94642 11.6652C6.50407 11.6652 7.06172 11.6614 7.61937 11.6685C7.75397 11.6702 7.80666 11.6339 7.80108 11.4839C7.7907 11.2024 7.80108 10.9201 7.79724 10.6378C7.78078 10.2517 7.89644 9.87158 8.1251 9.56008C8.35377 9.24857 8.68177 9.0243 9.05503 8.92428C9.07833 8.9225 9.101 8.91571 9.12146 8.90442C9.14194 8.89311 9.15975 8.87754 9.17371 8.85877C9.18765 8.84 9.19742 8.81845 9.20232 8.79558C9.20723 8.77272 9.20715 8.74907 9.20213 8.72622C9.19594 8.64086 9.19852 8.5551 9.20982 8.47028C9.211 8.44178 9.21809 8.41384 9.23065 8.38823C9.24321 8.36263 9.26095 8.33993 9.28276 8.32154C9.30457 8.30316 9.32997 8.28952 9.35733 8.28151C9.38469 8.27347 9.41344 8.27122 9.44173 8.27491C9.56864 8.2778 9.63056 8.3574 9.65133 8.48105C9.65269 8.48593 9.65321 8.49099 9.65287 8.49605C9.58518 8.81795 9.76517 8.89986 10.02 8.99601C10.317 9.09979 10.5757 9.29101 10.7621 9.54453C10.9484 9.79805 11.0537 10.102 11.0641 10.4165C11.1014 10.8561 11.0737 11.301 11.0805 11.7445C11.0794 11.7719 11.0839 11.7994 11.0936 11.8251C11.1033 11.8508 11.118 11.8743 11.137 11.8943C11.226 11.9494 11.2985 11.8918 11.2991 11.7739C11.3008 11.366 11.2991 10.958 11.3 10.5499C11.2978 10.1843 11.4153 9.82802 11.6347 9.53555C11.8541 9.24307 12.1633 9.03053 12.515 8.93044C12.6609 8.89448 12.7371 8.83545 12.7126 8.66815C12.7041 8.59771 12.7064 8.52637 12.7194 8.45663C12.7228 8.40415 12.7466 8.3551 12.7855 8.31979C12.8245 8.28449 12.8757 8.2657 12.9282 8.26741C12.954 8.26391 12.9802 8.26557 13.0053 8.27228C13.0304 8.27899 13.054 8.29062 13.0746 8.3065C13.0952 8.32239 13.1124 8.34221 13.1253 8.36481C13.1381 8.38742 13.1464 8.41234 13.1495 8.43817C13.1636 8.53743 13.1693 8.63773 13.1666 8.73795C13.1666 8.82506 13.1882 8.88083 13.2774 8.90159C13.5319 8.96553 13.7705 9.08141 13.9781 9.24195C14.006 9.25334 14.0362 9.25803 14.0662 9.2557C14.0963 9.25336 14.1254 9.24405 14.1512 9.22849C14.7875 8.84535 15.5173 8.64569 16.2601 8.65161C17.0073 8.64586 17.7411 8.85108 18.377 9.24368C18.4114 9.26751 18.4527 9.27922 18.4945 9.27701C18.5363 9.27478 18.5761 9.25872 18.6077 9.23138C18.8071 9.11569 19.014 9.01368 19.2271 8.92602C19.326 8.88525 19.3856 8.84775 19.3725 8.72757C19.3664 8.65719 19.3664 8.58641 19.3725 8.51605C19.371 8.48393 19.376 8.45186 19.3875 8.42184C19.399 8.39183 19.4167 8.36456 19.4394 8.34175C19.4621 8.31897 19.4892 8.30116 19.5192 8.28949C19.549 8.27781 19.5812 8.27253 19.6133 8.27395C19.7479 8.27722 19.8229 8.36106 19.8294 8.51874C19.8342 8.62911 19.8007 8.7668 19.8517 8.84198C19.9027 8.91717 20.0371 8.92409 20.135 8.96101C20.469 9.08573 20.7559 9.31168 20.9553 9.60731C21.1547 9.90294 21.2566 10.2535 21.2472 10.6099C21.2487 10.9874 21.2495 11.3651 21.2458 11.7425C21.2447 11.8502 21.2629 11.911 21.3866 11.9094C21.5102 11.9079 21.5435 11.8616 21.5418 11.7391C21.5362 11.3466 21.5393 10.9539 21.5398 10.5615C21.5329 10.1884 21.6521 9.82393 21.8781 9.52707C22.1042 9.2302 22.4238 9.01835 22.7853 8.92582C22.9046 8.89736 22.9607 8.84121 22.9444 8.70892C22.9378 8.63854 22.9382 8.5677 22.9455 8.49739C22.9451 8.4678 22.9505 8.43842 22.9617 8.41098C22.9728 8.38356 22.9894 8.35864 23.0103 8.33773C23.0313 8.31681 23.0563 8.30031 23.0836 8.28924C23.1111 8.27814 23.1405 8.27268 23.1701 8.27318C23.2299 8.27251 23.2874 8.29558 23.3301 8.33735C23.3728 8.3791 23.3972 8.43611 23.398 8.49586C23.3989 8.50078 23.3993 8.50584 23.3989 8.51085C23.3434 8.80141 23.486 8.8989 23.7353 8.98889C24.0623 9.11183 24.3427 9.3341 24.5371 9.62452C24.7315 9.91494 24.83 10.2589 24.8188 10.6082C24.8225 10.9053 24.8242 11.2024 24.8177 11.4993C24.815 11.6216 24.8492 11.6675 24.9715 11.6664C25.5532 11.661 26.1349 11.6618 26.7168 11.6664C26.8214 11.6664 26.8637 11.6337 26.8602 11.52C26.8541 11.3189 26.8569 11.1162 26.8591 10.9157C26.8608 10.7499 26.9387 10.6528 27.0706 10.6436C27.2061 10.6342 27.3048 10.7328 27.3111 10.9022C27.319 11.1085 27.3188 11.3153 27.315 11.5216C27.3131 11.6252 27.3498 11.6618 27.4496 11.6662C27.8947 11.6854 27.8947 11.6887 27.8947 11.2181C27.8947 11.1174 27.8921 11.0164 27.8961 10.9159C27.9028 10.7515 27.9984 10.642 28.1295 10.6426C28.2607 10.6432 28.3503 10.7518 28.3516 10.9187C28.3534 11.1203 28.3559 11.3226 28.3507 11.5231C28.348 11.6291 28.3891 11.6687 28.4864 11.6652C28.5968 11.6612 28.7076 11.661 28.8181 11.6652C28.9199 11.6695 28.9527 11.6202 28.9506 11.5193C28.9466 11.3178 28.9479 11.1155 28.9506 10.9149C28.9529 10.7555 29.0379 10.6517 29.1654 10.6432C29.2885 10.6349 29.3881 10.7351 29.4031 10.8932C29.4116 10.983 29.4085 11.0743 29.4085 11.1649C29.4085 13.2446 29.4085 15.3242 29.4085 17.4038C29.4085 17.6365 29.4085 17.6365 29.63 17.6365H29.7598C30.1109 17.6365 30.1757 17.7046 30.1757 18.0788C30.1757 18.4716 30.1767 18.8645 30.1757 19.2573C30.1757 19.4973 30.0909 19.5842 29.8625 19.5852C29.7519 19.5852 29.6413 19.5877 29.5308 19.5852C29.4456 19.5837 29.4075 19.6254 29.4094 19.7135C29.4108 19.7738 29.4094 19.8342 29.4094 19.8948C29.4094 22.8263 29.4094 25.758 29.4094 28.6897C29.4094 28.7089 29.4094 28.7301 29.4094 28.7501C29.4106 28.9674 29.4106 28.9676 29.614 28.9678C29.8498 28.9678 30.0854 28.9678 30.3209 28.9678C30.6309 28.9678 30.7076 29.0876 30.5901 29.3895L2.08633 29.3906ZM16.2318 15.0325C17.8567 15.0325 19.4815 15.0325 21.1066 15.0325C21.3374 15.0325 21.4189 15.1157 21.421 15.3573C21.4233 15.6142 21.4243 15.8711 21.421 16.128C21.4195 16.2376 21.4454 16.2924 21.5662 16.292C21.8342 16.291 21.8837 16.3497 21.8837 16.6318C21.8837 17.6744 21.8854 18.7172 21.881 19.7598C21.881 19.8904 21.9154 19.9344 22.044 19.9329C22.7603 19.9273 23.4766 19.9273 24.1931 19.9329C24.3237 19.9338 24.3673 19.8915 24.3662 19.751C24.3566 19.1218 24.3552 18.4926 24.3544 17.8634C24.3527 16.418 24.3518 14.9726 24.3518 13.5272C24.3518 13.3307 24.3466 13.3299 24.1546 13.3299C23.2893 13.3299 22.424 13.3299 21.5587 13.3299C20.6982 13.3309 19.8373 13.3232 18.9772 13.3426C18.9236 13.3507 18.8688 13.3432 18.8194 13.3209C18.77 13.2987 18.7281 13.2626 18.6987 13.2171C18.6694 13.1716 18.6538 13.1185 18.6538 13.0643C18.6539 13.0101 18.6696 12.9571 18.6991 12.9117C18.8022 12.6649 18.8394 12.3957 18.8074 12.1302C18.7791 11.8097 18.6739 11.5008 18.5007 11.2296C18.3275 10.9585 18.0915 10.7331 17.8127 10.5726C17.3817 10.2864 16.88 10.1247 16.363 10.1053C15.846 10.0859 15.3337 10.2096 14.8825 10.4628C14.0927 10.8666 13.3784 11.861 13.8533 13.0236C13.8652 13.0587 13.8687 13.0962 13.8635 13.133C13.8583 13.1697 13.8445 13.2047 13.8232 13.2352C13.802 13.2656 13.7739 13.2906 13.7412 13.3082C13.7085 13.3258 13.6722 13.3355 13.6351 13.3365C13.5197 13.3409 13.4043 13.3305 13.2889 13.3303C11.6879 13.3303 10.0869 13.3303 8.48584 13.3303C8.28028 13.3303 8.2803 13.3303 8.26914 13.5385C8.26549 13.6039 8.25951 13.6693 8.25951 13.7347C8.25951 15.739 8.25843 17.7434 8.25624 19.7479C8.25624 19.8988 8.30643 19.9344 8.43988 19.9334C9.10829 19.9279 9.77651 19.9269 10.4447 19.9334C10.582 19.9348 10.6128 19.8871 10.6122 19.7521C10.6076 18.7137 10.6097 17.6769 10.6099 16.6393C10.6099 16.3428 10.653 16.291 10.9322 16.2908C11.0412 16.2908 11.0747 16.2503 11.0726 16.1412C11.0678 15.8793 11.0697 15.6172 11.0716 15.3553C11.0733 15.1154 11.156 15.0319 11.387 15.0319L16.2318 15.0325ZM16.2376 20.4101H11.3045C11.0672 20.4101 11.0672 20.4101 11.0672 20.652V22.4656C11.0672 24.556 11.0672 26.6466 11.0672 28.7372C11.0672 29.0035 11.0503 28.968 11.2947 28.968C11.6937 28.9695 12.0929 28.968 12.4919 28.968C12.6936 28.968 12.6942 28.968 12.6942 28.753V21.4843C12.6942 21.1574 12.7519 21.0962 13.0641 21.0962H19.4542C19.7811 21.0962 19.8313 21.1482 19.8313 21.486C19.8313 23.9191 19.8304 26.3522 19.8286 28.7853C19.8286 28.9328 19.8711 28.9743 20.0086 28.9716C20.417 28.9633 20.8259 28.9687 21.2345 28.9685C21.4252 28.9685 21.4256 28.9685 21.4256 28.7693C21.4256 26.0591 21.4256 23.349 21.4256 20.6388C21.4256 20.4105 21.4256 20.41 21.1997 20.41L16.2376 20.4101ZM13.1528 25.2646C13.1528 26.4433 13.1549 27.6221 13.1501 28.8009C13.1501 28.9343 13.1853 28.9762 13.3124 28.9718C13.5718 28.9624 13.8316 28.9614 14.0912 28.9718C14.2321 28.9774 14.2706 28.9266 14.2693 28.7826C14.2625 28.1126 14.2612 27.4427 14.2693 26.7727C14.2708 26.5922 14.2945 26.4126 14.34 26.2378C14.6811 24.9594 16.0291 24.36 17.1354 25.0071C17.4428 25.1807 17.697 25.4348 17.8708 25.742C18.0446 26.0495 18.1313 26.3983 18.1216 26.7512C18.1332 27.4361 18.1263 28.1213 18.1216 28.8064C18.1216 28.9314 18.1601 28.9735 18.2793 28.9708C18.5774 28.9639 18.8755 28.9687 19.1737 28.9687C19.3729 28.9687 19.3729 28.9687 19.3729 28.766C19.3729 26.4585 19.3729 24.1514 19.3729 21.8448C19.3729 21.5439 19.4014 21.5756 19.1195 21.5756C17.2015 21.5747 15.2835 21.5747 13.3653 21.5756C13.1538 21.5756 13.1538 21.5729 13.1538 21.8037C13.1531 22.9573 13.1528 24.111 13.1528 25.2646ZM16.2418 16.7681C16.088 16.7681 15.9341 16.7681 15.7803 16.7681C14.2662 16.7704 12.7518 16.7752 11.2375 16.7718C11.1058 16.7718 11.0645 16.7979 11.0645 16.9416C11.07 17.8783 11.07 18.8151 11.0645 19.7519C11.0645 19.8875 11.0966 19.9334 11.2327 19.9334C14.569 19.9296 17.9053 19.9296 21.2416 19.9334C21.3889 19.9334 21.4295 19.886 21.4283 19.7346C21.422 18.9287 21.4256 18.1228 21.4256 17.3169C21.4256 17.176 21.4229 17.0348 21.4256 16.8939C21.4272 16.8025 21.3895 16.7706 21.3033 16.7727C21.1545 16.7764 21.0055 16.7685 20.8564 16.7685C19.3181 16.7681 17.7797 16.7679 16.2414 16.7679L16.2418 16.7681ZM7.79897 14.8959H7.79185C7.79185 14.0399 7.78878 13.1845 7.79474 12.3277C7.79474 12.1806 7.7507 12.1408 7.6136 12.1413C6.36369 12.1462 5.11533 12.144 3.86619 12.1444C3.6739 12.1444 3.66986 12.1479 3.66986 12.3448C3.66986 14.047 3.66888 15.7492 3.66696 17.4515C3.66696 17.5973 3.71005 17.6404 3.8485 17.6398C5.1079 17.6352 6.36715 17.6352 7.62629 17.6398C7.76974 17.6398 7.80243 17.5894 7.80166 17.4486C7.79589 16.5983 7.79858 15.7472 7.79858 14.8959H7.79897ZM24.8286 14.8815H24.8217C24.8217 15.7428 24.8238 16.6041 24.8196 17.4654C24.8196 17.5942 24.8507 17.6404 24.9813 17.64C26.2455 17.6352 27.5096 17.6352 28.7737 17.64C28.9131 17.64 28.9539 17.5954 28.9535 17.4508C28.9495 15.7484 28.9485 14.0461 28.9506 12.3436C28.9506 12.1485 28.9462 12.1437 28.7533 12.1448C28.1957 12.1481 27.6392 12.1563 27.0819 12.156C26.3897 12.156 25.6974 12.1521 25.0052 12.1412C24.8654 12.139 24.8242 12.1831 24.8252 12.3284C24.8311 13.1793 24.8283 14.0304 24.8283 14.8815H24.8286ZM24.3623 24.706H24.3529C24.3529 24.1925 24.3517 23.6791 24.3529 23.1655C24.3552 22.3098 24.3562 21.4541 24.3646 20.5984C24.366 20.4542 24.3248 20.4061 24.1852 20.4078C23.4739 20.4138 22.7624 20.4138 22.0508 20.4078C21.9117 20.4065 21.881 20.4613 21.8812 20.593C21.8835 23.3324 21.8835 26.0718 21.8812 28.8112C21.8812 28.9383 21.9196 28.9728 22.0385 28.972C22.7499 28.967 23.4614 28.9697 24.1729 28.9697C24.3621 28.9697 24.3623 28.9697 24.3623 28.7705C24.3621 27.4154 24.3621 26.0607 24.3619 24.706H24.3623ZM10.6088 24.6883C10.6088 23.324 10.6069 21.9596 10.6117 20.5953C10.6117 20.4505 10.5732 20.4059 10.4332 20.4075C9.77017 20.4142 9.10708 20.4142 8.44392 20.4075C8.30008 20.4061 8.25393 20.4503 8.2549 20.6046C8.26124 21.5201 8.25816 22.4358 8.25816 23.3515C8.25816 25.169 8.25734 26.9864 8.25566 28.8037C8.25566 28.9414 8.30085 28.9726 8.42277 28.9716C9.0906 28.9664 9.75863 28.9643 10.4265 28.9726C10.5715 28.9745 10.613 28.9368 10.6124 28.7812C10.6059 27.4169 10.6086 26.0526 10.6084 24.6883H10.6088ZM7.79878 26.1934C7.79878 25.328 7.79666 24.461 7.80108 23.5949C7.80108 23.4634 7.77666 23.4124 7.63552 23.413C6.37658 23.419 5.11783 23.4161 3.85888 23.4161C3.66986 23.4161 3.66947 23.4161 3.66947 23.6172V28.7384C3.66947 28.7737 3.67159 28.8091 3.66947 28.8441C3.66467 28.9333 3.70139 28.9718 3.7885 28.9699C3.95176 28.962 4.11531 28.9628 4.27847 28.9722C4.42903 28.9849 4.46289 28.9256 4.46232 28.7759C4.45674 27.6379 4.45807 26.4999 4.45961 25.3617C4.46078 25.0706 4.55179 24.7869 4.72024 24.5494C4.88867 24.312 5.12633 24.1322 5.40071 24.0349C5.66609 23.9514 5.95097 23.9535 6.21513 24.0408C6.47928 24.1281 6.7093 24.2962 6.87269 24.5214C7.05947 24.7781 7.15798 25.0884 7.15344 25.4059C7.15344 26.5289 7.15344 27.6519 7.15344 28.7747C7.15344 28.9689 7.15344 28.9691 7.344 28.9695C7.44013 28.9649 7.53641 28.9656 7.63244 28.9718C7.76936 28.9874 7.80224 28.9278 7.80147 28.7922C7.79628 27.9255 7.7986 27.0594 7.79841 26.1934H7.79878ZM24.8215 26.1872V27.4261C24.8215 27.8894 24.8248 28.3528 24.8196 28.816C24.8181 28.9351 24.8534 28.9803 24.9682 28.9699C25.0736 28.9593 25.1798 28.9593 25.2851 28.9699C25.4322 28.9878 25.4713 28.9314 25.4703 28.7785C25.464 27.6556 25.4636 26.5326 25.4692 25.4096C25.4699 25.2594 25.4884 25.1098 25.5242 24.9638C25.6107 24.6398 25.8161 24.3602 26.0993 24.1806C26.3826 24.0012 26.7229 23.9347 27.0529 23.9947C27.7515 24.1618 28.162 24.7062 28.1613 25.4582C28.1601 26.571 28.1628 27.684 28.1586 28.797C28.1586 28.9268 28.1901 28.9793 28.3203 28.9701C28.4739 28.9593 28.6282 28.9593 28.7818 28.9701C28.9164 28.9795 28.9549 28.9285 28.9549 28.7901C28.951 27.0577 28.951 25.3253 28.9549 23.5928C28.9549 23.4543 28.9164 23.4115 28.7837 23.4118C27.52 23.4163 26.2562 23.4163 24.9923 23.4118C24.8471 23.4118 24.8192 23.4638 24.8192 23.6032C24.824 24.4648 24.8211 25.3261 24.8211 26.1872H24.8215ZM16.1876 28.9689C16.6202 28.9689 17.0529 28.9639 17.4853 28.972C17.6221 28.9745 17.6686 28.9335 17.6671 28.7859C17.6605 28.1263 17.6696 27.4665 17.6611 26.807C17.6581 26.6368 17.6327 26.4678 17.5855 26.3043C17.493 25.9693 17.2841 25.6784 16.9964 25.4836C16.7087 25.2888 16.361 25.2029 16.0157 25.2411C15.6596 25.2975 15.335 25.478 15.0992 25.7507C14.8634 26.0234 14.7317 26.3707 14.7273 26.7312C14.7194 27.426 14.7273 28.1211 14.7242 28.816C14.7242 28.9353 14.7642 28.9724 14.8761 28.971C15.3125 28.966 15.7499 28.9689 16.1872 28.9689H16.1876ZM21.7771 12.8498C22.5752 12.8498 23.3732 12.8507 24.1714 12.848C24.225 12.848 24.3223 12.8288 24.3252 12.8084C24.3443 12.6858 24.3452 12.561 24.3285 12.4381C24.3241 12.4104 24.2056 12.3881 24.1397 12.3879C22.7551 12.3852 21.3706 12.3845 19.9861 12.3859C19.6658 12.3859 19.6179 12.3283 19.6004 11.996C19.5927 11.8054 19.5638 11.6163 19.5144 11.4322C19.4094 11.047 19.2267 10.6875 18.9776 10.3755C18.7286 10.0635 18.4184 9.80579 18.0661 9.61808C17.4992 9.27757 16.8477 9.10404 16.1866 9.11748C15.5255 9.1309 14.8816 9.33077 14.329 9.69403C13.9106 9.93332 13.5602 10.2754 13.3108 10.6879C13.0614 11.1004 12.9214 11.5697 12.904 12.0514C12.8867 12.3434 12.8463 12.3859 12.5638 12.3859C11.2224 12.3859 9.881 12.3859 8.53968 12.3859C8.26355 12.3859 8.26836 12.3859 8.26759 12.6759C8.26759 12.8048 8.3072 12.8542 8.43469 12.8524C8.86735 12.8463 9.30001 12.8501 9.73286 12.8501H13.1364C13.2195 12.8501 13.297 12.8667 13.2762 12.7188C13.1908 12.2562 13.2419 11.7788 13.4232 11.3448C13.6045 10.9107 13.9082 10.5389 14.2973 10.2746C15.3317 9.52462 16.4625 9.43655 17.6182 9.92171C18.6924 10.3724 19.4285 11.4081 19.2429 12.673C19.2214 12.8201 19.2637 12.8538 19.3967 12.853C20.1907 12.8474 20.9834 12.8501 21.7768 12.8498H21.7771ZM25.9257 28.9672C26.5062 28.9672 27.0627 28.9691 27.6192 28.9618C27.6478 28.9618 27.7001 28.8832 27.7003 28.841C27.7046 27.6882 27.7111 26.5354 27.7003 25.3828C27.703 25.2604 27.6809 25.1386 27.6353 25.025C27.5898 24.9113 27.5215 24.8081 27.435 24.7215C27.3484 24.6348 27.2454 24.5666 27.1317 24.521C27.0181 24.4752 26.8966 24.4529 26.7741 24.4554C26.5343 24.4766 26.312 24.5894 26.1533 24.7704C25.9945 24.9513 25.9118 25.1863 25.922 25.4269C25.9359 26.5391 25.9264 27.6519 25.9264 28.7643L25.9257 28.9672ZM6.69501 27.1087C6.69501 26.5349 6.69809 25.9609 6.69501 25.3871C6.70107 25.2665 6.6825 25.1459 6.64042 25.0327C6.59835 24.9194 6.53364 24.816 6.45028 24.7285C6.36692 24.6412 6.26666 24.5716 6.15556 24.5243C6.04445 24.477 5.92486 24.4525 5.80408 24.4529C5.6833 24.4533 5.56385 24.4783 5.45303 24.5262C5.34219 24.5742 5.24228 24.6442 5.15942 24.7321C5.07656 24.82 5.01245 24.9238 4.97103 25.0373C4.92959 25.1507 4.91169 25.2715 4.91842 25.3921C4.91573 26.5297 4.91842 27.6673 4.91553 28.8049C4.91553 28.9274 4.94707 28.9728 5.06937 28.9714C5.56433 28.9656 6.05924 28.9656 6.55406 28.9714C6.67155 28.973 6.69965 28.9303 6.69869 28.8147C6.69176 28.2463 6.69461 27.6775 6.69461 27.1087H6.69501ZM5.73814 22.031C6.37271 22.031 7.00616 22.0273 7.64015 22.0339C7.76861 22.0352 7.80262 21.9937 7.80166 21.8625C7.79616 21.1634 7.79616 20.464 7.80166 19.7644C7.80281 19.6239 7.75839 19.5835 7.62744 19.5839C6.36933 19.5881 5.11115 19.5881 3.85292 19.5839C3.71832 19.5839 3.66563 19.6223 3.66678 19.7713C3.67255 20.4709 3.67255 21.1705 3.66678 21.8698C3.66582 21.9948 3.70101 22.0341 3.82062 22.0329C4.46018 22.0277 5.09898 22.0306 5.73778 22.031H5.73814ZM24.8215 22.0187C24.8827 22.0243 24.9204 22.0306 24.9579 22.0306C26.2414 22.0306 27.5252 22.0314 28.8089 22.0329C28.9264 22.0329 28.9537 21.9868 28.9529 21.8727C28.9489 21.1724 28.9477 20.4723 28.9529 19.7719C28.9543 19.6242 28.9043 19.5835 28.7678 19.5841C27.5132 19.5883 26.2585 19.5862 25.004 19.5864C24.8242 19.5864 24.8213 19.5892 24.8213 19.7842C24.8213 20.4744 24.8213 21.1645 24.8213 21.8546L24.8215 22.0187ZM16.2379 15.5136H13.6287C12.9749 15.5136 12.3211 15.5159 11.6673 15.5115C11.5606 15.5115 11.5204 15.5422 11.5264 15.6563C11.5341 15.8018 11.5279 15.9482 11.5283 16.0941C11.5283 16.2893 11.5293 16.2895 11.7219 16.2895H20.7176C20.7464 16.2881 20.7751 16.2881 20.8039 16.2895C20.9193 16.3018 20.9722 16.2545 20.9651 16.1266C20.9578 15.992 20.9637 15.8549 20.9637 15.719C20.9637 15.5142 20.9637 15.5138 20.7638 15.5138L16.2379 15.5136ZM29.7194 18.6187C29.7194 18.508 29.7125 18.3966 29.7213 18.2867C29.7321 18.1499 29.6738 18.1078 29.5527 18.1161C29.4181 18.1251 29.2835 18.1284 29.1489 18.128C27.7515 18.1253 26.3543 18.1213 24.9569 18.1161C24.8579 18.1161 24.8184 18.1509 24.8206 18.2555C24.8246 18.4718 24.8206 18.6884 24.8217 18.9047C24.8217 19.1047 24.8217 19.1054 25.014 19.1054C26.3108 19.1054 27.6077 19.1054 28.9047 19.1054C29.1106 19.1054 29.3166 19.1054 29.5223 19.1054C29.7156 19.1054 29.7183 19.1016 29.719 18.906C29.7196 18.8099 29.7192 18.7143 29.719 18.6187H29.7194ZM5.62375 19.1054C6.29677 19.1054 6.96884 19.1031 7.64129 19.1075C7.75859 19.1075 7.80551 19.0718 7.80089 18.9443C7.79339 18.7328 7.79089 18.5212 7.80089 18.3097C7.80878 18.1578 7.76243 18.1124 7.61437 18.1134C6.59521 18.1199 5.5776 18.1169 4.55921 18.1169C4.06483 18.1169 3.57064 18.1197 3.07625 18.1149C2.95145 18.1138 2.8905 18.1455 2.89742 18.2922C2.90761 18.5082 2.90569 18.7251 2.89742 18.9412C2.8928 19.0704 2.94511 19.1085 3.05933 19.106C3.28431 19.101 3.50949 19.1047 3.73466 19.1047L5.62375 19.1054ZM23.1738 10.6401C23.5243 10.6401 23.8749 10.6401 24.2254 10.6401C24.3023 10.6401 24.3733 10.6357 24.3583 10.5192C24.3346 10.2593 24.2381 10.0115 24.0798 9.80403C23.9322 9.6131 23.7281 9.47345 23.4968 9.40488C23.2653 9.33631 23.0182 9.34227 22.7903 9.42194C22.5802 9.50297 22.3957 9.63975 22.2575 9.81756C22.119 9.9954 22.0315 10.2076 22.0046 10.4313C21.9871 10.6288 21.996 10.6399 22.1798 10.6403C22.5107 10.6407 22.8421 10.6406 23.1734 10.6401H23.1738ZM9.44961 10.6401C9.79574 10.6401 10.1419 10.6378 10.4866 10.6415C10.5828 10.6424 10.6243 10.6128 10.6213 10.5034C10.6027 10.2168 10.4846 9.94563 10.2875 9.73676C10.0903 9.52791 9.82641 9.39446 9.54134 9.35944C9.22671 9.3412 8.91731 9.44603 8.67858 9.65181C8.43986 9.8576 8.29055 10.1482 8.2622 10.4621C8.24297 10.5917 8.28145 10.6449 8.41336 10.6424C8.75776 10.6357 9.10348 10.6401 9.44923 10.6401H9.44961ZM9.44865 11.9067C9.79478 11.9067 10.14 11.9046 10.4855 11.9083C10.5817 11.9093 10.6263 11.8789 10.6228 11.7708C10.617 11.595 10.6199 11.4189 10.6217 11.2428C10.6226 11.1564 10.5938 11.1162 10.5038 11.1164C9.7987 11.1191 9.09297 11.1194 8.38662 11.1174C8.29643 11.1174 8.25547 11.1558 8.25759 11.252C8.26124 11.4127 8.2647 11.5741 8.25663 11.7346C8.2497 11.8693 8.30451 11.91 8.42604 11.9077C8.7664 11.9029 9.10733 11.9069 9.44827 11.9067H9.44865ZM23.1768 11.9067C23.5182 11.9067 23.8595 11.9039 24.2008 11.9085C24.3181 11.91 24.3675 11.8646 24.3635 11.7404C24.3581 11.5795 24.3594 11.4181 24.3635 11.257C24.3658 11.1608 24.3304 11.1182 24.2377 11.1183C23.531 11.1199 22.8246 11.1199 22.1179 11.1183C22.0279 11.1183 21.9983 11.158 21.9992 11.2445C22.001 11.4106 22.0052 11.5772 21.9975 11.7431C21.9917 11.8668 22.0323 11.9117 22.1531 11.9094C22.4936 11.9029 22.8351 11.9071 23.1765 11.9071L23.1768 11.9067ZM26.8825 22.5106C26.248 22.5106 25.6149 22.5142 24.9813 22.5075C24.8527 22.5063 24.8042 22.5484 24.8211 22.6794C24.8254 22.7144 24.8254 22.7498 24.8211 22.7848C24.8069 22.9078 24.864 22.9376 24.9723 22.9375C26.2447 22.9348 27.5171 22.9323 28.7895 22.9394C28.9802 22.9403 28.9449 22.8225 28.9529 22.704C28.962 22.5694 28.9337 22.5054 28.7837 22.5073C28.1497 22.5158 27.5159 22.5111 26.8825 22.5109V22.5106ZM5.73278 22.9357C6.33293 22.9357 6.93327 22.9375 7.5336 22.9357C7.81762 22.9344 7.7957 22.9884 7.8007 22.65C7.80224 22.5463 7.7707 22.5075 7.66898 22.5096C7.40977 22.5154 7.14981 22.5115 6.89098 22.5115C5.87823 22.5115 4.86504 22.5119 3.8514 22.5127C3.79641 22.5127 3.69755 22.5242 3.6939 22.5434C3.67392 22.6557 3.6714 22.7703 3.6864 22.8834C3.69063 22.9103 3.79908 22.9338 3.85946 22.9342C4.48364 22.9376 5.10802 22.9363 5.7324 22.9361L5.73278 22.9357ZM18.9108 9.61654C19.0585 9.77826 19.1993 9.91594 19.321 10.0702C19.4427 10.2244 19.5417 10.3971 19.6592 10.5559C19.6761 10.5778 19.6973 10.5962 19.7213 10.6098C19.7454 10.6235 19.7719 10.6322 19.7994 10.6355C20.0878 10.643 20.3751 10.638 20.6632 10.6401C20.7626 10.6401 20.7978 10.5986 20.7893 10.493C20.7353 9.7871 20.0744 9.24176 19.4108 9.3706C19.2209 9.39373 19.0445 9.48057 18.9104 9.61692L18.9108 9.61654ZM12.2856 10.6401C12.4248 10.6401 12.5648 10.6493 12.7028 10.6357C12.7661 10.6247 12.8233 10.5913 12.8638 10.5415C13.0911 10.2646 13.3045 9.97478 13.5368 9.70326C13.6243 9.60135 13.6101 9.55943 13.5083 9.50443C13.3653 9.41865 13.2045 9.36667 13.0383 9.35244C12.872 9.33821 12.7048 9.36212 12.5492 9.42232C12.3347 9.5017 12.1471 9.64023 12.0081 9.82187C11.8691 10.0035 11.7844 10.2208 11.7639 10.4486C11.7381 10.6261 11.7573 10.6397 11.9246 10.6409C12.045 10.6409 12.165 10.6405 12.2851 10.6405L12.2856 10.6401ZM20.3586 11.118C20.2624 11.118 20.1663 11.1233 20.0702 11.1166C19.9504 11.108 19.9127 11.1532 19.9482 11.2756C19.9817 11.391 20.0078 11.5085 20.0327 11.6262C20.0919 11.906 20.0903 11.9064 20.3738 11.9058C20.7911 11.9058 20.793 11.9058 20.7905 11.4733C20.788 11.057 20.8395 11.1237 20.4592 11.1174C20.4255 11.118 20.3919 11.1183 20.3582 11.1183L20.3586 11.118ZM12.5828 11.1205C12.3217 11.1205 12.0746 11.1174 11.8277 11.1255C11.804 11.1255 11.7646 11.1951 11.7631 11.2337C11.7564 11.4193 11.7631 11.6054 11.7589 11.7914C11.7573 11.8762 11.7908 11.9083 11.8698 11.9067C12.0281 11.9039 12.1863 11.9091 12.3444 11.9033C12.38 11.9019 12.4405 11.875 12.4452 11.8498C12.4944 11.6175 12.5346 11.3826 12.5825 11.1208L12.5828 11.1205Z" fill="#252B37" stroke="#252B37" stroke-width="0.0903777" stroke-miterlimit="10"/>
<path d="M10.291 18.5564C10.291 18.7871 10.2926 19.0194 10.291 19.2508C10.2891 19.4706 10.2105 19.5544 10.0059 19.5554C9.6554 19.5567 9.30477 19.5567 8.95403 19.5554C8.75481 19.5544 8.66559 19.4619 8.66444 19.249C8.66194 18.8012 8.66078 18.3533 8.66444 17.9057C8.65815 17.7936 8.67453 17.6813 8.71261 17.5757C8.75066 17.4701 8.80962 17.3732 8.88596 17.2908C8.96228 17.2085 9.05443 17.1424 9.15688 17.0964C9.25933 17.0505 9.37 17.0257 9.48226 17.0234C9.95242 17.0234 10.2899 17.3909 10.2914 17.908C10.2918 18.1235 10.291 18.3399 10.291 18.5564ZM9.83108 18.4116C9.83108 18.2457 9.83262 18.0795 9.83108 17.9136C9.8365 17.8644 9.83196 17.8146 9.81775 17.7672C9.80352 17.7198 9.77989 17.6758 9.74826 17.6377C9.71665 17.5996 9.67767 17.5683 9.63369 17.5456C9.58971 17.523 9.54162 17.5094 9.49226 17.5057C9.44159 17.5068 9.39167 17.5182 9.34548 17.5391C9.29931 17.56 9.25782 17.59 9.22351 17.6273C9.18922 17.6646 9.1628 17.7085 9.14586 17.7562C9.12894 17.804 9.12183 17.8547 9.12498 17.9053C9.1194 18.2514 9.12498 18.5999 9.12094 18.9469C9.11959 19.0498 9.1623 19.0781 9.25057 19.076C9.4044 19.0727 9.55822 19.0716 9.71205 19.076C9.80935 19.0792 9.83608 19.0342 9.83339 18.9394C9.82743 18.7639 9.83108 18.5877 9.83108 18.4116Z" fill="#252B37" stroke="#252B37" stroke-width="0.0903777" stroke-miterlimit="10"/>
<path d="M23.9212 18.5457C23.9212 18.7972 23.9227 19.0487 23.9212 19.3002C23.9198 19.4679 23.8442 19.5529 23.6837 19.5546C23.3093 19.5585 22.9349 19.5585 22.5603 19.5546C22.3961 19.5529 22.3136 19.4629 22.3128 19.2908C22.3109 18.7978 22.3069 18.3047 22.3128 17.8119C22.3203 17.5987 22.4109 17.397 22.5651 17.2497C22.7193 17.1024 22.9251 17.0212 23.1383 17.0235C23.3466 17.0292 23.5447 17.1156 23.6906 17.2644C23.8364 17.4132 23.9189 17.6129 23.9204 17.8213C23.9223 18.0626 23.9212 18.3042 23.9212 18.5457ZM23.4639 18.3991C23.4639 18.2182 23.4681 18.0371 23.4627 17.8561C23.4622 17.7645 23.426 17.6766 23.3618 17.6112C23.2976 17.5458 23.2104 17.5079 23.1189 17.5056C23.027 17.5091 22.9399 17.5476 22.8757 17.6133C22.8112 17.679 22.7745 17.7668 22.7728 17.8588C22.767 18.2257 22.7728 18.5928 22.7697 18.9599C22.7697 19.0451 22.8034 19.0768 22.8816 19.0752C23.0355 19.0729 23.1893 19.0704 23.3431 19.0764C23.4402 19.0803 23.4681 19.036 23.466 18.9418C23.4597 18.7614 23.4633 18.5803 23.4629 18.3991H23.4639Z" fill="#252B37" stroke="#252B37" stroke-width="0.0903777" stroke-miterlimit="10"/>
<path d="M18.3574 23.9706C18.205 23.9777 18.0539 23.9389 17.9239 23.8591C17.7938 23.7793 17.6909 23.6622 17.6283 23.5229C17.5658 23.3837 17.5465 23.2291 17.5731 23.0787C17.5997 22.9286 17.6709 22.7897 17.7775 22.6805C17.884 22.5713 18.0209 22.4967 18.1705 22.4663C18.32 22.4361 18.4752 22.4513 18.6159 22.5105C18.7566 22.5695 18.8762 22.6695 18.9593 22.7976C19.0423 22.9255 19.0849 23.0757 19.0816 23.2281C19.0861 23.3253 19.0706 23.4224 19.036 23.5133C19.0015 23.6041 18.9486 23.687 18.8807 23.7566C18.8128 23.8262 18.7313 23.8812 18.6413 23.9179C18.5513 23.9548 18.4546 23.9727 18.3574 23.9706ZM18.6229 23.2153C18.6247 23.1799 18.6193 23.1445 18.6073 23.1112C18.5952 23.078 18.5767 23.0474 18.5527 23.0212C18.5288 22.9951 18.4999 22.9739 18.4678 22.9591C18.4356 22.9443 18.4009 22.9359 18.3655 22.9345C18.3288 22.9339 18.2925 22.9407 18.2585 22.9543C18.2245 22.968 18.1937 22.9884 18.1677 23.0143C18.1418 23.0401 18.1213 23.071 18.1075 23.1049C18.0937 23.1387 18.0869 23.1753 18.0874 23.2118C18.0852 23.2831 18.1113 23.3526 18.16 23.4049C18.2087 23.4572 18.2762 23.4879 18.3476 23.4906C18.3843 23.4927 18.421 23.487 18.4553 23.4739C18.4897 23.4608 18.5209 23.4406 18.5469 23.4145C18.5729 23.3885 18.5931 23.3574 18.6062 23.323C18.6193 23.2887 18.625 23.252 18.6229 23.2153Z" fill="#252B37" stroke="#252B37" stroke-width="0.0903777" stroke-miterlimit="10"/>
<path d="M14.1653 23.9707C13.7903 24.0122 13.423 23.6284 13.4299 23.214C13.4263 23.1154 13.4427 23.0171 13.478 22.925C13.5132 22.8327 13.5667 22.7487 13.6352 22.6777C13.7038 22.6066 13.7858 22.5502 13.8767 22.5116C13.9675 22.4729 14.0651 22.4531 14.1638 22.4531C14.2625 22.4531 14.3602 22.4729 14.451 22.5116C14.5418 22.5502 14.6239 22.6066 14.6924 22.6777C14.7609 22.7487 14.8144 22.8327 14.8497 22.925C14.8849 23.0171 14.9013 23.1154 14.8977 23.214C14.8975 23.6596 14.5327 24.0099 14.1653 23.9707ZM14.1584 23.49C14.1951 23.4905 14.2316 23.4836 14.2656 23.4698C14.2996 23.4559 14.3304 23.4352 14.3563 23.409C14.3821 23.3829 14.4024 23.3519 14.4159 23.3177C14.4294 23.2834 14.4359 23.2469 14.4349 23.2102C14.4333 23.1386 14.4046 23.0704 14.3546 23.019C14.3047 22.9679 14.2371 22.9375 14.1656 22.934C14.129 22.9344 14.0927 22.9419 14.059 22.9565C14.0253 22.971 13.9948 22.9919 13.9693 23.0183C13.9437 23.0446 13.9237 23.0758 13.9102 23.1098C13.8968 23.144 13.8903 23.1804 13.891 23.2171C13.8904 23.2527 13.8968 23.2881 13.9099 23.3211C13.923 23.354 13.9426 23.3842 13.9675 23.4096C13.9923 23.435 14.022 23.4552 14.0548 23.469C14.0876 23.4829 14.1228 23.49 14.1584 23.49Z" fill="#252B37" stroke="#252B37" stroke-width="0.0903777" stroke-miterlimit="10"/>
<path d="M6.45122 16.4332C6.45122 16.6093 6.45276 16.7854 6.45122 16.9616C6.44911 17.165 6.37258 17.25 6.18201 17.25C5.83589 17.2526 5.48976 17.2526 5.14363 17.25C4.95499 17.2489 4.88288 17.1731 4.88154 16.9731C4.87884 16.6108 4.87884 16.2486 4.88154 15.8863C4.88307 15.679 4.95288 15.6075 5.15498 15.6057C5.49585 15.6028 5.83687 15.6028 6.178 15.6057C6.37952 15.6073 6.44947 15.6871 6.45024 15.9044C6.45159 16.0809 6.45122 16.257 6.45122 16.4332ZM5.99355 16.4243C5.98989 16.0557 6.03779 16.0866 5.66859 16.0868C5.29477 16.0868 5.34033 16.0507 5.33956 16.4347C5.33956 16.8149 5.30612 16.7727 5.66378 16.7718C6.02626 16.7708 5.99239 16.8202 5.99355 16.4243Z" fill="#252B37" stroke="#252B37" stroke-width="0.0903777" stroke-miterlimit="10"/>
<path d="M26.9419 17.2516C26.7644 17.2516 26.5869 17.2545 26.4094 17.2516C26.3748 17.2545 26.34 17.2496 26.3075 17.2372C26.275 17.2249 26.2456 17.2054 26.2217 17.1803C26.1977 17.1551 26.1796 17.1249 26.1689 17.0918C26.1581 17.0588 26.1548 17.0238 26.1594 16.9893C26.1562 16.6176 26.1562 16.2458 26.1594 15.874C26.161 15.7009 26.244 15.6113 26.4094 15.609C26.7692 15.6043 27.129 15.6043 27.4888 15.609C27.6557 15.611 27.7351 15.695 27.7374 15.8727C27.7418 16.2444 27.7418 16.6162 27.7374 16.988C27.7349 17.172 27.6524 17.2501 27.4755 17.2524C27.2986 17.2547 27.1194 17.252 26.9419 17.2516ZM26.9482 16.0869C26.6175 16.0869 26.6175 16.0869 26.6173 16.424C26.6173 16.7728 26.6173 16.7741 26.9488 16.7728C27.3128 16.7713 27.2818 16.8203 27.2807 16.4299C27.2795 16.0525 27.3249 16.0886 26.9482 16.0869Z" fill="#252B37" stroke="#252B37" stroke-width="0.0903777" stroke-miterlimit="10"/>
<path d="M23.92 22.9864C23.92 23.2382 23.9216 23.4897 23.92 23.7414C23.9187 23.9085 23.8523 23.9843 23.6937 23.986C23.3143 23.9904 22.9347 23.9908 22.5551 23.9871C22.3873 23.9856 22.3121 23.9006 22.3115 23.722C22.3101 23.2337 22.3071 22.7455 22.3124 22.2573C22.3192 22.0463 22.4071 21.846 22.5578 21.6983C22.7084 21.5504 22.9103 21.4666 23.1214 21.4639C23.3324 21.4662 23.5341 21.5508 23.6835 21.6998C23.8327 21.849 23.9177 22.0506 23.9204 22.2615C23.9221 22.5032 23.9212 22.7447 23.92 22.9864ZM23.4631 22.8326C23.4631 22.6569 23.4676 22.4809 23.462 22.3053C23.4635 22.2598 23.4558 22.2146 23.4397 22.1721C23.4233 22.1296 23.3987 22.0907 23.3672 22.0579C23.3356 22.025 23.298 21.9988 23.2562 21.9808C23.2145 21.9627 23.1695 21.9533 23.1239 21.9529C23.077 21.9523 23.0305 21.9611 22.987 21.979C22.9437 21.9969 22.9043 22.0234 22.8714 22.0569C22.8386 22.0904 22.8128 22.1302 22.7957 22.1738C22.7788 22.2175 22.7705 22.2642 22.772 22.3111C22.7672 22.6676 22.772 23.0243 22.7699 23.3808C22.7699 23.4714 22.8084 23.5089 22.8909 23.5087C23.0395 23.5087 23.1882 23.5064 23.3366 23.5103C23.4297 23.5127 23.466 23.4701 23.4647 23.3756C23.4612 23.1937 23.4631 23.013 23.4631 22.832V22.8326Z" fill="#252B37" stroke="#252B37" stroke-width="0.0903777" stroke-miterlimit="10"/>
<path d="M10.2908 22.9955C10.2908 23.2323 10.2935 23.469 10.2908 23.7055C10.2876 23.917 10.2181 23.9872 10.0203 23.9878C9.65992 23.9889 9.29949 23.9889 8.939 23.9878C8.75247 23.9868 8.66596 23.8984 8.665 23.7011C8.6625 23.243 8.65942 22.7848 8.665 22.3268C8.66094 22.1373 8.72015 21.9522 8.83327 21.8003C8.94642 21.6483 9.10698 21.5387 9.28955 21.4884C9.47849 21.4412 9.67815 21.4655 9.85045 21.5562C10.0227 21.6468 10.1556 21.7978 10.2237 21.9802C10.2656 22.0979 10.2876 22.2218 10.2889 22.3467C10.2989 22.5627 10.2916 22.7796 10.2916 22.9959L10.2908 22.9955ZM9.83106 22.8446H9.83202C9.83202 22.6838 9.83318 22.5231 9.83202 22.3623C9.82972 22.1148 9.7049 21.9635 9.49895 21.9552C9.44834 21.9531 9.39784 21.9616 9.35077 21.9804C9.30368 21.9991 9.26109 22.0275 9.22574 22.0639C9.19042 22.1 9.16311 22.1435 9.14569 22.191C9.12825 22.2385 9.12108 22.2893 9.12458 22.3398C9.11669 22.686 9.12458 23.0321 9.12208 23.3794C9.12208 23.4697 9.15956 23.508 9.24243 23.5076C9.39627 23.5076 9.55012 23.5059 9.70261 23.5076C9.79337 23.5088 9.83337 23.4659 9.83222 23.3709C9.82952 23.1961 9.83106 23.0205 9.83106 22.8446Z" fill="#252B37" stroke="#252B37" stroke-width="0.0903777" stroke-miterlimit="10"/>
<path d="M5.66379 19.9303C5.84166 19.9303 6.01955 19.9276 6.19742 19.9303C6.23211 19.9267 6.26717 19.9311 6.29995 19.943C6.33272 19.9549 6.36237 19.9742 6.38666 19.9992C6.41094 20.0244 6.42923 20.0545 6.44015 20.0876C6.45108 20.1207 6.45433 20.1559 6.44971 20.1905C6.4529 20.5682 6.4529 20.9458 6.44971 21.3237C6.44836 21.4881 6.37606 21.5704 6.22031 21.5737C5.85033 21.5798 5.48017 21.5792 5.1102 21.5754C5.07899 21.5783 5.04753 21.574 5.01817 21.5631C4.9888 21.5521 4.96227 21.5346 4.94052 21.5121C4.91877 21.4896 4.90233 21.4623 4.89246 21.4327C4.8826 21.4029 4.87952 21.3714 4.88346 21.3402C4.8795 20.9526 4.8795 20.5649 4.88346 20.177C4.87856 20.1436 4.88158 20.1094 4.89225 20.0772C4.90292 20.0451 4.92096 20.0159 4.94494 19.9921C4.96894 19.968 4.99819 19.9501 5.03034 19.9396C5.06251 19.929 5.09672 19.9261 5.1302 19.9311C5.30711 19.9284 5.48592 19.9305 5.66379 19.9303ZM5.67746 21.096C6.03359 21.096 5.99263 21.1225 5.99301 20.7631C5.99301 20.3522 6.02744 20.4128 5.65496 20.4109C5.31076 20.4089 5.33728 20.3689 5.3392 20.742C5.34131 21.1325 5.28941 21.0941 5.67746 21.096Z" fill="#252B37" stroke="#252B37" stroke-width="0.0903777" stroke-miterlimit="10"/>
<path d="M26.9459 21.5755C26.7636 21.5755 26.5806 21.5795 26.3988 21.5743C26.2362 21.5697 26.1602 21.4907 26.1585 21.3197C26.155 20.948 26.155 20.5758 26.1585 20.2033C26.1602 20.0233 26.2471 19.9341 26.4171 19.9325C26.7675 19.93 27.1178 19.93 27.4682 19.9325C27.6543 19.9339 27.7337 20.0116 27.7374 20.2073C27.7422 20.5742 27.7422 20.9413 27.7374 21.3086C27.7353 21.4978 27.6605 21.5726 27.4797 21.5765C27.299 21.5803 27.1246 21.5765 26.9469 21.5765L26.9459 21.5755ZM26.9405 20.4113C26.6175 20.4113 26.6175 20.4113 26.6173 20.7248C26.6173 21.0976 26.6173 21.098 26.9711 21.0975C27.3205 21.0975 27.2807 21.1226 27.2805 20.7761C27.2805 20.3554 27.3184 20.416 26.9403 20.4106L26.9405 20.4113Z" fill="#252B37" stroke="#252B37" stroke-width="0.0903777" stroke-miterlimit="10"/>
</g>
</g>
<defs>
<clipPath id="clip0_2675_19201">
<rect width="33.0744" height="33.0744" fill="white"/>
</clipPath>
</defs>
</svg>
