<svg width="34" height="34" viewBox="0 0 34 34" fill="none" xmlns="http://www.w3.org/2000/svg">
<g clip-path="url(#clip0_2675_19221)">
<mask id="mask0_2675_19221" style="mask-type:luminance" maskUnits="userSpaceOnUse" x="-1" y="0" width="35" height="34">
<path d="M33.0742 0H-0.000183105V33.0744H33.0742V0Z" fill="white"/>
</mask>
<g mask="url(#mask0_2675_19221)">
<path d="M12.293 9.38315C12.293 9.38315 12.293 9.70101 11.848 10.21H9.40016C8.95519 9.70139 8.95517 9.38315 8.95517 9.38315C8.77903 8.09248 10.3622 7.51464 10.6089 7.43253C10.6134 7.4288 10.619 7.42676 10.6249 7.42676C10.6307 7.42676 10.6363 7.4288 10.6408 7.43253C10.886 7.51502 12.4692 8.09286 12.293 9.38315Z" stroke="#252B37" stroke-width="0.576879" stroke-miterlimit="10"/>
<path d="M10.5568 7.51771L10.5761 6.34473" stroke="#252B37" stroke-width="0.576879" stroke-miterlimit="10" stroke-linecap="round"/>
<path d="M24.2152 9.38315C24.2152 9.38315 24.2152 9.70101 23.7703 10.21H21.3224C20.8774 9.70139 20.8774 9.38315 20.8774 9.38315C20.7013 8.09248 22.2844 7.51464 22.5311 7.43253C22.5356 7.4288 22.5413 7.42676 22.5471 7.42676C22.5529 7.42676 22.5586 7.4288 22.5631 7.43253C22.8082 7.51502 24.3914 8.09286 24.2152 9.38315Z" stroke="#252B37" stroke-width="0.576879" stroke-miterlimit="10"/>
<path d="M22.4789 7.51771L22.4982 6.34473" stroke="#252B37" stroke-width="0.576879" stroke-miterlimit="10" stroke-linecap="round"/>
<path d="M23.9404 10.4785H9.32611V28.5541H23.9404V10.4785Z" stroke="#252B37" stroke-width="0.576879" stroke-miterlimit="10"/>
<path d="M21.4406 10.4785H11.6336V28.5541H21.4406V10.4785Z" stroke="#252B37" stroke-width="0.576879" stroke-miterlimit="10"/>
<path d="M21.4406 14.3242H11.6336V17.0163H21.4406V14.3242Z" stroke="#252B37" stroke-width="0.576879" stroke-miterlimit="10"/>
<path d="M9.32612 15.6709H2.40356V18.363H9.32612V15.6709Z" stroke="#252B37" stroke-width="0.576879" stroke-miterlimit="10"/>
<path d="M9.32623 18.3623H3.55743V28.5538H9.32623V18.3623Z" stroke="#252B37" stroke-width="0.576879" stroke-miterlimit="10"/>
<path d="M9.32616 13.3633H4.32654V15.6708H9.32616V13.3633Z" stroke="#252B37" stroke-width="0.576879" stroke-miterlimit="10"/>
<path d="M19.2266 21.2597H19.2293V28.1692H14.2297V21.2597H14.2324C14.231 21.2262 14.2297 21.1916 14.2297 21.1582C14.2297 20.0923 15.3484 19.2275 16.7295 19.2275C18.1105 19.2275 19.2293 20.0929 19.2293 21.1582C19.2293 21.1916 19.2279 21.2262 19.2266 21.2597Z" stroke="#252B37" stroke-width="0.576879" stroke-miterlimit="10"/>
<path d="M7.88239 23.5891H7.88393V28.6068H5.19183V23.5891H5.19337C5.19337 23.5647 5.19183 23.5397 5.19183 23.5153C5.18431 23.3338 5.21358 23.1528 5.27782 22.9828C5.34209 22.813 5.44002 22.6578 5.56576 22.5269C5.6915 22.3957 5.84241 22.2915 6.00948 22.2204C6.17654 22.149 6.35628 22.1123 6.53788 22.1123C6.7195 22.1123 6.89924 22.149 7.06628 22.2204C7.23335 22.2915 7.38428 22.3957 7.51 22.5269C7.63574 22.6578 7.73367 22.813 7.79794 22.9828C7.8622 23.1528 7.89145 23.3338 7.88393 23.5153C7.88393 23.5397 7.88393 23.5647 7.88239 23.5891Z" stroke="#252B37" stroke-width="0.576879" stroke-miterlimit="10"/>
<path d="M5.28796 20.0928H7.40319" stroke="#252B37" stroke-width="0.576879" stroke-miterlimit="10" stroke-linecap="round"/>
<path d="M13.1719 12.4023H19.9022" stroke="#252B37" stroke-width="0.576879" stroke-miterlimit="10" stroke-linecap="round"/>
<path d="M24.1328 18.363H31.0553V15.6709H24.1328V18.363Z" stroke="#252B37" stroke-width="0.576879" stroke-miterlimit="10"/>
<path d="M24.1328 28.5538H29.9015V18.3623H24.1328V28.5538Z" stroke="#252B37" stroke-width="0.576879" stroke-miterlimit="10"/>
<path d="M24.1328 15.6708H29.1324V13.3633H24.1328V15.6708Z" stroke="#252B37" stroke-width="0.576879" stroke-miterlimit="10"/>
<path d="M25.5765 23.5891H25.5749V28.6068H28.267V23.5891H28.2655C28.2655 23.5647 28.267 23.5397 28.267 23.5153C28.2745 23.3338 28.2453 23.1528 28.1811 22.9828C28.1169 22.813 28.0188 22.6578 27.893 22.5269C27.7675 22.3957 27.6165 22.2915 27.4494 22.2204C27.2823 22.149 27.1025 22.1123 26.921 22.1123C26.7395 22.1123 26.5597 22.149 26.3926 22.2204C26.2255 22.2915 26.0745 22.3957 25.949 22.5269C25.8232 22.6578 25.7251 22.813 25.6609 22.9828C25.5967 23.1528 25.5674 23.3338 25.5749 23.5153C25.5749 23.5397 25.5749 23.5647 25.5765 23.5891Z" stroke="#252B37" stroke-width="0.576879" stroke-miterlimit="10"/>
<path d="M28.1709 20.0928H26.0557" stroke="#252B37" stroke-width="0.576879" stroke-miterlimit="10" stroke-linecap="round"/>
</g>
</g>
<defs>
<clipPath id="clip0_2675_19221">
<rect width="33.0744" height="33.0744" fill="white"/>
</clipPath>
</defs>
</svg>
