<svg width="34" height="34" viewBox="0 0 34 34" fill="none" xmlns="http://www.w3.org/2000/svg">
<g clip-path="url(#clip0_2675_19249)">
<mask id="mask0_2675_19249" style="mask-type:luminance" maskUnits="userSpaceOnUse" x="0" y="0" width="34" height="34">
<path d="M33.0746 0H0.000183105V33.0744H33.0746V0Z" fill="white"/>
</mask>
<g mask="url(#mask0_2675_19249)">
<path d="M29.19 29.1702V27.9474L28.8842 27.9297V24.833L29.279 24.8124V23.7691H28.9027C28.9027 23.4998 28.9146 23.2543 28.8998 23.0101C28.8952 22.8343 28.8542 22.6614 28.7794 22.5022C28.7046 22.3432 28.5977 22.2013 28.4654 22.0855C28.1416 21.7948 27.718 21.6404 27.283 21.6544C27.033 21.6615 26.7831 21.6558 26.5262 21.6558V20.6558H27.8409V18.8675C27.6541 18.8675 27.4772 18.8596 27.3013 18.87C27.2476 18.8778 27.193 18.8667 27.1467 18.8387C27.1001 18.8106 27.065 18.7673 27.0471 18.7162C26.874 18.3775 26.6794 18.0501 26.5029 17.7134C26.4496 17.619 26.4187 17.5138 26.4121 17.4057C26.4042 16.7238 26.4077 16.042 26.4085 15.3601C26.4085 15.301 26.4154 15.2422 26.4204 15.1603H27.0896V13.8615L26.7792 13.8444C26.7629 13.7637 26.7498 13.6975 26.7365 13.6314C26.5552 12.7343 26.0333 12.1194 25.1405 11.9225C24.6378 11.8423 24.1279 11.8193 23.62 11.854C23.3547 11.8567 23.0928 11.9126 22.8493 12.0183C22.6061 12.124 22.3863 12.2773 22.2032 12.4693C22.1032 12.5699 22.0132 12.6809 21.8955 12.8126C21.8955 12.5626 21.8875 12.354 21.8984 12.1459C21.9057 12.0113 21.8567 11.9803 21.7296 11.9828C21.3115 11.9903 20.8933 11.9807 20.4755 11.9888C20.4249 11.9936 20.3741 11.982 20.3307 11.9558C20.287 11.9296 20.2532 11.8902 20.2337 11.8432C19.9574 11.3581 19.6857 10.8691 19.3804 10.4022C19.2294 10.1791 19.0439 9.98164 18.8306 9.81723C18.4741 9.55339 18.051 9.39442 17.6089 9.35823V8.56598H17.2082C17.2121 8.53752 17.2097 8.52348 17.2155 8.51598C17.5491 8.09025 17.4718 7.72989 17.0173 7.42318C16.8237 7.27087 16.6427 7.10323 16.476 6.92188H16.4319L16.4419 6.94322C16.2289 7.12263 16.027 7.31761 15.8002 7.4776C15.7208 7.52723 15.6526 7.59286 15.6 7.67034C15.5474 7.74781 15.5116 7.83542 15.4948 7.92753C15.478 8.01966 15.4806 8.11427 15.5024 8.20534C15.5242 8.29641 15.5648 8.3819 15.6216 8.45637C15.642 8.48426 15.6618 8.51233 15.6962 8.56079L15.2732 8.58002V9.34919C15.2016 9.36573 15.1545 9.3788 15.1064 9.38765C14.6985 9.45447 14.312 9.61617 13.978 9.85973C13.644 10.1033 13.3718 10.4219 13.1835 10.7899C12.9976 11.1287 12.8182 11.4723 12.6526 11.8211C12.6321 11.8776 12.5927 11.9252 12.541 11.9559C12.4893 11.9865 12.4285 11.9982 12.3692 11.989C12.019 11.979 11.6682 11.9909 11.3179 11.9828C11.1867 11.9798 11.1431 12.0267 11.1467 12.1524C11.1529 12.3515 11.1485 12.5511 11.1485 12.792C11.0875 12.728 11.0562 12.7007 11.0318 12.6684C10.75 12.2717 10.3223 12.003 9.84261 11.9215C9.33879 11.8492 8.82909 11.8263 8.3208 11.853C7.86515 11.8721 7.42812 12.0391 7.07582 12.3287C6.72354 12.6183 6.47516 13.0148 6.36826 13.4581C6.33384 13.5858 6.31365 13.7173 6.28384 13.8619H5.97021V15.1641H6.63401C6.6398 15.195 6.64391 15.2261 6.64632 15.2574C6.64632 16.0619 6.64599 16.8666 6.64536 17.6714C6.64424 17.7324 6.62966 17.7923 6.60267 17.847C6.45575 18.1439 6.29788 18.4356 6.15616 18.7348C6.13984 18.7805 6.1079 18.8189 6.066 18.8433C6.02409 18.8678 5.97491 18.8766 5.92714 18.8683C5.78177 18.8602 5.63582 18.8662 5.48487 18.8662V20.6629H6.64016V21.5938C6.48883 21.5938 6.34865 21.5908 6.20885 21.5938C6.02483 21.5869 5.84057 21.596 5.65812 21.621C5.25483 21.6831 4.88884 21.8923 4.6307 22.2084C4.37257 22.5243 4.24056 22.9247 4.26015 23.3324C4.259 23.477 4.26015 23.6218 4.26015 23.7842H3.89883V24.8124L4.26881 24.8342V27.8984L3.91537 27.9203V29.1813H3.61789C3.61674 29.2686 3.61559 29.3544 3.61462 29.4382H29.4592C29.4592 29.3494 29.4592 29.2592 29.4604 29.169L29.19 29.1702ZM29.0065 24.0588V24.5396H26.5246V24.0588H29.0065ZM28.5939 24.9109V27.8751H28.0958V24.9109H28.5939ZM26.535 21.9286C27.018 21.9621 27.5022 21.8463 27.9655 22.0753C28.1401 22.1451 28.2922 22.2617 28.405 22.412C28.5181 22.5624 28.5875 22.7411 28.606 22.9282C28.6304 23.2006 28.6106 23.477 28.6106 23.7652H27.5774V22.323H26.535V21.9286ZM27.2878 22.603V23.6554H25.4776V22.603H27.2878ZM26.8369 18.8587H21.8404V17.7387C21.8423 17.69 21.8417 17.6411 21.8386 17.5924C21.8029 17.2697 21.8152 17.213 22.1134 17.1049C22.3903 16.9922 22.6814 16.9189 22.9787 16.8871C23.5185 16.8578 24.0592 16.856 24.5992 16.8819C24.9207 16.8783 25.2374 16.959 25.518 17.116C25.7985 17.2729 26.0329 17.5006 26.1981 17.7764C26.4104 18.1243 26.6131 18.4787 26.8369 18.8587ZM21.5613 17.3069C21.5613 17.3986 21.5454 17.4618 21.4331 17.4607C20.7201 17.4582 20.0072 17.4584 19.2942 17.4567C19.273 17.4525 19.2525 17.4454 19.2332 17.4357V16.2219C19.29 16.2194 19.3486 16.2144 19.4063 16.2144C20.0578 16.2144 20.7093 16.2179 21.3608 16.2112C21.5081 16.2096 21.5696 16.2441 21.5635 16.4035C21.5525 16.7048 21.559 17.0059 21.5613 17.3069ZM11.2835 16.8773C10.8324 16.6575 10.3301 16.5644 9.83031 16.6081C9.86242 16.2823 9.75147 15.9718 9.96222 15.6737C10.0464 15.5545 10.0178 15.3555 10.0445 15.1639H11.8282V13.8529C11.7501 13.8573 11.6718 13.8562 11.5938 13.8494C11.5575 13.844 11.5267 13.8027 11.4934 13.7777C11.5238 13.7585 11.554 13.72 11.5846 13.72C12.049 13.7162 12.5132 13.7173 13.0268 13.7173C12.4691 14.3363 12.2049 15.0668 11.8413 15.7389C11.7627 15.8843 11.6844 15.9581 11.5204 15.9297C11.3358 15.8977 11.2675 15.9733 11.2802 16.1625C11.2952 16.3873 11.2835 16.6134 11.2835 16.8773ZM17.4368 12.2797V12.6822H15.6702V12.2797H17.4368ZM16.0923 11.6259C16.0285 11.5934 15.9748 11.544 15.937 11.4832C15.8993 11.4224 15.8788 11.3523 15.878 11.2807C15.8771 11.2091 15.8958 11.1386 15.9321 11.0769C15.9684 11.0151 16.0209 10.9645 16.0839 10.9304C16.1683 10.8727 16.2658 10.8325 16.3458 10.7697C16.4236 10.7016 16.4972 10.6288 16.5659 10.5516C16.7582 10.6958 16.9384 10.822 17.1088 10.9593C17.167 10.9954 17.2145 11.0465 17.2463 11.1072C17.2782 11.1679 17.2932 11.236 17.29 11.3044C17.2866 11.3729 17.2651 11.4392 17.2276 11.4965C17.1901 11.5539 17.1379 11.6001 17.0765 11.6306C16.9259 11.7145 16.7562 11.7582 16.5839 11.7573C16.4115 11.7564 16.2422 11.711 16.0925 11.6256L16.0923 11.6259ZM17.9145 12.9949C18.4308 13.0145 18.9327 13.171 19.3686 13.4485C19.8045 13.7259 20.1588 14.1143 20.3951 14.5738C20.6364 15.0059 20.8483 15.4547 21.0829 15.9139H18.1653V14.9055H14.8368V15.917H12.0661C12.4832 15.1432 12.738 14.2954 13.4314 13.7175C13.9274 13.2756 14.5608 13.0186 15.2245 12.9899C16.1208 12.9676 17.0207 12.942 17.9147 12.9945L17.9145 12.9949ZM18.9467 17.292C18.9477 17.3847 18.9313 17.442 18.8175 17.4418C17.2446 17.4388 15.6717 17.4374 14.0988 17.4378C14.0778 17.4329 14.0574 17.4258 14.0379 17.4167C14.0379 17.0705 14.0331 16.7273 14.0444 16.385C14.0456 16.3465 14.1373 16.2827 14.1886 16.2812C14.4215 16.2739 14.6549 16.2881 14.8882 16.2883C15.9573 16.2898 17.0264 16.2898 18.0954 16.2883C18.3225 16.2883 18.5495 16.2837 18.7764 16.2744C18.9027 16.269 18.9513 16.3154 18.9481 16.4448C18.9408 16.7269 18.9442 17.0094 18.9469 17.2917L18.9467 17.292ZM15.112 15.9181V15.1776H17.8674V15.9181H15.112ZM11.5598 16.3617C11.5598 16.2683 11.5854 16.2133 11.6955 16.2139C12.3763 16.2167 13.0572 16.2154 13.7679 16.2154C13.7679 16.6117 13.7714 16.9846 13.7621 17.357C13.7612 17.3928 13.6796 17.4563 13.6352 17.4567C12.9906 17.4632 12.3468 17.4601 11.7017 17.4624C11.5979 17.4624 11.559 17.4172 11.5596 17.3182C11.5615 16.9991 11.5616 16.6802 11.56 16.3613L11.5598 16.3617ZM11.5738 17.7534H21.5496V18.8523H11.574L11.5738 17.7534ZM21.2269 15.5966C20.9672 15.0626 20.6693 14.5469 20.3787 14.0285C20.3053 13.9211 20.2228 13.8203 20.132 13.7271H21.5467C21.55 13.8269 21.55 13.8269 21.2258 13.8723V15.1509H22.9358C22.8937 15.2695 22.8822 15.3968 22.9018 15.521C22.9216 15.6453 22.9724 15.7627 23.0491 15.8623C23.1068 15.9498 23.0714 16.0998 23.0745 16.2216C23.0774 16.3369 23.0745 16.4537 23.0745 16.5411L21.8305 16.8746V15.9596C21.7896 15.9437 21.7713 15.9291 21.7567 15.932C21.4729 15.9881 21.3471 15.841 21.2279 15.5962L21.2269 15.5966ZM24.1775 15.7524C24.0527 15.8204 23.9127 15.856 23.7706 15.856C23.6285 15.856 23.4885 15.8204 23.3637 15.7524C23.3083 15.7282 23.2602 15.6901 23.2241 15.6418C23.1878 15.5936 23.1647 15.5367 23.157 15.4768C23.1491 15.417 23.157 15.3561 23.1799 15.3002C23.2026 15.2443 23.2395 15.1952 23.2868 15.1578C23.4473 15.0301 23.6156 14.912 23.7771 14.7924C23.9421 14.9203 24.119 15.0484 24.2852 15.1887C24.3265 15.2281 24.3573 15.2771 24.3746 15.3314C24.3921 15.3856 24.3957 15.4434 24.3852 15.4994C24.3744 15.5554 24.35 15.6079 24.3138 15.652C24.2779 15.6961 24.2313 15.7305 24.1784 15.752L24.1775 15.7524ZM24.1806 16.1127V16.5385H23.3635V16.1127H24.1806ZM24.598 15.6627C24.6788 15.5449 24.6507 15.3526 24.6749 15.1778H26.125V17.2199C25.672 16.811 25.0816 16.5875 24.4713 16.5936C24.5015 16.2742 24.3936 15.9621 24.599 15.6624L24.598 15.6627ZM23.6544 12.1246C24.1625 12.1246 24.6748 12.0648 25.1757 12.2107C25.5266 12.3219 25.836 12.5358 26.0643 12.8245C26.2925 13.1133 26.4289 13.4639 26.456 13.831H21.8623C21.8892 13.3722 22.0892 12.9408 22.4222 12.624C22.7551 12.3073 23.1958 12.1288 23.6554 12.1247L23.6544 12.1246ZM26.8221 14.139V14.8745C26.7986 14.8818 26.7746 14.8868 26.7502 14.8893C25.9887 14.8905 25.227 14.8949 24.4655 14.8853C24.365 14.8729 24.2707 14.8291 24.1963 14.7601C24.056 14.6422 23.9333 14.5036 23.7808 14.3511C23.6681 14.4879 23.5446 14.6154 23.4116 14.7324C23.3045 14.8182 23.1749 14.8709 23.0383 14.884C22.5301 14.9009 22.0211 14.8909 21.4938 14.8909V14.139H26.8221ZM21.6109 12.2767V13.4356H20.8895C20.7852 13.4356 20.6803 13.4289 20.5766 13.4368C20.1389 13.4908 19.6965 13.3849 19.3307 13.1385C18.8996 12.86 18.3973 12.7117 17.8841 12.7114C17.8336 12.7071 17.7835 12.7 17.7337 12.6903V12.2767H21.6109ZM15.9602 7.67182C16.0502 7.62315 16.1374 7.56961 16.2216 7.51145C16.2912 7.44701 16.3555 7.37703 16.4138 7.30223C16.6169 7.4576 16.7984 7.59509 16.9782 7.73508C17.0287 7.76779 17.0704 7.8124 17.0996 7.865C17.1288 7.91759 17.1447 7.97656 17.1457 8.03671C17.1468 8.09686 17.133 8.15636 17.1057 8.20995C17.0784 8.26354 17.0383 8.30962 16.989 8.34407C16.8373 8.45399 16.6561 8.51595 16.4688 8.52196C16.2816 8.528 16.0968 8.47783 15.9383 8.37792C15.8784 8.33948 15.8295 8.28619 15.7964 8.22322C15.7632 8.16026 15.747 8.08979 15.7492 8.01866C15.7514 7.94753 15.772 7.87821 15.809 7.8174C15.8459 7.75662 15.8981 7.70647 15.9602 7.67182ZM15.5606 8.86038H17.3269V9.32188H15.5606V8.86038ZM14.494 9.87838C14.7895 9.74476 15.1066 9.66511 15.4303 9.64321C16.1418 9.61167 16.8565 9.61244 17.5674 9.6509C17.8953 9.66107 18.2153 9.75341 18.4982 9.91945C18.7811 10.0855 19.0178 10.3199 19.1865 10.6012C19.4642 11.0418 19.7326 11.4879 20.0166 11.9501H17.1584C17.2545 11.8768 17.3445 11.7958 17.4276 11.708C17.4801 11.6434 17.5192 11.569 17.5426 11.489C17.566 11.4091 17.5731 11.3253 17.5636 11.2425C17.5542 11.1598 17.5283 11.0798 17.4874 11.0072C17.4466 10.9346 17.3917 10.8709 17.3259 10.8198C17.0871 10.601 16.8375 10.3941 16.579 10.1701C16.4671 10.2855 16.3463 10.4155 16.2196 10.5393C16.1597 10.6003 16.0924 10.6534 16.0193 10.6975C15.5145 10.986 15.4728 11.5106 15.9297 11.8667L16.0371 11.9509H12.8824C13.3162 11.17 13.5868 10.2722 14.494 9.87838ZM11.4311 12.2767H15.3847V12.6843C15.1732 12.7145 14.9676 12.7349 14.7653 12.7749C14.2874 12.866 13.8364 13.0644 13.4464 13.3552C13.3674 13.4107 13.2737 13.4416 13.1772 13.4439C12.6616 13.4521 12.1459 13.4439 11.6302 13.4504C11.4809 13.4523 11.4219 13.4091 11.4273 13.2516C11.4386 12.9337 11.4311 12.6157 11.4311 12.2767ZM6.95956 12.8526C7.12905 12.6244 7.35019 12.4397 7.60486 12.3135C7.85951 12.1874 8.14045 12.1233 8.42464 12.1267C8.90755 12.0978 9.39219 12.1275 9.868 12.2149C10.2018 12.2852 10.5051 12.4585 10.7351 12.7103C10.9652 12.9622 11.1104 13.2799 11.1502 13.6187C11.1599 13.6534 11.1714 13.6875 11.1848 13.721C11.1927 13.749 11.1958 13.7787 11.2058 13.8352H6.58651C6.61059 13.4778 6.74046 13.1359 6.95956 12.8526ZM6.23481 14.8909V14.1356H11.555V14.8911C11.1585 14.8911 10.7639 14.8609 10.3762 14.8988C9.89549 14.9457 9.5086 14.8359 9.22881 14.4277C9.20618 14.4037 9.18111 14.3823 9.15401 14.3636C9.02998 14.4911 8.91461 14.6263 8.78115 14.7399C8.70428 14.8167 8.60517 14.8672 8.49791 14.8843C7.74835 14.8963 6.99937 14.8909 6.23481 14.8909ZM8.70385 15.7391C8.64638 15.7065 8.59905 15.6586 8.56713 15.6008C8.53521 15.5429 8.51994 15.4774 8.523 15.4114C8.52608 15.3454 8.54736 15.2815 8.58452 15.2269C8.62167 15.1722 8.67322 15.1289 8.73347 15.1018C8.87619 15.008 9.01333 14.906 9.1442 14.7963C9.30342 14.9182 9.4736 15.0428 9.63724 15.1753C9.67699 15.2069 9.70887 15.2472 9.73039 15.2932C9.75189 15.3392 9.76241 15.3896 9.76114 15.4403C9.75989 15.4911 9.74685 15.5409 9.72308 15.5857C9.69932 15.6306 9.66545 15.6693 9.62417 15.6989C9.48931 15.7897 9.33206 15.8414 9.16966 15.8485C9.00727 15.8556 8.84609 15.8177 8.70385 15.7391ZM9.54629 16.1143V16.5365H8.72885V16.1135L9.54629 16.1143ZM8.39907 15.8352C8.43633 15.9441 8.44849 16.0599 8.43464 16.1741C8.43964 16.314 8.4358 16.4546 8.4358 16.6054C7.86084 16.6785 7.32925 16.9494 6.93206 17.3715V15.1686H8.30581C8.26091 15.278 8.24587 15.3974 8.26225 15.5145C8.27865 15.6317 8.32586 15.7423 8.39907 15.8352ZM7.65682 17.1255C7.94774 16.9637 8.27477 16.8777 8.60771 16.8755C9.12394 16.8732 9.64013 16.8732 10.1562 16.8755C10.5083 16.8664 10.8559 16.9552 11.1604 17.1323C11.19 17.1494 11.2158 17.1725 11.236 17.2001C11.2562 17.2277 11.2705 17.2592 11.2779 17.2926C11.2883 17.7893 11.2862 18.2864 11.2865 18.7833C11.2832 18.8092 11.2767 18.8346 11.2673 18.859H6.38903C6.70208 18.1793 6.96706 17.5001 7.65682 17.1255ZM5.74523 20.3695V19.144H27.5834V20.3695H5.74523ZM20.6893 27.2761C20.6299 27.2621 20.5747 27.2336 20.5287 27.1932C20.4957 27.168 20.4587 27.1548 20.4251 27.134V27.1382C20.2924 27.0388 20.1309 26.9217 19.9747 26.7981C19.9605 26.784 19.9493 26.7673 19.9417 26.749C19.9338 26.7306 19.9297 26.7109 19.9297 26.691C19.9263 25.327 19.9242 23.9631 19.9234 22.5993C19.9178 22.592 19.9167 22.0536 19.9193 21.7844H19.9153C19.9153 21.6006 19.9088 21.4423 19.9199 21.2854C19.9226 21.2485 19.9776 21.2019 20.0199 21.1831C20.117 21.1444 20.2053 21.0864 20.2793 21.0123C20.3534 20.9385 20.4116 20.8504 20.4505 20.7533C20.4633 20.7293 20.4814 20.7085 20.5037 20.6928C20.526 20.677 20.5516 20.6666 20.5785 20.6624C20.891 20.6545 21.2037 20.6581 21.5367 20.6581V27.2844H20.7126V27.2788C20.7049 27.2778 20.697 27.2774 20.6893 27.2761ZM15.4451 23.4237V27.2538C15.2895 27.3076 15.2335 27.2503 15.1549 27.1348C15.0364 26.9915 14.9024 26.8621 14.7551 26.7486L14.7128 26.7784V26.5967C14.7128 25.2022 14.7151 23.8075 14.7097 22.413C14.7051 22.2236 14.7061 21.5052 14.7122 21.494C14.7122 21.4267 14.7136 21.3594 14.718 21.2935C14.7246 21.27 14.7363 21.2483 14.7523 21.23C14.7682 21.2116 14.788 21.1968 14.8103 21.1869C14.9111 21.1489 15.0029 21.0902 15.0796 21.0147C15.1564 20.9389 15.2164 20.8479 15.2559 20.7477C15.2694 20.7241 15.2882 20.7041 15.3109 20.6891C15.3336 20.6743 15.3594 20.6649 15.3864 20.6618C16.2038 20.6566 17.0212 20.6566 17.8387 20.6618C17.866 20.6649 17.8921 20.6743 17.9151 20.6893C17.938 20.7043 17.9571 20.7245 17.9708 20.7481C18.0053 20.8437 18.0592 20.931 18.1291 21.0047C18.199 21.0783 18.2834 21.1368 18.377 21.1762C18.3963 21.1873 18.4128 21.2025 18.4254 21.221C18.438 21.2394 18.4462 21.2604 18.4497 21.2823C18.4531 21.3521 18.4541 21.4225 18.4541 21.4938C18.4606 21.4938 18.4612 22.2715 18.456 22.4305C18.4512 23.8244 18.4512 25.2184 18.456 26.6121C18.46 26.6617 18.4477 26.7113 18.421 26.7534C18.3942 26.7954 18.3544 26.8275 18.3077 26.8448C18.1761 26.9192 18.0649 27.025 17.9837 27.1525C17.9155 27.2644 17.8559 27.2999 17.7247 27.259V23.4237H15.4451ZM17.4361 23.7108V27.2665H15.7283V23.7108H17.4361ZM12.6274 27.2353C12.5774 27.2549 12.526 27.2707 12.4736 27.2824H12.4716L12.4659 27.284C12.4457 27.2867 12.4252 27.2872 12.4049 27.2853C12.3559 27.2853 12.307 27.2853 12.258 27.2853C12.209 27.2853 12.1601 27.2853 12.1111 27.2853C12.0909 27.283 12.0706 27.2824 12.0503 27.284L12.0561 27.2824H11.6446V20.6591C11.993 20.6591 12.3357 20.6578 12.6782 20.6616C12.6951 20.6635 12.7114 20.6695 12.7255 20.6791C12.7397 20.6887 12.7513 20.7018 12.7593 20.7168C12.7956 20.83 12.8579 20.9331 12.9412 21.0179C13.0244 21.1027 13.1264 21.1669 13.2389 21.2052V21.4125C13.2427 21.4656 13.2441 21.8127 13.2429 22.0742H13.252V22.2632C13.252 23.7064 13.2526 25.1495 13.2539 26.5927C13.262 26.6456 13.2519 26.6994 13.2254 26.7458C13.1989 26.7921 13.1575 26.8282 13.1079 26.8481C12.9759 26.9334 12.854 27.0336 12.7447 27.1467V27.1446C12.7118 27.1821 12.672 27.213 12.6274 27.2353ZM13.3916 20.9331C13.3134 20.9331 13.2371 20.9093 13.1729 20.8649C13.1086 20.8204 13.0594 20.7574 13.0318 20.6843H14.9501C14.9211 20.7612 14.8683 20.8268 14.7994 20.8714C14.7305 20.916 14.6491 20.9375 14.5671 20.9325C14.1752 20.9387 13.7833 20.9379 13.3916 20.9331ZM14.4421 21.236V26.7484H13.5383V21.236H14.4421ZM13.4152 27.0602C13.8146 27.0563 14.2146 27.0473 14.613 27.0661C14.7348 27.0955 14.8505 27.1463 14.9547 27.2159L14.9309 27.2801H13.0566C13.0852 27.2101 13.1354 27.1511 13.1999 27.1115C13.2644 27.0719 13.3398 27.054 13.4152 27.0602ZM18.601 20.9327C18.5217 20.9337 18.4441 20.9106 18.3784 20.8662C18.3128 20.8218 18.2624 20.7583 18.2339 20.6843H20.1443C20.1157 20.762 20.0626 20.8283 19.993 20.8733C19.9236 20.9181 19.8413 20.9393 19.7586 20.9333C19.3729 20.9389 18.987 20.9387 18.601 20.9327ZM19.6374 21.2423V26.7556H18.7435V21.2423H19.6374ZM18.5946 27.0607C18.9938 27.0557 19.3936 27.0469 19.7919 27.0661C19.9201 27.0953 20.0426 27.1459 20.1543 27.2157L20.1316 27.2807H18.2443C18.2717 27.2117 18.3205 27.153 18.3835 27.1134C18.4465 27.0738 18.5204 27.0553 18.5946 27.0607ZM11.326 22.5722H11.3298V23.6585H10.3897V22.9426H10.3828C10.3829 22.9459 10.3825 22.9491 10.3816 22.9524C10.3805 22.948 10.38 22.9433 10.3803 22.9387C10.3768 22.8662 10.3756 22.5245 10.3768 22.2713H10.3735V21.8734H7.56105V22.3049H6.93091V20.7249H11.35V22.2713H11.3248C11.326 22.363 11.326 22.4697 11.326 22.5722ZM10.083 22.1432V23.656H7.84546V22.1432H10.083ZM7.53779 22.5991V23.6604H5.8185V22.5991H7.53779ZM6.64555 21.8823V22.3122H5.55236V23.7641H4.57897C4.4136 22.4153 5.0874 21.7154 6.64555 21.8823ZM6.60113 29.1431H4.20285V28.1999H6.60113V29.1431ZM4.56801 27.8987V24.9097H5.09567V27.8982L4.56801 27.8987ZM6.63978 27.8987H5.38161V24.8376H6.63978V27.8987ZM6.64343 24.539H4.16554V24.0736H6.64343V24.539ZM10.9452 29.1031H6.94168V23.9629H11.3517V27.283H9.01844V27.5715H10.9431V28.3756H8.69155V28.6531H10.9452V29.1031ZM21.5429 29.1667H11.2417V27.5782H21.5429V29.1667ZM21.8394 22.2901C21.8421 22.5622 21.8405 23.1028 21.8354 23.1028C21.8302 23.1028 21.8284 22.4853 21.8319 22.2374V20.7285H26.205V22.2971H25.4805C25.4747 22.1726 25.4693 22.0534 25.4633 21.9255H22.6636C22.6576 22.0478 22.6524 22.1605 22.6464 22.2849C22.648 22.5128 22.6464 22.8564 22.6443 22.9843V23.6627H21.8444V22.6053H22.6368C22.6368 22.4959 22.6368 22.383 22.6368 22.289L21.8394 22.2901ZM25.1772 22.2365V23.6594H22.9685V22.2365H25.1772ZM26.2233 29.1206H21.8519V27.5786H23.485V27.3072H21.8555V23.9671H26.2233V29.1206ZM26.521 24.8359H27.7901V27.9305H26.521V24.8359ZM28.9258 29.151H26.5221V28.2237H28.9258V29.151Z" fill="#252B37" stroke="#252B37" stroke-width="0.192293" stroke-miterlimit="10"/>
<path d="M10.386 22.2715C10.3872 22.5163 10.386 22.8437 10.3828 22.9309L10.3851 22.9272H10.3891V22.5732H11.3146C11.3146 22.4707 11.3146 22.364 11.3146 22.2717L10.386 22.2715Z" fill="#252B37" stroke="#252B37" stroke-width="0.192293" stroke-miterlimit="10"/>
<path d="M22.0944 28.7069V28.4609H24.6287V28.7069H22.0944Z" fill="#252B37" stroke="#252B37" stroke-width="0.192293" stroke-miterlimit="10"/>
<path d="M19.4286 28.6221V28.8813H13.7682V28.6226L19.4286 28.6221Z" fill="#252B37" stroke="#252B37" stroke-width="0.192293" stroke-miterlimit="10"/>
</g>
</g>
<defs>
<clipPath id="clip0_2675_19249">
<rect width="33.0744" height="33.0744" fill="white"/>
</clipPath>
</defs>
</svg>
