<svg width="34" height="34" viewBox="0 0 34 34" fill="none" xmlns="http://www.w3.org/2000/svg">
<g clip-path="url(#clip0_2675_19262)">
<mask id="mask0_2675_19262" style="mask-type:luminance" maskUnits="userSpaceOnUse" x="0" y="0" width="34" height="34">
<path d="M33.0746 0H0.000183105V33.0744H33.0746V0Z" fill="white"/>
</mask>
<g mask="url(#mask0_2675_19262)">
<path d="M13.3022 16.3926H4.03058V28.9197H13.3022V16.3926Z" stroke="#252B37" stroke-width="0.576879" stroke-miterlimit="10"/>
<path d="M28.8302 16.3926H19.5586V28.9197H28.8302V16.3926Z" stroke="#252B37" stroke-width="0.576879" stroke-miterlimit="10"/>
<path d="M12.845 28.9199H20.0991" stroke="#252B37" stroke-width="0.576879" stroke-miterlimit="10"/>
<path d="M4.03571 18.6748H13.1792" stroke="#252B37" stroke-width="0.576879" stroke-miterlimit="10"/>
<path d="M5.82056 16.5332V18.3181" stroke="#252B37" stroke-width="0.576879" stroke-miterlimit="10"/>
<path d="M7.96228 16.5332V18.4965" stroke="#252B37" stroke-width="0.576879" stroke-miterlimit="10"/>
<path d="M9.92566 16.5332V18.4965" stroke="#252B37" stroke-width="0.576879" stroke-miterlimit="10"/>
<path d="M8.94397 22.6011V19.9238" stroke="#252B37" stroke-width="0.576879" stroke-miterlimit="10"/>
<path d="M11.1752 22.6011V19.9238" stroke="#252B37" stroke-width="0.576879" stroke-miterlimit="10"/>
<path d="M6.71301 22.6011V19.9238" stroke="#252B37" stroke-width="0.576879" stroke-miterlimit="10"/>
<path d="M23.5797 22.6011V19.9238" stroke="#252B37" stroke-width="0.576879" stroke-miterlimit="10"/>
<path d="M25.8107 22.6011V19.9238" stroke="#252B37" stroke-width="0.576879" stroke-miterlimit="10"/>
<path d="M21.3486 22.6011V19.9238" stroke="#252B37" stroke-width="0.576879" stroke-miterlimit="10"/>
<path d="M11.889 16.5332V18.4965" stroke="#252B37" stroke-width="0.576879" stroke-miterlimit="10"/>
<path d="M19.5637 18.6748H28.7073" stroke="#252B37" stroke-width="0.576879" stroke-miterlimit="10"/>
<path d="M21.3486 16.5332V18.3181" stroke="#252B37" stroke-width="0.576879" stroke-miterlimit="10"/>
<path d="M14.0307 10.8213V13.4986" stroke="#252B37" stroke-width="0.576879" stroke-miterlimit="10"/>
<path d="M19.2069 10.8213V13.4986" stroke="#252B37" stroke-width="0.576879" stroke-miterlimit="10"/>
<path d="M23.4903 16.5332V18.4965" stroke="#252B37" stroke-width="0.576879" stroke-miterlimit="10"/>
<path d="M25.4537 16.5332V18.4965" stroke="#252B37" stroke-width="0.576879" stroke-miterlimit="10"/>
<path d="M27.4171 16.5332V18.4965" stroke="#252B37" stroke-width="0.576879" stroke-miterlimit="10"/>
<path d="M13.3169 17.4248H19.5637" stroke="#252B37" stroke-width="0.576879" stroke-miterlimit="10"/>
<path d="M11.3536 15.2832H21.5273" stroke="#252B37" stroke-width="0.576879" stroke-miterlimit="10"/>
<path d="M11.3536 13.6777H21.5272" stroke="#252B37" stroke-width="0.576879" stroke-miterlimit="10"/>
<path d="M5.64899 16.2272V14.748H11.6039" stroke="#252B37" stroke-width="0.576879" stroke-miterlimit="10"/>
<path d="M28.0244 16.2272V14.748H21.7054" stroke="#252B37" stroke-width="0.576879" stroke-miterlimit="10"/>
<path d="M11.6039 16.2246V10.7754H21.63V16.2246" stroke="#252B37" stroke-width="0.576879" stroke-miterlimit="10"/>
<path d="M22.241 9.03711H10.8181V10.822H22.241V9.03711Z" stroke="#252B37" stroke-width="0.576879" stroke-miterlimit="10"/>
<path d="M18.4601 22.4227V28.6695H14.3877V22.4227C14.3877 21.043 15.2988 19.9238 16.4239 19.9238C17.549 19.9238 18.4601 21.043 18.4601 22.4227Z" stroke="#252B37" stroke-width="0.576879" stroke-miterlimit="10"/>
</g>
</g>
<defs>
<clipPath id="clip0_2675_19262">
<rect width="33.0744" height="33.0744" fill="white"/>
</clipPath>
</defs>
</svg>
