<svg width="34" height="34" viewBox="0 0 34 34" fill="none" xmlns="http://www.w3.org/2000/svg">
<g clip-path="url(#clip0_2675_19300)">
<mask id="mask0_2675_19300" style="mask-type:luminance" maskUnits="userSpaceOnUse" x="0" y="0" width="34" height="34">
<path d="M33.0744 0H0V33.0744H33.0744V0Z" fill="white"/>
</mask>
<g mask="url(#mask0_2675_19300)">
<path d="M29.9246 26.1338C29.8011 26.2336 29.6728 26.327 29.54 26.4138C29.3317 26.5364 29.11 26.6357 28.8998 26.7553C28.4675 27.026 27.9678 27.1697 27.4576 27.1697C26.9475 27.1697 26.4477 27.026 26.0154 26.7553C25.7024 26.537 25.3437 26.393 24.9667 26.3343C24.453 26.2909 23.9406 26.429 23.5185 26.7247C23.1966 26.9403 22.8312 27.082 22.4482 27.1402C22.0653 27.1983 21.6742 27.1712 21.3029 27.061C21.005 26.9708 20.7212 26.8393 20.4599 26.6705C19.7048 26.213 18.9564 26.192 18.2085 26.6647C17.1388 27.3404 16.0795 27.3314 15.0113 26.6586C14.6881 26.434 14.304 26.3134 13.9104 26.3132C13.5168 26.313 13.1325 26.433 12.8091 26.6574C11.7323 27.3375 10.6655 27.3364 9.58785 26.6574C9.26524 26.4315 8.88069 26.3105 8.48678 26.3115C8.09288 26.3122 7.70886 26.4347 7.38723 26.6622C7.05083 26.8937 6.66834 27.0499 6.26596 27.1197C5.86359 27.1897 5.45085 27.1718 5.05608 27.0672C4.82563 26.9945 4.60265 26.8999 4.39015 26.7849C4.12497 26.6597 3.86905 26.5147 3.60176 26.3934C3.36332 26.2851 3.25254 26.0926 3.33253 25.8801C3.3494 25.8282 3.37736 25.7807 3.41447 25.7407C3.4516 25.7007 3.497 25.6692 3.5475 25.6486C3.59799 25.6281 3.65241 25.6186 3.70691 25.6211C3.76141 25.6236 3.81471 25.6381 3.86309 25.6632C4.18114 25.7952 4.47956 25.9734 4.79338 26.1163C5.03106 26.2244 5.27952 26.3086 5.52316 26.4034L5.57219 26.3288C5.53508 26.2361 5.49968 26.1426 5.46045 26.0507C4.77294 24.441 4.08609 22.8311 3.39986 21.2207C3.34111 21.1063 3.31344 20.9786 3.31965 20.8501C3.35811 20.6023 3.55484 20.5309 3.78502 20.5313C4.40893 20.5323 5.03287 20.5323 5.6568 20.5313C6.4802 20.5313 7.30341 20.53 8.12661 20.5313C8.54966 20.5325 8.66174 20.6484 8.66328 21.0759C8.66328 21.293 8.65732 21.5103 8.66578 21.727C8.65998 21.7883 8.66746 21.8503 8.68769 21.9085C8.7079 21.9668 8.74041 22.0201 8.78302 22.0647C8.82562 22.1093 8.87732 22.1441 8.93459 22.167C8.99187 22.1899 9.05339 22.2002 9.11498 22.1972C10.4839 22.2045 11.8531 22.1985 13.222 22.1972C13.2378 22.1972 13.2533 22.1841 13.2851 22.17V19.6608C12.9668 19.5883 12.4699 19.7762 12.4894 19.231C12.5069 18.7428 12.962 18.8943 13.2822 18.8413V17.9831H6.58077C6.58077 18.3869 6.58269 18.7753 6.58077 19.1639C6.57865 19.4691 6.43347 19.6391 6.1858 19.635C5.95062 19.631 5.80313 19.462 5.80275 19.1749C5.80069 17.5596 5.80069 15.9444 5.80275 14.3291C5.80275 13.9951 5.94522 13.8464 6.27519 13.8459C8.16428 13.843 10.0534 13.843 11.9425 13.8459C12.2461 13.8459 12.4153 13.9997 12.4107 14.2481C12.4061 14.4899 12.2476 14.6204 11.9506 14.6254C11.8394 14.6272 11.7282 14.6254 11.5992 14.6254V17.1852H12.1775C12.9055 17.1852 13.6333 17.1841 14.3613 17.1864C14.4562 17.1834 14.5511 17.1936 14.6432 17.2166C14.7293 17.2364 14.8046 17.2882 14.8539 17.3615C14.9032 17.4348 14.9228 17.5241 14.9088 17.6114C14.91 17.6999 14.8768 17.7855 14.8162 17.85C14.7556 17.9146 14.6723 17.9531 14.5838 17.9575C14.4237 17.9667 14.2633 17.9678 14.1031 17.9607V22.1858H17.8789C17.8841 22.0987 17.8939 22.0077 17.8941 21.9166C17.8953 21.0744 17.8941 20.2321 17.8955 19.3901C17.8964 18.9797 18.0149 18.8609 18.4214 18.858C18.792 18.8551 19.1623 18.858 19.5636 18.858C19.5636 18.4567 19.5621 18.0855 19.5636 17.7144C19.5659 17.3106 19.6871 17.1873 20.0941 17.1872C22.2171 17.1858 24.3402 17.1858 26.4633 17.1872C26.8809 17.1872 27.009 17.3168 27.0104 17.7296C27.0115 18.0929 27.0104 18.4561 27.0104 18.8582C27.3799 18.8582 27.7313 18.8582 28.0826 18.8582C28.571 18.8591 28.676 18.9651 28.6762 19.4564C28.6762 19.8025 28.6762 20.1487 28.6762 20.5306C28.9092 20.5306 29.1227 20.54 29.335 20.5281C29.4456 20.5125 29.5584 20.5263 29.6619 20.5684C29.7653 20.6104 29.8561 20.6788 29.9246 20.7671V21.0274C29.4746 21.9247 29.0119 22.8158 28.5785 23.7209C28.1212 24.675 27.6093 25.5815 26.6915 26.2124C26.7427 26.2432 26.7961 26.2695 26.8517 26.2913C27.1169 26.3736 27.3961 26.4001 27.6718 26.3691C27.9478 26.3384 28.2141 26.2507 28.4545 26.1117C28.7131 25.9553 28.9816 25.8159 29.2581 25.694C29.5977 25.5515 29.6963 25.5925 29.9251 25.8728L29.9246 26.1338ZM28.875 21.3111H28.5454C26.6048 21.3111 24.663 21.3465 22.7238 21.2918C22.0559 21.2726 21.6744 21.4395 21.4594 22.0845C21.2369 22.7521 20.716 22.9944 20.0172 22.9915C16.4564 22.9771 12.8955 22.985 9.3344 22.9848C9.23922 22.9848 9.14363 22.9858 9.04883 22.9781C8.73312 22.9629 8.43553 22.8261 8.21837 22.5964C8.00124 22.3668 7.88138 22.062 7.88394 21.7458C7.88028 21.6099 7.88394 21.4738 7.88394 21.3349H4.29229L6.41867 26.304C6.66865 26.1634 6.88017 26.0284 7.10381 25.9219C7.34727 25.7923 7.60415 25.6896 7.8699 25.6157C8.70945 25.4256 9.46882 25.6306 10.1918 26.0926C10.8456 26.5101 11.5362 26.4815 12.2109 26.1009C12.3929 25.9838 12.5818 25.8778 12.7765 25.7832C13.1955 25.5892 13.6573 25.5059 14.1178 25.5415C14.5782 25.5771 15.0218 25.7302 15.406 25.9863C15.7559 26.2401 16.1766 26.3778 16.6088 26.3797C17.041 26.3818 17.463 26.248 17.8151 25.9973C18.0838 25.8242 18.3795 25.6969 18.69 25.6209C19.04 25.5342 19.4038 25.5179 19.7601 25.5731C20.1165 25.6282 20.4582 25.7538 20.7656 25.9423C21.0425 26.1167 21.3433 26.2495 21.6586 26.3368C22.279 26.4907 22.8234 26.2584 23.3487 25.9286C24.0958 25.4598 24.9017 25.4379 25.7201 25.7205C25.7816 25.7473 25.8491 25.7577 25.9156 25.7503C25.9824 25.7432 26.046 25.7188 26.1004 25.6794C27.0982 25.0448 27.5811 24.0424 28.0522 22.985H27.7155C26.1733 22.985 24.6311 22.985 23.0887 22.985C22.9935 22.9884 22.8984 22.9834 22.8041 22.9704C22.7145 22.9558 22.6332 22.9094 22.5745 22.8402C22.5161 22.7708 22.4842 22.6829 22.4845 22.5921C22.4851 22.5012 22.518 22.4137 22.5772 22.3448C22.6366 22.2762 22.7184 22.2308 22.8082 22.2172C22.9028 22.2056 22.9982 22.2014 23.0933 22.2049C24.6009 22.2049 26.1085 22.2049 27.6159 22.2049C28.5104 22.2049 28.5104 22.2048 28.8629 21.3826C28.8683 21.359 28.8723 21.3351 28.875 21.3111ZM10.7875 16.2959C10.6337 16.2959 10.5135 16.2995 10.3936 16.2959C10.3416 16.2998 10.2894 16.2934 10.24 16.2769C10.1906 16.2605 10.145 16.2343 10.1058 16.2001C10.0666 16.1658 10.0346 16.1241 10.0117 16.0774C9.98874 16.0306 9.97532 15.9798 9.97222 15.9278C9.97155 15.8735 9.98182 15.8196 10.0024 15.7694C10.023 15.7192 10.0536 15.6736 10.0922 15.6354C10.1308 15.5973 10.1768 15.5673 10.2273 15.5473C10.2778 15.5273 10.3318 15.5177 10.3861 15.519C10.5195 15.5102 10.6539 15.5173 10.7843 15.5173V14.6435H6.59788V17.1683H10.7875V16.2959ZM22.8864 17.9881H20.358V18.8365H22.8857L22.8864 17.9881ZM26.2166 17.9998H23.6904V18.842H26.2154L26.2166 17.9998ZM27.8816 19.657H25.3647V20.5171H27.8809L27.8816 19.657ZM21.2171 19.6585H18.6887V20.5098H21.2164L21.2171 19.6585ZM22.0248 20.515H24.5438V19.6537H22.0248V20.515ZM18.6873 22.1879C19.2509 22.1879 19.8009 22.1962 20.3503 22.18C20.4047 22.1716 20.4566 22.152 20.503 22.1225C20.5493 22.0929 20.5891 22.0539 20.6195 22.0081C20.7506 21.8016 20.8502 21.5741 20.9735 21.3305H18.6868L18.6873 22.1879Z" fill="#252B37"/>
<path d="M29.9246 28.2186C29.8023 28.3202 29.6746 28.415 29.542 28.5025C29.3341 28.6253 29.111 28.7219 28.9014 28.8422C27.94 29.3951 26.9683 29.4176 26.0218 28.8395C25.4621 28.4976 24.8921 28.3098 24.2481 28.4767C24.0237 28.5401 23.8103 28.6371 23.6145 28.764C22.5709 29.4147 21.5268 29.4312 20.4848 28.7782C20.1413 28.5386 19.7321 28.4109 19.3133 28.4125C18.8946 28.414 18.4865 28.5448 18.1448 28.7869C17.1414 29.4168 16.1174 29.4295 15.1104 28.7974C14.7575 28.5488 14.3362 28.4157 13.9045 28.4165C13.4728 28.4173 13.052 28.5517 12.7 28.8017C12.261 29.1049 11.7404 29.2678 11.2069 29.2689C10.6734 29.2701 10.1521 29.1095 9.71175 28.8082C8.88066 28.2879 8.08957 28.2919 7.25598 28.8161C6.29047 29.4232 5.29459 29.4037 4.30697 28.8299C4.07622 28.6953 3.83124 28.5857 3.58799 28.4751C3.53822 28.4596 3.49201 28.4346 3.45202 28.4011C3.412 28.3677 3.37898 28.3267 3.35487 28.2805C3.33076 28.2344 3.31599 28.1838 3.31145 28.1319C3.30689 28.08 3.31266 28.0277 3.32839 27.9781C3.34247 27.9277 3.36716 27.8808 3.40085 27.8408C3.43452 27.8006 3.4764 27.7683 3.52366 27.7456C3.57093 27.7231 3.62246 27.711 3.67483 27.71C3.72719 27.7091 3.77914 27.7192 3.8272 27.74C4.13983 27.8644 4.44352 28.0102 4.73617 28.1763C5.43977 28.5769 6.14645 28.5976 6.82466 28.1619C7.15093 27.9313 7.52182 27.7715 7.91352 27.6927C8.30524 27.6141 8.70908 27.6181 9.09911 27.7048C9.41795 27.7827 9.72194 27.9121 9.99904 28.0881C10.7934 28.588 11.5681 28.6032 12.3642 28.1029C13.3976 27.4531 14.4381 27.4625 15.4688 28.1113C15.8047 28.3471 16.2051 28.4736 16.6156 28.4736C17.0259 28.4736 17.4264 28.3471 17.7623 28.1113C18.8034 27.4556 19.85 27.4598 20.8903 28.1144C21.2222 28.3484 21.6181 28.4746 22.0245 28.4759C22.4306 28.4771 22.8273 28.3532 23.1605 28.1211C24.2199 27.4533 25.2779 27.4608 26.3357 28.1279C26.6664 28.3559 27.0589 28.4778 27.4606 28.4771C27.8625 28.4763 28.2544 28.3532 28.5843 28.1238C28.7976 27.9919 29.0218 27.8787 29.2545 27.7852C29.6006 27.6462 29.6896 27.6794 29.925 27.9583L29.9246 28.2186Z" fill="#252B37"/>
<path d="M8.26048 19.6326C8.11376 19.6326 7.96608 19.6422 7.82032 19.6303C7.72736 19.6283 7.63893 19.5899 7.57414 19.5232C7.50938 19.4564 7.47346 19.3668 7.47419 19.2739C7.46634 19.2283 7.46808 19.1815 7.47925 19.1366C7.49042 19.0916 7.5108 19.0494 7.53911 19.0128C7.56741 18.9761 7.60303 18.9457 7.6437 18.9235C7.68435 18.9013 7.72917 18.8878 7.77532 18.8838C8.11018 18.8573 8.44662 18.8578 8.7814 18.8851C8.82745 18.8895 8.87206 18.9036 8.91235 18.9264C8.95264 18.9491 8.98767 18.9801 9.01519 19.0173C9.04273 19.0545 9.06213 19.0971 9.07213 19.1422C9.08215 19.1874 9.08253 19.2341 9.0733 19.2795C9.07357 19.3255 9.0648 19.3709 9.04747 19.4134C9.03015 19.4559 9.00463 19.4945 8.97235 19.527C8.94006 19.5595 8.90168 19.5855 8.85937 19.6031C8.81707 19.6208 8.77169 19.6301 8.72583 19.6303C8.57218 19.643 8.41604 19.6326 8.26048 19.6326Z" fill="#252B37"/>
<path d="M10.762 19.6327C10.6153 19.6327 10.4678 19.6419 10.322 19.6304C10.2291 19.6287 10.1407 19.5902 10.0759 19.5237C10.0111 19.4571 9.97514 19.3675 9.97591 19.2746C9.96797 19.2291 9.96956 19.1822 9.98064 19.1373C9.9917 19.0923 10.012 19.0501 10.0402 19.0134C10.0684 18.9766 10.104 18.9462 10.1446 18.9239C10.1852 18.9016 10.2299 18.888 10.2761 18.8839C10.6109 18.8574 10.9472 18.8577 11.282 18.8849C11.328 18.8893 11.3727 18.9033 11.4129 18.9261C11.4532 18.9489 11.4882 18.9798 11.5157 19.017C11.5432 19.0542 11.5626 19.0968 11.5726 19.142C11.5826 19.1872 11.583 19.2339 11.5737 19.2793C11.5743 19.3252 11.5659 19.3706 11.5488 19.4133C11.5317 19.4558 11.5063 19.4946 11.4741 19.5273C11.4419 19.56 11.4035 19.5858 11.3612 19.6037C11.3189 19.6213 11.2734 19.6304 11.2276 19.6304C11.0737 19.6431 10.9174 19.6327 10.762 19.6327Z" fill="#252B37"/>
<path d="M15.7658 23.8806C15.8175 23.8774 15.8695 23.8849 15.9182 23.9027C15.9669 23.9206 16.0113 23.9485 16.0486 23.9847C16.0859 24.0206 16.1152 24.0643 16.1347 24.1123C16.1542 24.1604 16.1634 24.2119 16.1617 24.2639C16.1624 24.3641 16.1241 24.4604 16.0548 24.5327C15.9856 24.605 15.8908 24.6475 15.7908 24.651C15.7389 24.6521 15.6874 24.6429 15.6391 24.6238C15.5909 24.6048 15.5469 24.5763 15.5097 24.5402C15.4726 24.504 15.443 24.4608 15.4228 24.4131C15.4025 24.3652 15.392 24.3141 15.3918 24.2621C15.391 24.2125 15.4001 24.1631 15.4185 24.117C15.437 24.0708 15.4644 24.0289 15.4991 23.9933C15.5339 23.9579 15.5754 23.9297 15.6212 23.9102C15.6669 23.891 15.7161 23.8808 15.7658 23.8806Z" fill="#252B37"/>
<path d="M19.1178 23.8811C19.1696 23.8808 19.221 23.8908 19.2687 23.9106C19.3166 23.9304 19.3601 23.9598 19.3964 23.9967C19.4327 24.0336 19.4612 24.0775 19.4802 24.1255C19.4993 24.1738 19.5085 24.2253 19.5072 24.2771C19.5016 24.3773 19.4583 24.4717 19.386 24.5411C19.3135 24.6105 19.2175 24.6499 19.1172 24.6515C19.0653 24.6517 19.014 24.6411 18.9663 24.6207C18.9186 24.6003 18.8755 24.5705 18.8398 24.5328C18.804 24.4953 18.7762 24.4509 18.7582 24.4023C18.7402 24.3536 18.7323 24.3017 18.7349 24.25C18.7348 24.2003 18.7447 24.1511 18.7641 24.1054C18.7835 24.0596 18.8119 24.0182 18.8476 23.9838C18.8834 23.9494 18.9258 23.9225 18.9722 23.9048C19.0186 23.8873 19.0682 23.8792 19.1178 23.8811Z" fill="#252B37"/>
<path d="M11.1632 24.2608C11.1659 24.361 11.1289 24.4583 11.0602 24.5313C10.9915 24.6046 10.8967 24.6475 10.7965 24.6509C10.6918 24.6533 10.5906 24.614 10.5146 24.5421C10.4386 24.47 10.3941 24.371 10.3907 24.2664C10.3908 24.1662 10.4298 24.07 10.4995 23.9981C10.5692 23.9262 10.6641 23.8841 10.7642 23.8808C10.8159 23.8772 10.8679 23.8843 10.9167 23.9018C10.9655 23.9193 11.0101 23.9468 11.0477 23.9825C11.0852 24.0183 11.1149 24.0616 11.1348 24.1094C11.1547 24.1573 11.1644 24.2089 11.1632 24.2608Z" fill="#252B37"/>
<path d="M12.8306 24.2578C12.8338 24.358 12.7975 24.4555 12.7294 24.5289C12.6614 24.6026 12.5671 24.6466 12.467 24.6512C12.4151 24.653 12.3634 24.6445 12.3149 24.6262C12.2663 24.608 12.2218 24.5803 12.184 24.5447C12.1462 24.5093 12.1157 24.4666 12.0944 24.4193C12.073 24.372 12.0613 24.3211 12.0597 24.2692C12.0578 24.169 12.0954 24.0721 12.1645 23.9994C12.2336 23.9267 12.3285 23.8842 12.4287 23.8811C12.4804 23.8769 12.5324 23.8836 12.5814 23.9007C12.6304 23.9178 12.6752 23.945 12.7131 23.9805C12.7509 24.0159 12.7809 24.059 12.8012 24.1067C12.8214 24.1546 12.8314 24.2059 12.8306 24.2578Z" fill="#252B37"/>
<path d="M14.4938 24.2671C14.495 24.3672 14.4565 24.464 14.3867 24.5359C14.317 24.608 14.2216 24.6495 14.1213 24.6516C14.0694 24.6522 14.018 24.6428 13.9698 24.6234C13.9217 24.6041 13.8778 24.5755 13.8407 24.5392C13.8037 24.5028 13.7741 24.4595 13.7539 24.4119C13.7336 24.3642 13.7229 24.3128 13.7225 24.2609C13.7228 24.1605 13.7627 24.0646 13.8335 23.9934C13.9043 23.9225 14.0003 23.8821 14.1006 23.8815C14.1523 23.8784 14.2042 23.8863 14.2528 23.9044C14.3014 23.9227 14.3456 23.9509 14.3826 23.9871C14.4197 24.0234 14.4487 24.0671 14.4678 24.1153C14.487 24.1636 14.4958 24.2151 14.4938 24.2671Z" fill="#252B37"/>
<path d="M17.4487 23.8811C17.5005 23.8801 17.552 23.8897 17.5999 23.9092C17.6479 23.9288 17.6914 23.9578 17.7279 23.9947C17.7643 24.0315 17.7928 24.0753 17.8118 24.1236C17.8307 24.1718 17.8397 24.2234 17.8381 24.2751C17.834 24.3753 17.7916 24.4701 17.7198 24.5401C17.6479 24.6101 17.5519 24.6499 17.4516 24.6512C17.3997 24.6516 17.3484 24.6414 17.3006 24.6212C17.2528 24.601 17.2096 24.5714 17.1736 24.5341C17.1377 24.4966 17.1097 24.4524 17.0913 24.4039C17.073 24.3553 17.0647 24.3036 17.067 24.2518C17.0667 24.202 17.0764 24.1528 17.0956 24.107C17.1148 24.0611 17.1431 24.0197 17.1787 23.9849C17.2144 23.9503 17.2567 23.9234 17.3031 23.9055C17.3495 23.8876 17.399 23.8794 17.4487 23.8811Z" fill="#252B37"/>
<path d="M8.29097 16.2948C8.14387 16.2948 7.99675 16.2996 7.85022 16.2939C7.80209 16.2957 7.75407 16.2878 7.70902 16.2708C7.66396 16.2538 7.62275 16.2279 7.58783 16.1947C7.55291 16.1615 7.52499 16.1217 7.50569 16.0776C7.48638 16.0334 7.47611 15.9859 7.47544 15.9377C7.4669 15.8921 7.46794 15.8452 7.47852 15.8001C7.48907 15.7549 7.50892 15.7124 7.53678 15.6753C7.56464 15.6382 7.59993 15.6073 7.64039 15.5846C7.68085 15.5619 7.72559 15.5478 7.77176 15.5433C8.10645 15.5132 8.44312 15.5129 8.77784 15.5424C8.82624 15.5469 8.87306 15.5618 8.91512 15.5862C8.95717 15.6106 8.99342 15.6438 9.0214 15.6835C9.04936 15.7233 9.06839 15.7686 9.07713 15.8164C9.08587 15.8642 9.08414 15.9134 9.07205 15.9604C9.06659 16.0528 9.02519 16.1394 8.95667 16.2017C8.88818 16.2639 8.79803 16.2969 8.70554 16.2935C8.56766 16.3004 8.42923 16.2948 8.29097 16.2948Z" fill="#252B37"/>
</g>
</g>
<defs>
<clipPath id="clip0_2675_19300">
<rect width="33.0744" height="33.0744" fill="white"/>
</clipPath>
</defs>
</svg>
